<?xml version="1.0" encoding="UTF-8"?>
<svg width="100" height="50" version="1.1" viewBox="0 0 100 50" xmlns="http://www.w3.org/2000/svg">
	<defs>
  <style>
    .sprite {
      display: none;
    }
    .sprite:target {
      display: inline;
    }
  </style>
</defs>
<g id="achmatova" class="sprite">
 <title>Achmatova</title>
 <defs>
  <clipPath id="clipPath1">
   <path d="M 0,42.777 H 87.487 V 0 H 0 Z"/>
  </clipPath>
 </defs>
 <g transform="matrix(1.1202 0 0 -1.1202 .99995 48.959)">
  <g clip-path="url(#clipPath1)">
   <g transform="translate(40.834 22.36)">
    <path d="m0 0c0-11.275-9.141-20.417-20.417-20.417s-20.416 9.142-20.416 20.417c0 11.276 9.14 20.417 20.416 20.417s20.417-9.141 20.417-20.417" fill="#435143" fill-rule="evenodd"/>
   </g>
   <g transform="translate(19.52,7.6318)">
    <path d="m0 0c-0.025 0.035-0.052 0.072-0.077 0.109-0.813 0.237-1.62 0.493-2.44 0.707-0.556 0.145-1.132 0.217-1.692 0.352-0.329 0.08-0.725 0.135-0.948 0.348-0.539 0.517-1.1 0.898-1.865 0.982-0.187 0.02-0.403 0.256-0.5 0.447-0.073 0.139 0.026 0.368 0.048 0.555 0.237-0.043 0.475-0.072 0.706-0.131 0.668-0.166 1.324-0.422 2-0.496 0.902-0.098 1.819-0.029 2.678-0.426 0.218-0.099 0.494-0.097 0.745-0.103 1.078-0.026 2.156-0.035 3.234-0.051 0.214-2e-3 0.439-0.041 0.638 0.014 0.123 0.033 0.294 0.214 0.29 0.326-8e-3 0.285-0.07 0.578-0.169 0.846-0.23 0.619-0.742 0.632-1.303 0.595-0.602-0.039-1.285-0.349-1.788 0.149-0.624 0.619-1.326 0.588-2.096 0.519-0.929-0.082-1.862-0.127-2.753 0.287-0.162 0.076-0.406 0.026-0.598-0.023-0.703-0.182-1.39-0.442-2.102-0.561-0.504-0.086-0.537-0.273-0.357-0.656 0.474-1.006 0.053-1.949-1.059-2.25 0.286-0.596 0.264-1.379 1.142-1.533 0.152-0.027 0.305-0.057 0.457-0.059 0.813-0.011 1.625 8e-3 2.437-0.025 1.376-0.055 2.749-0.168 4.125-0.197 0.413-8e-3 0.831 0.177 1.247 0.275m7.81 20.708c-0.157 0.72-0.938 1.557-1.382 1.626-0.535 0.083-0.661 0.285-0.528 0.985-0.498 0.064-0.992 0.128-1.485 0.192-0.039 5e-3 -0.088 0.032-0.113 0.017-0.713-0.42-1.427-0.837-2.126-1.276-0.087-0.054-0.15-0.239-0.134-0.351 0.08-0.596 0.153-1.197 0.297-1.78 0.164-0.665 0.562-0.965 1.195-1.01 0.855-0.06 1.218 0.155 1.553 0.847 0.126 0.259 0.083 0.797 0.573 0.631 0.432-0.146 0.783-0.456 0.883-0.99 0.143-0.758-0.066-1.425-0.445-2.071 0.068-0.056 0.136-0.111 0.204-0.167 0.508 0.608 1.014 1.216 1.575 1.887 0.147-0.252 0.241-0.342 0.252-0.441 0.099-0.882 0.231-1.765 0.259-2.649 0.042-1.337-0.014-2.677 0.011-4.014 0.017-0.896-0.159-1.713-0.577-2.519-0.76-1.463-1.465-2.955-2.15-4.455-0.767-1.676-1.505-3.363-2.211-5.066-0.196-0.473-0.148-1.053-0.361-1.516-0.512-1.109-1.079-2.197-1.693-3.254-0.377-0.648-0.908-1.205-1.324-1.834-0.735-1.115-1.818-1.221-2.99-1.086-0.502 0.059-1.029 0.08-1.49 0.256-0.529 0.201-1.058 0.488-1.482 0.857-0.939 0.817-1.824 1.698-2.708 2.575-0.326 0.324-0.586 0.712-0.937 1.148-0.058-0.229-0.094-0.375-0.111-0.439-0.794 0.343-1.566 0.666-2.33 1.007-0.881 0.395-1.124 1.157-1.133 2.041-7e-3 0.758-0.024 1.514-0.013 2.272 4e-3 0.287 0.088 0.574 0.112 0.863 0.043 0.51-0.01 1.045 0.12 1.529 0.188 0.7 0.452 1.389 0.777 2.038 0.409 0.812 0.914 1.574 1.371 2.361 0.226 0.389 0.197 0.74-0.178 1.031-0.737 0.572-1.469 1.152-2.212 1.715-0.111 0.084-0.276 0.098-0.322 0.112-0.222 0.379-0.437 0.687-0.593 1.022-0.277 0.595-0.525 1.203-0.773 1.811-0.387 0.952-0.782 1.904-1.133 2.87-0.064 0.175-0.011 0.495 0.115 0.616 0.324 0.312 0.721 0.548 1.139 0.852-0.081 0.067-0.179 0.214-0.257 0.203-0.684-0.088-0.892 0.438-1.158 0.878-0.062 0.103-0.106 0.303-0.05 0.379 0.332 0.447 0.65 0.923 1.065 1.284 0.276 0.241 0.708 0.364 1.004-0.1 0.048-0.075 0.155-0.164 0.232-0.162 1.231 0.044 1.672-1.056 2.419-1.691 0.578-0.492 1.178-0.637 1.889-0.477 0.453 0.103 0.908 0.2 1.404 0.309-0.759 0.416-1.485 0.814-2.326 1.274 0.574 0.277 1.14 0.391 1.433 0.735 0.282 0.334 0.284 0.907 0.425 1.433 0.661 0.143 1.486-0.175 1.928-0.831 0.282-0.416 0.522-0.864 0.835-1.254 0.116-0.145 0.388-0.167 0.588-0.245 0.012 0.175 0 0.355 0.039 0.523 0.059 0.246 0.155 0.483 0.234 0.724 0.195-0.094 0.422-0.151 0.58-0.288 0.946-0.832 0.97-1.194 0.34-2.302-0.224-0.392-0.352-0.786-0.797-1.049-0.343-0.202-0.189-1.091 0.173-1.554 0.509-0.655 0.436-1.586-0.067-2.266-0.326-0.441-0.498-0.995-0.775-1.476-0.172-0.298-0.395-0.572-0.624-0.831-0.596-0.674-0.976-1.442-1.003-2.349-6e-3 -0.205 0.092-0.507 0.246-0.611 1.423-0.951 2.837-1.947 4.587-2.203 0.293-0.043 0.616 0.156 0.93 0.223 0.381 0.08 0.765 0.162 1.151 0.199 0.674 0.062 1.28 0.279 1.875 0.695-1.668-0.228-2.125 0.902-2.496 2.106-0.575 1.866-0.531 3.754 0.025 5.6 0.282 0.938 0.074 1.773-0.098 2.663-0.164 0.837-0.214 1.697-0.297 2.548-0.031 0.309-0.01 0.623-0.017 0.934-0.026 1.201-0.61 2.004-1.719 2.46-0.232 0.095-0.416 0.309-0.62 0.467-0.065-0.108-0.174-0.286-0.282-0.464-0.04 0.017-0.08 0.033-0.119 0.05 0 0.589-0.022 1.178 0.016 1.764 8e-3 0.12 0.254 0.211 0.357 0.343 0.109 0.139 0.246 0.311 0.241 0.465-3e-3 0.111-0.2 0.265-0.341 0.315-0.874 0.313-1.759 0.592-2.633 0.903-0.376 0.134-0.734 0.319-0.991 0.432-0.405 0.044-0.742 0.014-1.006 0.138-0.125 0.059-0.098 0.416-0.165 0.631-0.052 0.17-0.105 0.365-0.222 0.487-0.295 0.308-0.199 0.547 0.07 0.787 0.096 0.085 0.187 0.177 0.288 0.254 0.196 0.152 0.398 0.296 0.598 0.443 0.097-0.176 0.171-0.373 0.3-0.521 0.093-0.106 0.283-0.233 0.392-0.204 0.933 0.244 1.87 0.484 2.779 0.8 0.653 0.228 1.249 0.547 1.91 9e-3 0.108-0.089 0.431 1e-3 0.606 0.097 0.319 0.178 0.583 0.46 0.907 0.628 0.32 0.166 0.542 0.031 0.493-0.359-0.043-0.342-0.123-0.68-0.206-1.123 0.315 0.016 0.572 0.031 0.829 0.039 0.19 7e-3 0.401 0.058 0.566-6e-3 0.411-0.158 0.766-0.249 1.072 0.196 0.037 0.053 0.405-3e-3 0.463-0.101 0.529-0.898 1.287-1.451 2.285-1.748 0.568-0.168 1.086-0.496 1.649-0.686 0.193-0.065 0.452 0.084 0.683 0.115 0.327 0.043 0.697 0.179 0.979 0.081 1.089-0.379 1.733-1.806 1.373-2.895-0.148-0.445-0.512-0.551-0.969-0.353-0.582 0.251-1.181 0.469-1.786 0.654-0.184 0.056-0.433-1e-3 -0.617-0.083-0.135-0.06-0.273-0.239-0.294-0.382-0.014-0.09 0.168-0.255 0.294-0.309 0.247-0.106 0.52-0.148 0.776-0.234 0.236-0.079 0.485-0.148 0.691-0.28 0.485-0.313 0.996-0.613 1.403-1.012 0.26-0.255 0.514-0.692 0.489-1.027-0.072-0.968-0.349-1.901-0.91-2.728-0.229-0.337-0.457-0.349-0.701-0.075-0.991 1.115-2.291 1.325-3.686 1.338-0.302 3e-3 -0.601 0.22-0.903 0.339 0.245 0.32 0.433 0.829 0.747 0.925 0.945 0.291 1.872 0.123 2.638-0.58 0.411-0.378 0.815-0.764 1.337-1.254" fill="#fff" fill-rule="evenodd"/>
   </g>
   <g transform="translate(11.393 32.312)">
    <path d="m0 0c-0.495 0.062-0.989 0.169-1.485 0.176-0.549 8e-3 -1.033 0.11-1.45 0.487-0.461 0.417-0.505 1.062 0.02 1.386 0.599 0.369 1.26 0.666 1.929 0.888 1.194 0.395 2.238-0.226 3.283-0.655 0.574-0.236 0.816-0.9 0.645-1.483-0.097-0.333-0.287-0.548-0.694-0.364-0.136 0.061-0.404 0.1-0.457 0.031-0.413-0.544-0.94-0.546-1.524-0.401-0.085 0.021-0.19-0.033-0.285-0.053z" fill="#fff" fill-rule="evenodd"/>
   </g>
   <g transform="translate(11.376 32.325)">
    <path d="m0 0c0.451-0.148 0.914-0.268 1.348-0.456 0.289-0.126 0.561-0.321 0.794-0.537 0.268-0.249 0.51-0.537 0.712-0.842 0.097-0.147 0.076-0.373 0.108-0.563-0.201-4e-3 -0.432-0.073-0.598 1e-3 -0.663 0.297-1.297 0.662-1.962 0.957-0.371 0.164-0.794 0.211-1.173 0.363-0.273 0.111-0.512 0.307-0.774 0.47 0.38 0.752 1.009 0.566 1.564 0.595-1e-3 0-0.019 0.012-0.019 0.012" fill="#fff" fill-rule="evenodd"/>
   </g>
   <g transform="translate(24.057 27.518)">
    <path d="m 0,0 c -0.142,0.253 -0.288,0.405 -0.256,0.48 0.073,0.17 0.235,0.302 0.36,0.45 C 0.189,0.826 0.359,0.704 0.342,0.624 0.303,0.447 0.168,0.291 0,0" fill="#fff" fill-rule="evenodd"/>
   </g>
   <g transform="translate(43.512 32.935)">
    <path d="m0 0h0.42c0.28 0 0.485 0.046 0.615 0.138 0.131 0.092 0.195 0.24 0.195 0.445 0 0.197-0.065 0.339-0.196 0.426-0.131 0.088-0.359 0.131-0.685 0.131h-0.349zm1.831 0.583c0-0.716-0.459-1.074-1.377-1.074h-1.037v3.57h2.177v-0.501h-1.594v-0.95h0.425c0.937 0 1.406-0.348 1.406-1.045" fill="#435143"/>
   </g>
   <g transform="translate(47.054 36.014)">
    <path d="m0 0h0.535v-1.855c0-0.194-5e-3 -0.39-0.015-0.587-0.01-0.199-0.017-0.332-0.022-0.402h0.022l1.824 2.844h0.681v-3.569h-0.537v1.84c0 0.282 0.015 0.624 0.046 1.026h-0.019l-1.831-2.866h-0.684z" fill="#435143"/>
   </g>
   <g transform="translate(52.597 32.935)">
    <path d="m0 0h0.42c0.28 0 0.485 0.046 0.615 0.138s0.195 0.24 0.195 0.445c0 0.197-0.065 0.339-0.196 0.426-0.131 0.088-0.359 0.131-0.685 0.131h-0.349zm1.831 0.583c0-0.716-0.459-1.074-1.377-1.074h-1.037v3.57h2.177v-0.501h-1.594v-0.95h0.425c0.937 0 1.406-0.348 1.406-1.045" fill="#435143"/>
   </g>
   <g transform="translate(58.817 32.444)">
    <path d="m0 0h-0.583v3.069h-1.016c-0.129-1.042-0.232-1.751-0.309-2.127s-0.186-0.637-0.325-0.785c-0.141-0.147-0.327-0.218-0.557-0.213-0.119 0-0.232 0.02-0.34 0.061v0.486c0.093-0.041 0.184-0.061 0.272-0.061 0.117 0 0.208 0.07 0.274 0.211 0.065 0.141 0.138 0.452 0.217 0.934s0.173 1.146 0.282 1.994h2.085z" fill="#435143"/>
   </g>
   <g transform="translate(60.758 36.014)">
    <path d="m0 0h0.535v-1.855c0-0.194-5e-3 -0.39-0.014-0.587-0.01-0.199-0.017-0.332-0.023-0.402h0.023l1.823 2.844h0.681v-3.569h-0.537v1.84c0 0.282 0.016 0.624 0.047 1.026h-0.019l-1.832-2.866h-0.684z" fill="#435143"/>
   </g>
   <g transform="translate(66.165 34.234)">
    <path d="m0 0c0-0.439 0.088-0.773 0.266-1 0.177-0.227 0.44-0.34 0.789-0.34 0.345 0 0.607 0.112 0.784 0.337 0.177 0.224 0.265 0.559 0.265 1.003 0 0.438-0.087 0.77-0.262 0.996s-0.436 0.339-0.783 0.339c-0.35 0-0.614-0.113-0.792-0.339s-0.267-0.558-0.267-0.996m2.725 0c0-0.581-0.146-1.033-0.437-1.355-0.29-0.322-0.702-0.483-1.233-0.483-0.539 0-0.953 0.16-1.242 0.479-0.29 0.32-0.434 0.775-0.434 1.364s0.145 1.041 0.436 1.357c0.29 0.316 0.706 0.474 1.244 0.474 0.531 0 0.941-0.16 1.23-0.481 0.29-0.321 0.436-0.772 0.436-1.355" fill="#435143"/>
   </g>
   <g transform="translate(71.888 32.444)">
    <path d="m0 0h-0.583v3.069h-1.051v0.5h2.684v-0.5h-1.05z" fill="#435143"/>
   </g>
   <g transform="translate(76.503 32.444)">
    <path d="m0 0h-2.02v3.569h2.02v-0.493h-1.436v-0.972h1.346v-0.488h-1.346v-1.12h1.436z" fill="#435143"/>
   </g>
   <g transform="translate(81.014 32.444)">
    <path d="m0 0h-0.687l-1.469 1.809v-1.809h-0.584v3.569h0.584v-1.728l1.445 1.728h0.64l-1.441-1.723z" fill="#435143"/>
   </g>
   <g transform="translate(84.19 33.938)">
    <path d="m0 0-0.335 0.972c-0.024 0.065-0.059 0.167-0.102 0.307-0.042 0.14-0.072 0.243-0.088 0.308-0.044-0.2-0.109-0.419-0.194-0.657l-0.322-0.93zm0.51-1.494-0.357 0.991h-1.364l-0.35-0.991h-0.615l1.336 3.584h0.635l1.335-3.584z" fill="#435143"/>
   </g>
   <g transform="translate(44.948 25.044)">
    <path d="m0 0c-0.153-0.43-0.287-0.808-0.403-1.135s-0.219-0.619-0.31-0.877h2.315l-0.713 1.914-0.45 1.231h-0.019zm-1.211-3.514c-0.026-0.078-0.049-0.148-0.068-0.21-0.02-0.062-0.039-0.119-0.059-0.172-0.019-0.052-0.039-0.103-0.058-0.151-0.02-0.05-0.041-0.101-0.064-0.157l0.781 0.039v-0.435h-1.87v0.328c0.15 0 0.272 0.03 0.366 0.09 0.095 0.06 0.175 0.146 0.24 0.256 0.065 0.111 0.124 0.243 0.178 0.396 0.054 0.154 0.115 0.323 0.183 0.509l2.061 5.614h0.239l2.231-5.697c0.03-0.069 0.06-0.151 0.091-0.248 0.03-0.096 0.06-0.194 0.087-0.295 0.028-0.101 0.049-0.201 0.064-0.298 0.015-0.098 0.02-0.184 0.017-0.259l0.684 0.039v-0.435h-2.29v0.328c0.185 3e-3 0.322 0.037 0.41 0.102 0.088 0.066 0.143 0.146 0.166 0.24 0.023 0.095 0.023 0.196 0 0.304-0.023 0.107-0.053 0.209-0.088 0.303l-0.352 0.94-2.602-0.058c-0.072-0.206-0.136-0.395-0.191-0.566s-0.107-0.34-0.156-0.507" fill="#435143"/>
   </g>
   <g transform="translate(53.908 21.504)">
    <path d="m0 0c-7e-3 -0.133-0.013-0.251-0.017-0.354-5e-3 -0.103-0.017-0.211-0.037-0.325l0.63 0.03v-0.411h-2.041v0.298c0.153 0 0.27 0.031 0.349 0.091 0.08 0.06 0.138 0.144 0.176 0.251 0.038 0.108 0.058 0.236 0.064 0.386 4e-3 0.15 8e-3 0.314 0.012 0.493v0.85l-2.437-0.03v-1.279c0-0.133-1e-3 -0.251-5e-3 -0.354-3e-3 -0.103-0.014-0.211-0.034-0.325l0.63 0.03v-0.411h-2.041v0.298c0.153 0 0.27 0.031 0.349 0.091 0.08 0.06 0.138 0.144 0.176 0.251 0.038 0.108 0.059 0.236 0.066 0.386 6e-3 0.15 0.011 0.314 0.014 0.493v2.422c0 0.133 2e-3 0.251 5e-3 0.354 4e-3 0.102 0.015 0.211 0.035 0.325l-0.63-0.03v0.41h2.041v-0.297c-0.153 0-0.27-0.031-0.349-0.091-0.08-0.06-0.138-0.143-0.174-0.25-0.035-0.108-0.056-0.236-0.061-0.385s-9e-3 -0.313-0.012-0.492v-0.716h2.432v1.174c0 0.133 1e-3 0.25 5e-3 0.353 3e-3 0.102 0.014 0.21 0.034 0.324l-0.63-0.03v0.41h2.041v-0.297c-0.154 0-0.27-0.031-0.35-0.091-0.079-0.06-0.137-0.144-0.173-0.251-0.036-0.108-0.055-0.236-0.061-0.386-4e-3 -0.15-7e-3 -0.314-7e-3 -0.493z" fill="#435143"/>
   </g>
   <g transform="translate(60.128 21.504)">
    <path d="m0 0c-7e-3 -0.133-0.013-0.251-0.017-0.354-5e-3 -0.103-0.017-0.211-0.037-0.325l0.63 0.03v-0.411h-2.041v0.298c0.153 0 0.27 0.031 0.349 0.091 0.08 0.06 0.138 0.144 0.176 0.251 0.038 0.108 0.058 0.236 0.064 0.386 4e-3 0.15 9e-3 0.314 0.012 0.493v0.85l-2.437-0.03v-1.279c0-0.133-2e-3 -0.251-5e-3 -0.354s-0.014-0.211-0.034-0.325l0.63 0.03v-0.411h-2.041v0.298c0.153 0 0.27 0.031 0.35 0.091 0.079 0.06 0.137 0.144 0.175 0.251 0.038 0.108 0.059 0.236 0.066 0.386s0.012 0.314 0.014 0.493v2.422c0 0.133 2e-3 0.251 5e-3 0.354 3e-3 0.102 0.015 0.211 0.035 0.325l-0.63-0.03v0.41h2.041v-0.297c-0.154 0-0.27-0.031-0.349-0.091-0.08-0.06-0.138-0.143-0.174-0.25-0.036-0.108-0.056-0.236-0.06-0.385-6e-3 -0.149-0.01-0.313-0.013-0.492v-0.716h2.432v1.174c0 0.133 2e-3 0.25 5e-3 0.353 2e-3 0.102 0.014 0.21 0.034 0.324l-0.63-0.03v0.41h2.041v-0.297c-0.154 0-0.27-0.031-0.35-0.091-0.079-0.06-0.137-0.144-0.173-0.251-0.036-0.108-0.055-0.236-0.061-0.386-4e-3 -0.15-7e-3 -0.314-7e-3 -0.493z" fill="#435143"/>
   </g>
   <g transform="translate(64.552 22.891)">
    <path d="m0 0c-0.153-6e-3 -0.312-0.021-0.476-0.042-0.165-0.02-0.326-0.053-0.484-0.097-0.157-0.044-0.307-0.1-0.446-0.169-0.14-0.068-0.262-0.15-0.366-0.244-0.105-0.094-0.186-0.203-0.245-0.327-0.058-0.123-0.085-0.264-0.078-0.42 3e-3 -0.123 0.028-0.232 0.071-0.325 0.045-0.092 0.101-0.169 0.171-0.229s0.151-0.106 0.242-0.137c0.09-0.031 0.188-0.046 0.293-0.046 0.133 0 0.258 0.013 0.376 0.039 0.117 0.026 0.228 0.064 0.334 0.115 0.106 0.05 0.209 0.111 0.308 0.183s0.199 0.155 0.3 0.249zm-2.744 1.514c0 0.166 0.049 0.322 0.146 0.468 0.098 0.147 0.235 0.275 0.41 0.384 0.176 0.109 0.385 0.194 0.628 0.256s0.507 0.093 0.793 0.093c0.56 0 0.973-0.148 1.239-0.444 0.264-0.297 0.395-0.767 0.392-1.412l-0.01-2.246c0-0.104-1e-3 -0.209-7e-3 -0.315-4e-3 -0.106-0.015-0.227-0.032-0.363l0.708 0.039v-0.42h-1.43c-0.02 0.113-0.034 0.213-0.044 0.298-0.01 0.084-0.018 0.174-0.025 0.268-0.224-0.224-0.469-0.402-0.734-0.532-0.266-0.13-0.547-0.195-0.843-0.195-0.251 0-0.469 0.03-0.657 0.09-0.186 0.06-0.342 0.144-0.466 0.251-0.124 0.108-0.217 0.234-0.278 0.379-0.062 0.145-0.093 0.3-0.093 0.466 0 0.205 0.045 0.392 0.134 0.562 0.09 0.169 0.211 0.319 0.361 0.451 0.153 0.132 0.328 0.246 0.531 0.342 0.202 0.096 0.416 0.175 0.641 0.237 0.227 0.062 0.458 0.106 0.693 0.134 0.237 0.028 0.467 0.04 0.692 0.037v0.625c0 0.172-0.01 0.34-0.029 0.503-0.02 0.162-0.063 0.311-0.129 0.444-0.068 0.133-0.172 0.239-0.313 0.317-0.142 0.079-0.305 0.118-0.491 0.118-0.107 0-0.21-9e-3 -0.308-0.027-0.097-0.018-0.193-0.048-0.288-0.091-0.094-0.042-0.179-0.097-0.257-0.166-0.076-0.068-0.138-0.149-0.187-0.244 0.049-0.055 0.082-0.116 0.1-0.183s0.027-0.131 0.027-0.193c0-0.039-8e-3 -0.084-0.025-0.134-0.016-0.05-0.042-0.098-0.075-0.142-0.035-0.044-0.078-0.079-0.133-0.107-0.052-0.028-0.126-0.041-0.216-0.041-0.13 0-0.234 0.047-0.311 0.144-0.076 0.096-0.114 0.212-0.114 0.349" fill="#435143"/>
   </g>
   <g transform="translate(44.948 15.044)">
    <path d="m0 0c-0.153-0.43-0.287-0.809-0.403-1.135-0.116-0.328-0.219-0.62-0.31-0.877h2.315l-0.713 1.914-0.45 1.231h-0.019zm-1.211-3.514c-0.026-0.078-0.049-0.148-0.068-0.211-0.02-0.061-0.039-0.119-0.059-0.171-0.019-0.052-0.039-0.102-0.058-0.152-0.02-0.049-0.041-0.1-0.064-0.156l0.781 0.039v-0.435h-1.87v0.328c0.15 0 0.272 0.03 0.366 0.09 0.095 0.06 0.175 0.146 0.24 0.256 0.065 0.112 0.124 0.243 0.178 0.397 0.054 0.152 0.115 0.322 0.183 0.508l2.061 5.614h0.239l2.231-5.697c0.03-0.069 0.06-0.152 0.091-0.248 0.03-0.095 0.06-0.194 0.087-0.295 0.028-0.101 0.049-0.201 0.064-0.298 0.015-0.098 0.02-0.184 0.017-0.259l0.684 0.039v-0.435h-2.29v0.328c0.185 2e-3 0.322 0.037 0.41 0.102 0.088 0.066 0.143 0.146 0.166 0.24 0.023 0.095 0.023 0.196 0 0.304-0.023 0.107-0.053 0.209-0.088 0.304l-0.352 0.939-2.602-0.058c-0.072-0.206-0.136-0.395-0.191-0.566-0.055-0.172-0.107-0.341-0.156-0.507" fill="#435143"/>
   </g>
   <g transform="translate(48.942 15.444)">
    <path d="m0 0h2.061v-0.298c-0.15-7e-3 -0.268-0.026-0.354-0.058-0.087-0.033-0.138-0.084-0.154-0.154s1e-3 -0.162 0.053-0.276c0.053-0.114 0.141-0.256 0.264-0.425l0.581-0.791c0.834 1.019 1.286 1.563 1.358 1.631l-0.689-0.039v0.41h1.641v-0.298c-0.137-0.039-0.257-0.087-0.359-0.143-0.103-0.058-0.201-0.127-0.293-0.211-0.093-0.082-0.563-0.629-1.409-1.638l1.377-1.714c0.078-0.098 0.152-0.193 0.222-0.288s0.142-0.203 0.218-0.327l0.454 0.029v-0.41h-1.934v0.298c0.082 0 0.153 9e-3 0.215 0.026 0.062 0.019 0.106 0.048 0.134 0.088 0.028 0.041 0.034 0.093 0.02 0.154-0.015 0.062-0.056 0.137-0.125 0.225l-1.054 1.299c-0.681-0.931-1.037-1.416-1.067-1.455-0.031-0.039-0.065-0.078-0.1-0.117-0.036-0.039-0.079-0.085-0.127-0.137l0.766 0.029v-0.41h-1.679v0.298c0.101 0.026 0.19 0.06 0.268 0.102s0.152 0.096 0.222 0.162c0.07 0.065 0.556 0.681 1.458 1.85-0.821 1.094-1.266 1.711-1.338 1.851-0.072 0.139-0.126 0.257-0.161 0.351l-0.469-0.024z" fill="#435143"/>
   </g>
   <g transform="translate(61.081 10.444)">
    <path d="m0 0h-2.017v0.298c0.208-7e-3 0.361 0.058 0.457 0.195s0.122 0.357 0.076 0.659l-0.396 2.564-1.523-3.716h-0.401l-1.562 3.818-0.352-2.851c-0.01-0.085-0.026-0.182-0.049-0.291-0.022-0.109-0.046-0.205-0.073-0.29l0.63 0.024v-0.41h-1.538v0.298c0.104 0 0.191 0.014 0.261 0.044 0.07 0.029 0.127 0.073 0.169 0.132 0.042 0.058 0.075 0.13 0.097 0.214 0.023 0.085 0.041 0.179 0.054 0.284l0.444 3.647-0.615-0.029v0.41h1.333l1.636-3.857 1.582 3.857h1.177v-0.298c-0.183 0-0.321-0.055-0.412-0.163-0.094-0.109-0.121-0.294-0.082-0.555l0.455-3.047c0.012-0.084 0.019-0.177 0.019-0.281 0-0.101-5e-3 -0.192-0.015-0.27l0.645 0.024z" fill="#435143"/>
   </g>
   <g transform="translate(64.792 12.891)">
    <path d="m0 0c-0.153-7e-3 -0.312-0.021-0.476-0.042-0.165-0.02-0.326-0.053-0.484-0.098-0.157-0.043-0.307-0.099-0.446-0.168-0.14-0.068-0.262-0.149-0.366-0.244-0.105-0.094-0.186-0.203-0.245-0.327-0.058-0.124-0.085-0.264-0.078-0.42 3e-3 -0.124 0.028-0.231 0.071-0.325 0.045-0.092 0.101-0.169 0.171-0.229s0.151-0.106 0.242-0.136c0.09-0.032 0.188-0.047 0.293-0.047 0.133 0 0.258 0.013 0.376 0.039 0.117 0.026 0.228 0.064 0.334 0.115 0.106 0.05 0.209 0.111 0.308 0.183 0.099 0.071 0.199 0.154 0.3 0.249zm-2.744 1.514c0 0.166 0.049 0.322 0.146 0.468 0.098 0.147 0.235 0.275 0.41 0.384 0.176 0.109 0.385 0.195 0.628 0.256 0.243 0.062 0.507 0.093 0.793 0.093 0.56 0 0.973-0.149 1.239-0.444 0.264-0.296 0.395-0.767 0.392-1.412l-0.01-2.246c0-0.104-1e-3 -0.209-7e-3 -0.315-4e-3 -0.106-0.015-0.227-0.032-0.363l0.708 0.039v-0.42h-1.43c-0.02 0.114-0.034 0.213-0.044 0.298s-0.018 0.173-0.025 0.268c-0.224-0.224-0.469-0.402-0.734-0.532-0.266-0.13-0.547-0.195-0.843-0.195-0.251 0-0.469 0.03-0.657 0.09-0.186 0.06-0.342 0.144-0.466 0.251-0.124 0.108-0.217 0.234-0.278 0.378-0.062 0.146-0.093 0.301-0.093 0.467 0 0.205 0.045 0.393 0.134 0.562 0.09 0.169 0.211 0.319 0.361 0.452 0.153 0.131 0.328 0.245 0.531 0.342 0.202 0.095 0.416 0.174 0.641 0.236 0.227 0.061 0.458 0.106 0.693 0.135 0.237 0.027 0.467 0.039 0.692 0.036v0.625c0 0.173-0.01 0.34-0.029 0.503-0.02 0.163-0.063 0.31-0.129 0.444-0.068 0.134-0.172 0.239-0.313 0.317-0.142 0.079-0.305 0.118-0.491 0.118-0.107 0-0.21-9e-3 -0.308-0.028-0.097-0.017-0.193-0.048-0.288-0.09-0.094-0.042-0.179-0.097-0.257-0.166-0.076-0.068-0.138-0.149-0.187-0.244 0.049-0.055 0.082-0.116 0.1-0.183s0.027-0.131 0.027-0.193c0-0.039-8e-3 -0.084-0.025-0.133-0.016-0.051-0.042-0.098-0.075-0.143-0.035-0.043-0.078-0.079-0.133-0.107-0.052-0.028-0.126-0.041-0.216-0.041-0.13 0-0.234 0.047-0.311 0.144-0.076 0.096-0.114 0.212-0.114 0.349" fill="#435143"/>
   </g>
   <g transform="translate(70.905 13.936)">
    <path d="m0 0c-7e-3 0.208-0.022 0.383-0.049 0.522-0.026 0.14-0.07 0.252-0.135 0.334-0.062 0.084-0.146 0.143-0.251 0.176-0.104 0.035-0.234 0.052-0.39 0.052h-0.625v-3.516c0-0.133-2e-3 -0.251-5e-3 -0.354-3e-3 -0.102-0.015-0.21-0.034-0.324l0.63 0.029v-0.41h-2.041v0.298c0.153 0 0.269 0.03 0.349 0.09 0.079 0.06 0.138 0.144 0.176 0.251 0.037 0.108 0.059 0.237 0.065 0.386 7e-3 0.15 0.012 0.315 0.015 0.493v2.422c0 0.134 2e-3 0.244 5e-3 0.332s0.015 0.189 0.034 0.303h-0.723c-0.133 0-0.248-0.017-0.343-0.052-0.097-0.033-0.176-0.092-0.241-0.176-0.062-0.082-0.109-0.194-0.138-0.334-0.029-0.139-0.044-0.314-0.044-0.522h-0.381l0.044 1.509h4.419l0.044-1.509z" fill="#435143"/>
   </g>
   <g transform="translate(74.43 15.225)">
    <path d="m0 0c-0.264 0-0.489-0.059-0.677-0.176-0.186-0.117-0.341-0.274-0.461-0.47-0.12-0.195-0.209-0.419-0.265-0.673-0.058-0.255-0.086-0.519-0.086-0.792 0-0.31 0.031-0.612 0.095-0.905 0.063-0.294 0.161-0.553 0.29-0.78 0.13-0.226 0.294-0.408 0.492-0.545 0.196-0.137 0.426-0.205 0.69-0.205s0.485 0.06 0.667 0.179c0.18 0.118 0.326 0.275 0.44 0.471 0.111 0.196 0.192 0.418 0.241 0.669s0.073 0.509 0.073 0.773c0 0.3-0.027 0.597-0.083 0.89s-0.144 0.555-0.264 0.787c-0.12 0.231-0.276 0.419-0.465 0.562-0.192 0.144-0.42 0.215-0.687 0.215m0 0.381c0.352 0 0.681-0.065 0.986-0.193 0.306-0.128 0.573-0.306 0.798-0.533 0.227-0.225 0.406-0.494 0.537-0.804 0.133-0.312 0.199-0.648 0.199-1.009 0-0.388-0.065-0.75-0.193-1.089-0.129-0.339-0.306-0.633-0.533-0.884-0.226-0.251-0.492-0.448-0.801-0.593-0.306-0.145-0.639-0.217-0.993-0.217-0.352 0-0.68 0.062-0.983 0.188-0.305 0.125-0.571 0.3-0.797 0.524-0.226 0.225-0.405 0.493-0.534 0.804-0.13 0.311-0.196 0.652-0.196 1.023 0 0.393 0.065 0.76 0.193 1.1 0.129 0.341 0.305 0.635 0.53 0.885 0.225 0.248 0.49 0.443 0.796 0.586 0.305 0.141 0.637 0.212 0.991 0.212" fill="#435143"/>
   </g>
   <g transform="translate(80.002 13.188)">
    <path d="m0 0c0.205 3e-3 0.378 0.037 0.518 0.103 0.139 0.065 0.252 0.148 0.336 0.249 0.085 0.1 0.145 0.213 0.181 0.339 0.036 0.125 0.052 0.249 0.049 0.373-3e-3 0.173-0.034 0.314-0.093 0.422-0.058 0.11-0.135 0.196-0.229 0.257-0.095 0.062-0.203 0.105-0.327 0.127-0.124 0.023-0.254 0.034-0.391 0.034-0.12 0-0.23-8e-3 -0.327-0.027-0.098-0.018-0.181-0.053-0.249-0.105-0.069-0.051-0.121-0.123-0.159-0.211-0.038-0.09-0.056-0.207-0.056-0.35v-1.226zm-0.747-1.773c0-0.13-3e-3 -0.241-7e-3 -0.33-6e-3 -0.089-0.011-0.165-0.017-0.226 0.055-7e-3 0.126-0.011 0.214-0.013 0.088-1e-3 0.175-2e-3 0.262-2e-3h0.378c0.186 0 0.354 0.02 0.505 0.059 0.152 0.039 0.281 0.097 0.389 0.178 0.107 0.079 0.191 0.181 0.252 0.306 0.059 0.125 0.089 0.276 0.089 0.451s-0.033 0.325-0.099 0.448c-0.068 0.124-0.157 0.225-0.272 0.304-0.114 0.079-0.246 0.138-0.395 0.173-0.15 0.036-0.306 0.054-0.469 0.054-0.144 0-0.289-2e-3 -0.437-8e-3 -0.148-4e-3 -0.279-0.01-0.393-0.017zm-1.445 4.029c0.129 0 0.292 1e-3 0.485 2e-3 0.194 2e-3 0.406 4e-3 0.638 6e-3 0.231 1e-3 0.473 2e-3 0.727 2e-3h0.762c0.234 0 0.449-0.024 0.644-0.071 0.196-0.048 0.364-0.119 0.503-0.215 0.14-0.096 0.248-0.215 0.326-0.359 0.076-0.143 0.112-0.31 0.109-0.503 0-0.137-0.023-0.268-0.068-0.395-0.046-0.127-0.115-0.245-0.205-0.354-0.091-0.109-0.207-0.205-0.344-0.286-0.139-0.081-0.303-0.144-0.491-0.186v-0.014c0.224-0.01 0.422-0.046 0.595-0.108 0.173-0.061 0.317-0.145 0.433-0.252 0.115-0.105 0.203-0.23 0.264-0.375 0.059-0.145 0.089-0.303 0.089-0.476 0-0.225-0.046-0.424-0.141-0.598-0.095-0.175-0.221-0.322-0.378-0.445-0.158-0.121-0.34-0.215-0.545-0.277-0.205-0.065-0.42-0.096-0.645-0.096h-2.773v0.298c0.12 3e-3 0.22 0.025 0.298 0.065 0.078 0.041 0.139 0.098 0.185 0.172 0.046 0.072 0.077 0.16 0.093 0.264 0.017 0.101 0.025 0.219 0.025 0.353v2.891c0 0.12 2e-3 0.226 9e-3 0.32 7e-3 0.092 0.018 0.178 0.035 0.256l-0.63-0.029z" fill="#435143"/>
   </g>
   <g transform="translate(85.963 12.891)">
    <path d="m0 0c-0.153-7e-3 -0.312-0.021-0.476-0.042-0.165-0.02-0.326-0.053-0.484-0.098-0.157-0.043-0.307-0.099-0.446-0.168-0.14-0.068-0.262-0.149-0.366-0.244-0.105-0.094-0.186-0.203-0.245-0.327-0.058-0.124-0.085-0.264-0.078-0.42 3e-3 -0.124 0.028-0.231 0.071-0.325 0.045-0.092 0.101-0.169 0.171-0.229s0.151-0.106 0.242-0.136c0.09-0.032 0.188-0.047 0.293-0.047 0.133 0 0.258 0.013 0.376 0.039 0.117 0.026 0.228 0.064 0.334 0.115 0.106 0.05 0.209 0.111 0.308 0.183 0.099 0.071 0.199 0.154 0.3 0.249zm-2.744 1.514c0 0.166 0.049 0.322 0.146 0.468 0.098 0.147 0.235 0.275 0.41 0.384 0.176 0.109 0.385 0.195 0.628 0.256 0.243 0.062 0.507 0.093 0.793 0.093 0.56 0 0.973-0.149 1.239-0.444 0.264-0.296 0.395-0.767 0.392-1.412l-0.01-2.246c0-0.104-1e-3 -0.209-7e-3 -0.315-4e-3 -0.106-0.015-0.227-0.032-0.363l0.708 0.039v-0.42h-1.43c-0.02 0.114-0.034 0.213-0.044 0.298s-0.018 0.173-0.025 0.268c-0.224-0.224-0.469-0.402-0.734-0.532-0.266-0.13-0.547-0.195-0.843-0.195-0.251 0-0.469 0.03-0.657 0.09-0.186 0.06-0.342 0.144-0.466 0.251-0.124 0.108-0.217 0.234-0.278 0.378-0.062 0.146-0.093 0.301-0.093 0.467 0 0.205 0.045 0.393 0.134 0.562 0.09 0.169 0.211 0.319 0.361 0.452 0.153 0.131 0.328 0.245 0.531 0.342 0.202 0.095 0.416 0.174 0.641 0.236 0.227 0.061 0.458 0.106 0.693 0.135 0.237 0.027 0.467 0.039 0.692 0.036v0.625c0 0.173-0.01 0.34-0.029 0.503-0.02 0.163-0.063 0.31-0.129 0.444-0.068 0.134-0.172 0.239-0.313 0.317-0.142 0.079-0.305 0.118-0.491 0.118-0.107 0-0.21-9e-3 -0.308-0.028-0.097-0.017-0.193-0.048-0.288-0.09-0.094-0.042-0.179-0.097-0.257-0.166-0.076-0.068-0.138-0.149-0.187-0.244 0.049-0.055 0.082-0.116 0.1-0.183s0.027-0.131 0.027-0.193c0-0.039-8e-3 -0.084-0.025-0.133-0.016-0.051-0.042-0.098-0.075-0.143-0.035-0.043-0.078-0.079-0.133-0.107-0.052-0.028-0.126-0.041-0.216-0.041-0.13 0-0.234 0.047-0.311 0.144-0.076 0.096-0.114 0.212-0.114 0.349" fill="#435143"/>
   </g>
  </g>
 </g>
</g>
<g id="avantage" class="sprite">
 <title>Avantage</title>
 <defs>
  <clipPath id="clipPath54">
   <path d="M 0,195.88 H 158.837 V 0 H 0 Z"/>
  </clipPath>
 </defs>
 <g transform="matrix(.24505 0 0 -.24505 53.022 29.139)">
  <path d="m0 0v-6.74l-52.983-30.858v8.117z" fill="#cedf00"/>
 </g>
 <g transform="matrix(.24505 0 0 -.24505 53.028 1)">
  <path d="m0 0-88.177-152.43h35.167l54.734 95.425z" fill="#cedf00"/>
 </g>
 <g transform="matrix(.24505 0 0 -.24505 53.028 1)">
  <path d="m0 0-0.26-60.458 35.254-61.214h35.254z" fill="#ebeb6d"/>
 </g>
 <g transform="matrix(.24505 0 0 -.24505 50.503 26.171)">
  <path d="m0 0h10.045v17.397z" fill="#ebeb6d"/>
 </g>
 <g transform="matrix(.24505 0 0 -.24505 52.965 21.908)">
  <path d="m0 0v-17.397h10.045z" fill="#cedf00"/>
 </g>
 <g transform="matrix(.24505 0 0 -.24505 33.401 44.09)">
  <path d="m0 0-7.005-18.096-1.486-0.206v-1.735h5.739v1.735l-1.514 0.261 1.363 3.688h8.023l1.32-3.688-1.513-0.261v-1.735h5.752v1.735l-1.472 0.206-6.881 18.096zm1.102-3.482h0.082l3.11-8.601h-6.358z" fill="#383a31"/>
 </g>
 <g transform="matrix(.24505 0 0 -.24505 31.32 49)">
  <g clip-path="url(#clipPath54)">
   <g transform="translate(27.93 9.3994)">
    <path d="m0 0v-7.28h4.679c1.238 0 2.199 0.304 2.883 0.915 0.683 0.61 1.025 1.474 1.025 2.594 0 1.174-0.287 2.096-0.86 2.766s-1.452 1.005-2.635 1.005zm0 2.119h4.527c0.973 0.027 1.76 0.317 2.361 0.867 0.6 0.55 0.901 1.312 0.901 2.285 0 1.082-0.339 1.891-1.018 2.428s-1.661 0.805-2.945 0.805h-3.826zm3.826 8.519c2.091 0 3.727-0.452 4.905-1.356 1.18-0.904 1.769-2.26 1.769-4.067 0-0.89-0.282-1.686-0.846-2.387-0.565-0.702-1.31-1.223-2.237-1.562 1.202-0.257 2.152-0.849 2.849-1.776s1.046-2.005 1.046-3.233c0-1.835-0.597-3.236-1.789-4.204-1.193-0.969-2.807-1.452-4.844-1.452h-9.633v1.734l2.243 0.385v15.784l-2.243 0.386v1.748h2.243z" fill="#383a31"/>
   </g>
   <g transform="translate(49.806 7.9541)">
    <path d="m0 0h6.358l-3.11 8.601h-0.083zm-6.427-6.22 1.487 0.206 7.004 18.097h2.326l6.881-18.097 1.472-0.206v-1.734h-5.752v1.734l1.513 0.261-1.32 3.688h-8.023l-1.363-3.688 1.514-0.261v-1.734h-5.739z" fill="#383a31"/>
   </g>
   <g transform="translate(66.355 18.289)">
    <path d="m0 0v1.748h7.197v-1.748l-2.243-0.386v-6.922h9.715v6.922l-2.242 0.386v1.748h7.197v-1.748l-2.244-0.386v-15.784l2.244-0.385v-1.734h-7.197v1.734l2.242 0.385v6.73h-9.715v-6.73l2.243-0.385v-1.734h-7.197v1.734l2.243 0.385v15.784z" fill="#383a31"/>
   </g>
   <g transform="translate(106.3 20.037)">
    <path d="m0 0v-4.432h-2.312l-0.206 2.298h-4.445v-15.784l2.243-0.385v-1.734h-7.197v1.734l2.243 0.385v15.784h-4.459l-0.192-2.298h-2.326v4.432z" fill="#383a31"/>
   </g>
   <g transform="translate(113.63 7.9541)">
    <path d="m0 0h6.357l-3.109 8.601h-0.083zm-6.427-6.22 1.487 0.206 7.004 18.097h2.326l6.881-18.097 1.472-0.206v-1.734h-5.753v1.734l1.515 0.261-1.321 3.688h-8.024l-1.362-3.688 1.514-0.261v-1.734h-5.739z" fill="#383a31"/>
   </g>
   <g transform="translate(139.48 8.7246)">
    <path d="m0 0-4.143-6.812 1.087-0.178v-1.735h-6.357v1.735l2.009 0.288 5.34 8.45-3.662 5.835c-0.357 0.541-0.692 0.929-1.003 1.162-0.313 0.234-0.684 0.352-1.116 0.352-0.202 0-0.401-0.014-0.598-0.041-0.198-0.029-0.392-0.061-0.585-0.097l-0.399 1.899c0.293 0.193 0.61 0.341 0.949 0.448 0.339 0.104 0.735 0.158 1.184 0.158 0.762 0 1.434-0.184 2.016-0.551 0.583-0.367 1.195-1.069 1.838-2.105l3.99-6.524h1.954v6.895l-2.243 0.385v1.749h7.183v-1.749l-2.243-0.385v-6.895h2.119l3.992 6.524c0.632 1.036 1.238 1.738 1.816 2.105s1.257 0.551 2.037 0.551c0.44 0 0.83-0.054 1.169-0.158 0.34-0.107 0.656-0.255 0.95-0.448l-0.399-1.899c-0.193 0.036-0.388 0.068-0.585 0.097-0.197 0.027-0.392 0.041-0.585 0.041-0.441 0-0.817-0.118-1.128-0.352-0.313-0.233-0.648-0.621-1.005-1.162l-3.84-5.959 5.258-8.326 2.009-0.288v-1.735h-6.344v1.735l1.073 0.178-4.129 6.812h-2.408v-6.605l2.243-0.385v-1.735h-7.183v1.735l2.243 0.385v6.605z" fill="#383a31"/>
   </g>
  </g>
 </g>
</g>
<g id="backery" class="sprite">
 <title>Backery</title>
 <defs>
  <clipPath id="clipPath2">
   <path d="M 0,34.076 H 89.715 V 0 H 0 Z"/>
  </clipPath>
 </defs>
 <g transform="matrix(1.0923 0 0 -1.0923 1.0002 43.416)">
  <g clip-path="url(#clipPath2)">
   <g transform="translate(12.183 18.632)">
    <path d="m0 0c0.017 0.041 0.033 0.082 0.049 0.123 0.018-8e-3 0.037-0.014 0.057-0.017 2e-3 0 4e-3 1e-3 6e-3 1e-3 -5e-3 -9e-3 -8e-3 -0.019-0.013-0.027-0.02-0.036-0.057-0.063-0.099-0.08m0.178 0.949c0.032-0.147 0.046-0.32 0.03-0.487-0.012 0.033-0.023 0.066-0.034 0.1 0.017 0.158 4e-3 0.319-0.037 0.494-8e-3 0.033-0.023 0.057-0.041 0.076-0.019 0.051-0.044 0.101-0.072 0.151 5e-3 -1e-3 0.011 0 0.016-3e-3 0.091-0.051 0.118-0.241 0.138-0.331m0.281 0.308c-0.15 0.391-0.557 0.485-0.807 0.2-0.012-4e-3 -0.026-0.01-0.038-0.021-0.342-0.297-0.384-0.976-0.268-1.376 0.131-0.453 0.759-0.602 1.038-0.188 0.251 0.373 0.232 0.98 0.075 1.385" fill="#ba7c2b"/>
   </g>
   <g transform="translate(17.7 19.627)">
    <path d="m0 0c-0.063 0.367-0.374 0.728-0.737 0.539-0.02 1e-3 -0.041-7e-3 -0.059-0.031-3e-3 -3e-3 -5e-3 -7e-3 -8e-3 -0.01-0.01-7e-3 -0.021-0.013-0.032-0.022-0.042-0.034-0.054-0.075-0.046-0.114-0.26-0.559-0.355-1.91 0.479-1.526 0.399 0.185 0.469 0.784 0.403 1.164" fill="#ba7c2b"/>
   </g>
   <g transform="translate(15.211 8.8721)">
    <path d="M 0,0 C -0.009,-0.028 0,-0.03 0.001,0.005 0,0.003 0,0.001 0,0" fill="#ba7c2b"/>
   </g>
   <g transform="translate(15.208 9.0068)">
    <path d="m0 0c-0.014 0.038-0.025 0.077-0.038 0.115-0.021 0.071-0.044 0.142-0.06 0.212-0.035 0.152-0.281 0.158-0.311 0-0.023-0.121-0.014-0.25-3e-3 -0.373 0.013-0.135 0.084-0.235 0.225-0.25 0.119-0.013 0.196 0.103 0.19 0.209 2e-3 -0.018 2e-3 -0.032 2e-3 -0.043 0.01 0.039 9e-3 0.094-5e-3 0.13" fill="#ba7c2b"/>
   </g>
   <g transform="translate(16.129 9.1816)">
    <path d="m0 0c-0.09 0.142-0.154 0.295-0.257 0.43-0.042 0.055-0.137 0.026-0.118-0.05 0.039-0.15 0.083-0.318 0.094-0.475-0.02-0.042-0.028-0.087-0.014-0.137 0.029-0.108 0.145-0.173 0.253-0.144 0.189 0.053 0.187 0.292 0.042 0.376" fill="#ba7c2b"/>
   </g>
   <g transform="translate(15.613 6.6406)">
    <path d="m0 0c-7e-3 0.027-0.022 0.056-0.039 0.079-0.026 0.035-0.04 0.082-0.055 0.123-0.037 0.106-0.067 0.216-0.085 0.326-0.021 0.118-0.224 0.121-0.241 0-0.021-0.144-0.026-0.286-9e-3 -0.43 0.015-0.133 0.041-0.324 0.206-0.347 0.145-0.021 0.249 0.077 0.225 0.225 8e-3 -0.046 7e-3 -0.038-2e-3 0.024" fill="#ba7c2b"/>
   </g>
   <g transform="translate(15.708 4.4648)">
    <path d="m0 0c-0.065 0.153-0.143 0.299-0.176 0.463-0.014 0.074-0.139 0.077-0.151 0-0.026-0.162-0.017-0.328-0.014-0.493 3e-3 -0.144 2e-3 -0.316 0.154-0.383 0.083-0.037 0.163-0.021 0.216 0.057 0.087 0.126 0.023 0.234-0.029 0.356" fill="#ba7c2b"/>
   </g>
   <g transform="translate(15.459,1.9463)">
    <path d="m0 0c5e-3 -0.014 8e-3 -0.015 0 0" fill="#ba7c2b"/>
   </g>
   <g transform="translate(15.442 2.1348)">
    <path d="m0 0c-3e-3 -9e-3 -1e-3 -0.011 0 0" fill="#ba7c2b"/>
   </g>
   <g transform="translate(15.76 2.1865)">
    <path d="m0 0c-7e-3 0.018-0.014 0.036-0.02 0.055-0.015 0.052-0.029 0.105-0.044 0.158-0.022 0.078-0.051 0.155-0.062 0.237-0.02 0.129-0.202 0.082-0.213-0.029-8e-3 -0.08-1e-3 -0.164 6e-3 -0.245 4e-3 -0.046 9e-3 -0.093 0.013-0.139 2e-3 -0.022 5e-3 -0.043 4e-3 -0.064 0-0.012-1e-3 -0.02-2e-3 -0.025 2e-3 5e-3 5e-3 0.011 0.01 0.02-0.036-0.058-0.034-0.138 0-0.196 3e-3 -4e-3 5e-3 -8e-3 7e-3 -0.012-3e-3 8e-3 -6e-3 0.019-8e-3 0.035 0.018-0.078 0.079-0.142 0.168-0.142 0.1 0 0.157 0.08 0.185 0.166 0.02 0.06 0 0.135-0.044 0.181" fill="#ba7c2b"/>
   </g>
   <g transform="translate(16.672 6.8408)">
    <path d="m0 0c-0.046 0.045-0.053 0.175-0.064 0.235-0.014 0.077-0.021 0.156-0.036 0.234-0.02 0.107-0.197 0.107-0.217 0-0.015-0.078-0.023-0.155-0.026-0.233-2e-3 -0.053 0-0.106 2e-3 -0.16 3e-3 -0.048 0.027-0.115 0.018-0.161-0.028-0.142 0.088-0.279 0.238-0.238 0.138 0.038 0.19 0.221 0.085 0.323" fill="#ba7c2b"/>
   </g>
   <g transform="translate(17.12 4.6094)">
    <path d="m0 0c-9e-3 0.149-0.028 0.29-0.018 0.441 0.011 0.167-0.212 0.165-0.266 0.037-0.085-0.202-0.29-0.827 0.119-0.832 0.058-1e-3 0.112 0.031 0.141 0.081 0.054 0.09 0.03 0.174 0.024 0.273" fill="#ba7c2b"/>
   </g>
   <g transform="translate(17.391 2.377)">
    <path d="m0 0c-0.024 0.091-0.054 0.181-0.083 0.271-0.015 0.049-0.04 0.095-0.063 0.14-8e-3 0.014-0.018 0.025-0.029 0.033v2e-3c-0.012 0.018-0.054 0.081-0.038 0.019-0.015 0.057-0.102 0.067-0.129 0.018-3e-3 -2e-3 -5e-3 -4e-3 -9e-3 -7e-3 -0.013-0.014-0.028-0.039-0.033-0.057-5e-3 -0.02-0.018-0.058-0.023-0.095-8e-3 -0.069-5e-3 -0.135-1e-3 -0.204 8e-3 -0.13 3e-3 -0.24 0.059-0.359-3e-3 8e-3 -5e-3 0.016-7e-3 0.025 0.031-0.081 0.11-0.136 0.214-0.11 0.142 0.035 0.173 0.205 0.142 0.324" fill="#ba7c2b"/>
   </g>
   <g transform="translate(29.264 13.562)">
    <path d="m0 0c-0.279-1.51-0.664-2.898-1.384-4.264-1.157-2.2-2.544-4.422-4.659-5.806-0.61-0.401-1.258-0.737-1.93-1.015-0.062 0.386-0.183 0.772-0.283 1.136-0.179 0.648-0.407 1.281-0.669 1.901-0.297 0.705-0.663 1.439-1.124 2.088 1.776 0.716 3.173 2.184 4.251 3.727 1.009 1.445 1.876 3.239 2.083 5.039 0.093 0.28 0.152 0.58 0.046 0.716 0 0.036 3e-3 0.071 3e-3 0.106 0.327 0.151 0.581 0.409 0.637 0.76 8e-3 0.05-0.013 0.102-0.047 0.14 0.653-0.028 1.307-0.054 1.962-0.054 0.39 0 0.781 2e-3 1.171 0 3e-3 -0.036 9e-3 -0.072 0.02-0.11 0.384-1.396 0.183-2.963-0.077-4.364m-10.288-5.22c-0.076-0.041-0.151-0.083-0.229-0.122-6e-3 -4e-3 -0.011-8e-3 -0.017-0.012-0.02 0.022-0.038 0.044-0.058 0.066 0.095 4e-3 0.198 0.029 0.304 0.068m-4.656-6.856c0.463 1.308 0.366 2.854 0.269 4.204-0.057 0.79-0.149 1.578-0.237 2.366-0.067 0.593-0.038 1.298-0.203 1.88 0.333 0.081 0.714 0.622 0.871 0.803 0.198 0.228 0.389 0.464 0.572 0.704 0.037 0.05 0.081 0.101 0.125 0.155 0.097 0.03 0.193 0.068 0.289 0.109 8e-3 -3e-3 0.016-7e-3 0.026-8e-3 3.427-0.394 8.001 1.674 8.76 5.337 0.105-5e-3 0.211 1e-3 0.317 0.015-0.122-0.236-0.165-0.534-0.219-0.78-0.047-0.212-0.084-0.429-0.113-0.647-0.083-0.171-0.167-0.34-0.252-0.509-0.454-0.902-0.95-1.783-1.475-2.645-0.568-0.932-1.261-1.685-2.112-2.384-0.543-0.445-1.154-0.83-1.764-1.18-0.209-0.12-0.419-0.236-0.641-0.326-0.168-0.069-4e-3 -0.011-0.079-0.042-0.01-5e-3 -0.018-0.012-0.025-0.018-0.026 0.024-0.051 0.05-0.077 0.073-0.063 0.057-0.153 0.035-0.198-0.018-0.079-0.013-0.146-0.08-0.117-0.187 0.326-1.188 0.949-2.266 1.323-3.435 0.178-0.562 0.302-1.141 0.48-1.704 0.116-0.367 0.242-0.793 0.462-1.134-1.905-0.611-3.967-0.791-5.982-0.629m-4.556 14.4c-2e-3 -3e-3 -4e-3 -6e-3 -6e-3 -0.01-0.028-6e-3 -0.053-0.022-0.073-0.045-0.036 0.027-0.071 0.056-0.105 0.085 0.06-0.015 0.122-0.024 0.184-0.03m5.543 0.515c-0.035-0.017-0.067-0.041-0.088-0.073-8e-3 -1e-3 -0.017-1e-3 -0.024-3e-3 -3e-3 9e-3 -4e-3 0.019-7e-3 0.028 0.028 0.034 0.056 0.066 0.085 0.098 0.01-0.017 0.021-0.034 0.034-0.05m1.168 0.171c-0.033 0.018-0.066 0.035-0.1 0.053 0.016 7e-3 0.033 0.014 0.049 0.022 0.016 3e-3 0.033 5e-3 0.049 8e-3 -4e-3 -0.028-3e-3 -0.055 2e-3 -0.083m-2.502-15.055c-1.197 0.12-2.375 0.36-3.488 0.704-2.092 0.645-4.05 1.744-5.538 3.364-1.775 1.934-2.87 4.514-3.336 7.076-0.406 2.235-0.118 4.642 0.455 6.822 0.301 1.147 0.733 2.243 1.319 3.273 0.421 0.741 0.962 1.317 1.525 1.906 0.271-0.721 0.858-1.284 1.562-1.664 0.41-0.286 0.946-0.463 1.481-0.51 0.731-0.119 1.472-0.031 2.03 0.452-4e-3 -0.251 0.041-0.506 0.066-0.754 0.048-0.495 0.049-0.972-8e-3 -1.466-0.021-0.189 0.252-0.215 0.323-0.064 1.423 0.772 2.971 1.173 4.591 1.221 0.873 0.026 1.746-0.072 2.594-0.277 0.634-0.153 1.191-0.416 1.756-0.697 0.018-0.099 0.043-0.195 0.072-0.291 0.036-1.351-0.306-2.689-0.81-3.952-0.231 0.117-0.456 0.242-0.681 0.354-0.735 0.364-1.518 0.559-2.162 0.282 0.033 0.18 0.026 0.369-0.01 0.552-0.058 0.291-0.236 0.587-0.495 0.739-0.247 0.144-0.67 0.113-0.797-0.18-0.032-0.072 3e-3 -0.183 0.101-0.175 0.178 0.016 0.324 0.113 0.494 0.011 0.172-0.103 0.249-0.325 0.291-0.508 0.044-0.193 0.019-0.402-0.08-0.573-0.096-0.166-0.25-0.187-0.401-0.219-0.652 0.75-1.885 0.391-2.774 0.055-0.616-0.234-1.222-0.519-1.87-0.649-0.744-0.15-0.874 0.27-1.145 0.849-0.049 0.107-0.238 0.084-0.257-0.034-5e-3 -0.027-8e-3 -0.055-0.011-0.082-0.019-0.015-0.036-0.035-0.046-0.066-0.612-1.929 1.008-3.19 2.78-3.357 0.879-0.083 1.812 0.115 2.554 0.599 0.367 0.24 0.817 0.713 1.038 1.221 0.166-0.226 0.375-0.422 0.503-0.523 0.463-0.364 1.068-0.692 1.679-0.847-0.311-0.443-0.681-0.835-1.162-1.151-0.596-0.391-1.281-0.578-1.962-0.755-0.048-0.012-0.089-0.05-0.107-0.096-0.046 0.012-0.092 0.024-0.138 0.037-0.146 0.041-0.203-0.147-0.096-0.228 0.405-0.309 0.828-0.433 1.249-0.427-0.138-0.176-0.278-0.351-0.423-0.522-0.064-0.075-0.548-0.509-0.705-0.787-0.069 0-0.136-0.037-0.153-0.123-0.119-0.574 0.051-1.262 0.115-1.84 0.087-0.784 0.176-1.568 0.242-2.355 0.122-1.474 0.1-2.895-0.165-4.345m-7.912 23.954c0.431 1.775 2.224 2.811 3.963 2.732 0.199-0.106 0.439 0.127 0.331 0.317 0.012 0.021 0.014 0.048-1e-3 0.076-1.048 2.017 1.782 3.332 3.367 3.641 2.494 0.487 3.897-2.265 4.454-4.249 0.051-0.181 0.239-0.204 0.36-0.125 0.045 0.013 0.086 0.041 0.116 0.086 0.117 0.176 0.252 0.331 0.399 0.466 0.051 0.02 0.097 0.057 0.125 0.106 1.434 1.149 3.906 0.541 4.11-1.558 0.086-0.89-0.157-1.862-0.596-2.634-0.189-0.33-0.459-0.648-0.826-0.778-0.488-0.171-0.945 0.194-1.279 0.5-0.038 0.034-0.078 0.053-0.118 0.061-0.075 0.055-0.202 0.063-0.264-0.016-0.053-0.069-0.105-0.142-0.156-0.217-4e-3 -4e-3 -7e-3 -0.011-0.011-0.016-0.209-0.312-0.391-0.665-0.525-1.037-2.602 1.63-6.335 1.048-9.013-0.198-0.013 0.228-0.04 0.454-0.103 0.659-0.011 0.034-0.031 0.06-0.054 0.082 8e-3 0.102-0.139 0.193-0.22 0.1-0.355-0.41-0.852-0.574-1.377-0.59-0.264 0.03-0.529 0.045-0.789 0.074-0.319 0.066-0.627 0.167-0.898 0.283-0.188 0.082-0.369 0.175-0.538 0.278-2e-3 3e-3 -5e-3 5e-3 -8e-3 7e-3 -0.541 0.499-0.614 1.27-0.449 1.95m2.464 3.4c-0.061-0.021-0.121-0.045-0.181-0.072-8e-3 -1e-3 -0.016-3e-3 -0.023-5e-3 -0.02 0.014-0.042 0.024-0.069 0.029-0.075 0.012-0.153 0.02-0.233 0.024 0.168 0.025 0.337 0.033 0.506 0.024m1.552 1.877c0.01-7e-3 0.021-0.013 0.034-0.017-0.148-0.204-0.262-0.426-0.33-0.654 0.053 0.226 0.156 0.451 0.296 0.671m13.466-2.801c-8e-3 -0.012-0.014-0.025-0.02-0.038-0.115 0.246-0.267 0.473-0.446 0.676 0.177-0.197 0.334-0.414 0.466-0.638m-1.713-5.104c0.083-5e-3 0.167 0 0.252 0.014 0.037-1e-3 0.076-1e-3 0.114 1e-3 -0.126-0.026-0.248-0.029-0.366-0.015m-2.189-4.107c-0.019 4e-3 -0.036 5e-3 -0.055 2e-3 0.096 0.505 0.151 1.015 0.157 1.523 0.012 5e-3 0.023 0.011 0.032 0.019-0.053-0.514-0.088-1.03-0.134-1.544m-9.125 3.269c-3e-3 0.115-5e-3 0.236-8e-3 0.358 0.179 0.06 0.36 0.119 0.543 0.177-7e-3 -0.07-9e-3 -0.14-0.012-0.203-3e-3 -0.087 0.013-0.176 0.03-0.261 0.017-0.083 0.091-0.146 0.13-0.216 0.011-0.021 0.045-7e-3 0.038 0.016-0.045 0.128-0.016 0.326-5e-3 0.461 8e-3 0.091 0.036 0.184 0.054 0.277 0.286 0.088 0.575 0.172 0.866 0.251-0.05-0.3-0.026-0.634-0.06-0.923-8e-3 -0.067 0.099-0.078 0.115-0.016 0.046 0.174 0.073 0.349 0.097 0.527 0.02 0.153 0.055 0.313 0.068 0.47 0.298 0.078 0.598 0.149 0.898 0.211-0.037-0.201-0.05-0.42-0.047-0.617 2e-3 -0.101 0.15-0.1 0.155 0 0.012 0.213 0.098 0.439 0.084 0.655 0.324 0.063 0.65 0.115 0.975 0.154-0.042-0.266-0.036-0.552-0.058-0.809-8e-3 -0.083 0.119-0.095 0.141-0.019 0.077 0.265 0.128 0.565 0.151 0.853 0.301 0.03 0.6 0.047 0.899 0.051-0.025-0.114-0.02-0.238-0.032-0.354-0.018-0.196-0.037-0.393-0.063-0.588-9e-3 -0.069 0.088-0.102 0.108-0.03 0.052 0.197 0.113 0.391 0.152 0.591 0.024 0.122 0.056 0.256 0.037 0.381 0.262-2e-3 0.522-0.016 0.781-0.043-8e-3 -8e-3 -0.016-0.018-0.021-0.031-0.046-0.112-0.033-0.232-0.033-0.352 0-0.17-0.012-0.341-0.043-0.509-0.018-0.102 0.128-0.146 0.158-0.044 0.039 0.139 0.065 0.278 0.081 0.42 0.018 0.156 0.047 0.338-0.013 0.485-3e-3 7e-3 -7e-3 0.013-0.011 0.019 0.292-0.034 0.58-0.086 0.866-0.154-0.048-0.267-0.02-0.561 7e-3 -0.819 9e-3 -0.09 0.129-0.09 0.138 0 0.026 0.248 0.068 0.506 0.087 0.76 0.226-0.063 0.451-0.138 0.674-0.226-0.051-0.293-0.069-0.601-0.066-0.894 1e-3 -0.128 0.192-0.127 0.198 0 0.01 0.27 0.076 0.539 0.073 0.809 0.252-0.11 0.5-0.237 0.743-0.384-0.087-0.33-0.135-0.669-0.134-1.002-1.234 0.658-2.831 0.839-4.143 0.839-1.58-1e-3 -3.303-0.343-4.65-1.221 0.054 0.312 0.06 0.627 0.052 0.95m8.714-5.631c-0.01 3e-3 -0.02 7e-3 -0.029 0.01 0.021 0.056 0.042 0.114 0.062 0.17 0.024 0.061 0.048 0.123 0.07 0.185-0.031-0.123-0.066-0.244-0.103-0.365m-0.846-1.861c-0.025-4e-3 -0.05-7e-3 -0.074-0.011 0.045 0.06 0.089 0.119 0.132 0.177 0.01-3e-3 0.021-6e-3 0.032-9e-3 -0.03-0.051-0.059-0.105-0.09-0.157m8.957 9.749c0.223-0.214 0.286-0.496 0.315-0.785-0.281 0.026-0.56 0.031-0.836 0.014-0.114 0.107-0.212 0.248-0.277 0.385-0.036 0.076-0.019 0.127 0.036 0.208-5e-3 -9e-3 0.081 0.075 0.083 0.078 0.02 0.013 0.046 0.029 0.072 0.044 0.063 0.016 0.125 0.043 0.183 0.082 0.101 0.033 0.208 0.058 0.3 0.07 0.041-0.025 0.083-0.057 0.124-0.096m-2.128-1.591c0.014 0.014 0.027 0.027 0.041 0.039 0.057 0.022 0.114 0.043 0.17 0.063 3e-3 -0.015 8e-3 -0.03 0.014-0.045-0.074-0.018-0.149-0.036-0.225-0.057m7.351-4.25c-0.071 0.042-0.136 0.047-0.217 0.057-0.05 5e-3 -0.091-0.01-0.123-0.037-0.044-3e-3 -0.095-0.011-0.111-0.01-0.138 4e-3 -0.276 0.012-0.412 0.014-0.414 8e-3 -0.826 0.041-1.238 0.063-0.164 9e-3 -0.328 0.014-0.493 0.018-0.09 0.026-0.185 0.026-0.275 6e-3 -0.706 8e-3 -1.416-0.015-2.12-0.015-1.82 0-3.78 0.421-5.55-0.151-0.17-0.055-0.151-0.352 0.044-0.328 1.308 0.163 2.617 0.114 3.927 0.06-2e-3 -2e-3 -3e-3 -4e-3 -5e-3 -6e-3 -0.549-0.688-1.503-0.932-2.129-0.179-0.067 0.08-0.178-8e-3 -0.16-0.093 0.083-0.404 0.394-0.644 0.773-0.739-0.659-1.682-1.666-2.964-3.257-3.877-1.465-0.84-3.096-1.149-4.752-1.262 0.761 0.459 1.434 1.185 1.875 1.798 0.077 0.106 0.15 0.216 0.222 0.326 0.746 0.131 1.466 0.501 2.047 0.954 0.539 0.421 1.222 1.364 0.77 2.064-0.016 0.026-0.037 0.045-0.059 0.06-0.013 0.166-0.24 0.225-0.347 0.077-0.388-0.534-0.642-1.05-1.374-0.939 0.393 1.24 0.542 2.566 0.456 3.853 0.017 0.012 0.028 0.03 0.032 0.053 0.076 0.547 0.099 1.107 0.128 1.659 0.026 0.465 0.141 0.882 0.24 1.315 0.797-0.884 1.921-1.075 2.933-0.231 0.739 0.616 1.272 1.485 1.476 2.422 0.401-0.334 0.813-0.659 1.218-0.977 0.057-0.044 0.118-0.082 0.18-0.112-0.166-0.281-0.056-0.627 0.211-0.807-0.022-3e-3 -0.043-5e-3 -0.064-8e-3 -1.585-0.235-3.736-1.362-4.238-3.013-0.085-0.241-0.125-0.499-0.106-0.773 6e-3 -0.225 0.04-0.458 0.112-0.697 0.034-0.116 0.23-0.099 0.218 0.029-0.032 0.351-6e-3 0.679 0.066 0.986 0.418 1.495 2.12 2.268 3.664 2.454 2.075 0.25 4.857-1.007 5.452-3.134 0.054-0.194 0.293-0.173 0.37-0.036 0.119-0.073 0.324-7e-3 0.307 0.162-0.2 2.137-2.08 3.605-4.098 3.98 0.091 0.144 0.159 0.315 0.195 0.431 0.057 0.184 0.046 0.391-0.054 0.557-0.195 0.324-0.641 0.387-0.984 0.363-0.034-2e-3 -0.07-7e-3 -0.105-0.011 0.031 0.204-0.028 0.42-0.184 0.57-0.61 0.587-1.335 1.147-2.124 1.477-0.239 1.383-1.332 2.597-2.595 3.14-1.202 0.516-2.452 0.269-3.373-0.559-0.064 1.458-0.618 2.908-1.761 3.861-1.146 0.956-2.543 1.048-3.878 0.517-1.518-0.604-4.563-2.646-3.967-4.558-1.919 0.713-4.119-0.972-4.516-3.014-1.903-0.8-3.037-3.117-3.707-4.929-0.8-2.166-1.138-4.553-1.102-6.857 0.079-5.028 2.95-10.089 7.423-12.434 3.942-2.067 8.904-2.528 13.162-1.251 2.105 0.631 4.074 1.763 5.567 3.386 0.915 0.996 1.633 2.197 2.307 3.364 0.764 1.323 1.385 2.744 1.694 4.244 0.217 1.061 0.383 2.189 0.482 3.269 0.095 1.038 0.081 2.057-0.252 3.046 0.265-8e-3 0.528-0.02 0.793-0.036 0.333-0.022 1.235-0.209 1.47 0.116 0.075 0.105 0.018 0.261-0.084 0.322" fill="#ba7c2b"/>
   </g>
   <g transform="translate(40.271 12.048)">
    <path d="m0 0 0.907-0.227v-0.151h-3.099v0.151l0.907 0.227v9.904h-1.588c0-0.424-0.086-0.817-0.257-1.18-0.172-0.363-0.389-0.675-0.65-0.937h-0.152c0.01 0.13 0.021 0.267 0.031 0.408 9e-3 0.121 0.02 0.249 0.03 0.386 0.01 0.136 0.016 0.274 0.016 0.416 0 0.191-6e-3 0.36-0.016 0.506s-0.021 0.274-0.03 0.386c-0.01 0.12-0.021 0.226-0.031 0.317h6.578c-0.02-0.091-0.035-0.197-0.045-0.317-0.01-0.112-0.018-0.24-0.023-0.386s-8e-3 -0.315-8e-3 -0.506c0-0.142 3e-3 -0.28 8e-3 -0.416 5e-3 -0.137 0.013-0.265 0.023-0.386 0.01-0.141 0.025-0.278 0.045-0.408h-0.151c-0.263 0.262-0.478 0.574-0.65 0.937-0.171 0.363-0.257 0.756-0.257 1.18h-1.588z" fill="#3c3c3b"/>
   </g>
   <g transform="translate(46.244 13.636)">
    <path d="m0 0v-1.588l0.907-0.226v-0.152h-3.099v0.152l0.907 0.226v9.828l-0.907 0.227v0.151h3.099v-0.151l-0.907-0.227v-7.636l3.1 6.2v1.436l-0.908 0.227v0.151h3.1v-0.151l-0.907-0.227v-9.828l0.907-0.226v-0.152h-3.1v0.152l0.908 0.226v7.787z" fill="#3c3c3b"/>
   </g>
   <g transform="translate(59.021,21.876)">
    <path d="m0 0v-9.903h2.646v9.903l-0.908 0.227v0.151h3.1v-0.151l-0.907-0.227v-9.828l0.907-0.227v-0.151h-10.962v0.151l0.907 0.227v9.828l-0.907 0.227v0.151h3.1v-0.151l-0.908-0.227v-9.903h2.647v9.903l-0.908 0.227v0.151h3.1v-0.151z" fill="#3c3c3b"/>
   </g>
   <g transform="translate(67.413 15.48)">
    <path d="m0 0v-3.432l0.907-0.227v-0.151h-3.099v0.151l0.907 0.227v9.828l-0.907 0.227v0.151h3.099v-0.151l-0.907-0.227v-5.746l1.89 4.082c0.202 0.434 0.385 0.792 0.551 1.074 0.167 0.282 0.324 0.507 0.469 0.673 0.147 0.167 0.29 0.282 0.432 0.348 0.14 0.065 0.287 0.098 0.438 0.098 0.04 0 0.08-5e-3 0.121-0.015 0.04-0.01 0.08-0.02 0.121-0.03 0.04-0.01 0.085-0.021 0.136-0.03l0.227-1.135c-0.051 0.011-0.101 0.02-0.152 0.031-0.049 0.01-0.105 0.02-0.166 0.03-0.06 0.01-0.13 0.015-0.212 0.015-0.453 0-0.808-0.101-1.065-0.302-0.258-0.202-0.457-0.454-0.598-0.757l-0.755-1.663 3.25-6.501 0.908-0.227v-0.151h-3.191v0.151l0.908 0.227-2.541 5.08z" fill="#3c3c3b"/>
   </g>
   <g transform="translate(75.578 13.636)">
    <path d="m0 0v-1.588l0.907-0.226v-0.152h-3.099v0.152l0.907 0.226v9.828l-0.907 0.227v0.151h3.099v-0.151l-0.907-0.227v-7.636l3.1 6.2v1.436l-0.908 0.227v0.151h3.1v-0.151l-0.907-0.227v-9.828l0.907-0.226v-0.152h-3.1v0.152l0.908 0.226v7.787z" fill="#3c3c3b"/>
   </g>
   <g transform="translate(84.423 17.113)">
    <path d="m0 0v-5.065l0.907-0.227v-0.151h-3.099v0.151l0.907 0.227v9.828l-0.907 0.227v0.151h3.099v-0.151l-0.907-0.227v-4.46h3.1v4.46l-0.908 0.227v0.151h3.1v-0.151l-0.907-0.227v-9.828l0.907-0.227v-0.151h-3.1v0.151l0.908 0.227v5.065z" fill="#3c3c3b"/>
   </g>
  </g>
 </g>
</g>
<g id="drop" class="sprite">
 <title>Drop</title>
 <defs>
  <linearGradient id="linearGradient68" x2="1" gradientTransform="matrix(-1.3e-6 -29.274 -29.274 1.3e-6 13.945 47.487)" gradientUnits="userSpaceOnUse">
   <stop stop-color="#8dc63f" offset="0"/>
   <stop stop-color="#00aeef" offset="1"/>
  </linearGradient>
  <linearGradient id="linearGradient48" x2="1" gradientTransform="matrix(-1.3e-6 -29.274 -29.274 1.3e-6 13.945 31.374)" gradientUnits="userSpaceOnUse">
   <stop stop-color="#8dc63f" offset="0"/>
   <stop stop-color="#00aeef" offset="1"/>
  </linearGradient>
  <clipPath id="clipPath78">
   <path d="M 0,33.667 H 65.998 V 0 H 0 Z"/>
  </clipPath>
  <linearGradient id="linearGradient28" x2="1" gradientTransform="matrix(-1.3e-6 -29.273 -29.273 1.3e-6 13.942 31.374)" gradientUnits="userSpaceOnUse">
   <stop stop-color="#8dc63f" offset="0"/>
   <stop stop-color="#00aeef" offset="1"/>
  </linearGradient>
 </defs>
 <g transform="matrix(1.3333 0 0 -1.3333 6.3922 47.639)">
  <path d="m13.945 33.666-9.861-9.86c-2.634-2.634-4.084-6.136-4.084-9.861s1.45-7.226 4.084-9.861c2.634-2.634 6.135-4.084 9.861-4.084 3.725 0 7.227 1.451 9.861 4.084 5.437 5.437 5.437 14.284 0 19.722zm-8.186-27.907c-2.187 2.186-3.391 5.093-3.391 8.186 0 3.092 1.204 5.999 3.391 8.186l8.186 8.186 8.186-8.186c4.514-4.513 4.514-11.858 0-16.372-2.187-2.187-5.094-3.391-8.186-3.391-3.093 0-6 1.204-8.186 3.391m8.186-5.759" fill="url(#linearGradient28)"/>
 </g>
 <g transform="matrix(1.3333 0 0 -1.3333 6.3922 47.639)">
  <path d="m7.51 20.281c-1.719-1.719-2.666-4.004-2.666-6.436 0-2.431 0.947-4.716 2.666-6.434 1.719-1.72 4.004-2.667 6.435-2.667s4.716 0.947 6.435 2.667c1.719 1.718 2.666 4.003 2.666 6.434s-0.947 4.717-2.666 6.436l-6.435 6.435zm1.674-11.197c-1.272 1.271-1.972 2.962-1.972 4.761s0.7 3.489 1.972 4.761l4.761 4.76 4.761-4.76c1.271-1.272 1.972-2.962 1.972-4.761s-0.701-3.49-1.973-4.761c-1.27-1.271-2.962-1.971-4.76-1.971-1.799 0-3.489 0.7-4.761 1.971" fill="url(#linearGradient48)"/>
 </g>
 <g transform="matrix(1.3333 0 0 -1.3333 6.3922 69.124)">
  <path d="m10.646 33.071c-0.893-0.894-1.365-2.033-1.365-3.298 0-1.263 0.472-2.404 1.365-3.297 0.895-0.894 2.035-1.367 3.299-1.367s2.404 0.473 3.298 1.367 1.365 2.034 1.365 3.297c0 1.264-0.471 2.404-1.365 3.298l-3.298 3.298zm1.675-4.92c-0.446 0.445-0.672 0.991-0.672 1.622s0.226 1.177 0.672 1.623l1.624 1.624 1.623-1.624c0.447-0.446 0.673-0.992 0.673-1.623s-0.226-1.177-0.673-1.622c-0.446-0.447-0.992-0.674-1.623-0.674s-1.178 0.227-1.624 0.674" fill="url(#linearGradient68)"/>
 </g>
 <g transform="matrix(1.3333 0 0 -1.3333 6.3922 47.639)">
  <g clip-path="url(#clipPath78)">
   <g transform="translate(34.732 13.677)">
    <path d="m0 0c0.31-0.056 0.759-0.07 1.237-0.07 2.614 0 4.033 1.461 4.033 4.019 0.014 2.235-1.25 3.654-3.836 3.654-0.633 0-1.111-0.057-1.434-0.126zm-1.223 8.376c0.745 0.112 1.631 0.196 2.6 0.196 1.757 0 3.008-0.407 3.837-1.18 0.843-0.773 1.335-1.869 1.335-3.401 0-1.546-0.478-2.81-1.363-3.682-0.886-0.885-2.347-1.363-4.188-1.363-0.872 0-1.602 0.042-2.221 0.113z" fill="#3b3d44"/>
   </g>
   <g transform="translate(44.095 17.738)">
    <path d="m0 0h1.251c1.307 0 2.136 0.717 2.136 1.799 0 1.222-0.886 1.756-2.178 1.77-0.59 0-1.012-0.056-1.209-0.112zm-1.223 4.314c0.619 0.127 1.504 0.197 2.348 0.197 1.306 0 2.149-0.239 2.74-0.773 0.478-0.422 0.745-1.068 0.745-1.799 0-1.251-0.787-2.08-1.785-2.417v-0.042c0.731-0.253 1.166-0.928 1.391-1.911 0.309-1.321 0.534-2.235 0.731-2.6h-1.265c-0.155 0.267-0.365 1.082-0.632 2.262-0.281 1.307-0.787 1.799-1.898 1.841h-1.152v-4.103h-1.223z" fill="#3b3d44"/>
   </g>
   <g transform="translate(51.224 17.387)">
    <path d="m0 0c0-2.023 1.096-3.836 3.021-3.836 1.94 0 3.036 1.784 3.036 3.935 0 1.882-0.984 3.85-3.022 3.85-2.023 0-3.035-1.869-3.035-3.949m7.35 0.155c0-3.26-1.982-4.989-4.399-4.989-2.502 0-4.258 1.939-4.258 4.806 0 3.007 1.869 4.975 4.399 4.975 2.586 0 4.258-1.982 4.258-4.792" fill="#3b3d44"/>
   </g>
   <g transform="translate(61.389 17.499)">
    <path d="m0 0c0.267-0.07 0.604-0.098 1.012-0.098 1.475 0 2.375 0.717 2.375 2.023 0 1.251-0.886 1.856-2.235 1.856-0.534 0-0.941-0.043-1.152-0.099zm-1.223 4.567c0.59 0.099 1.364 0.183 2.347 0.183 1.209 0 2.094-0.281 2.656-0.787 0.52-0.449 0.829-1.138 0.829-1.981 0-0.857-0.253-1.532-0.731-2.024-0.646-0.688-1.7-1.04-2.895-1.04-0.365 0-0.703 0.014-0.983 0.084v-3.794h-1.223z" fill="#3b3d44"/>
   </g>
  </g>
 </g>
</g>
<g id="furniture" class="sprite">
 <title>Furniture</title>
 <defs>
  <clipPath id="clipPath3">
   <path d="m0 62h136.12v-62h-136.12z"/>
  </clipPath>
 </defs>
 <g transform="matrix(.71994 0 0 -.71994 1 47.513)">
  <g clip-path="url(#clipPath3)">
   <g transform="translate(7.125 38.363)">
    <path d="m0 0c4.921 7.158 13.417 13.08 24.032 17.202 22.108 8.58 51.7 8.58 73.808 0 10.617-4.122 19.112-10.044 24.034-17.202-0.129-0.454-0.801 0.15-1.731 1.077-8.202 8.164-22.04 13.76-33.097 16.555-14.619 3.695-37.6 3.695-52.219 0-11.056-2.795-24.895-8.391-33.097-16.555-0.931-0.927-1.602-1.531-1.73-1.077" fill="#282323"/>
   </g>
   <g transform="translate(18.931 5.9873)">
    <path d="m0 0c0 0.306-0.248 0.554-0.553 0.554s-0.553-0.248-0.553-0.554v-5.434c0-0.305 0.248-0.553 0.553-0.553s0.553 0.248 0.553 0.553z" fill="#282323"/>
   </g>
   <g transform="translate(15.773 6.5918)">
    <path d="m0 0c-0.305-7e-3 -0.545-0.26-0.539-0.563 7e-3 -0.306 0.261-0.546 0.565-0.54 0.042 1e-3 0.066-0.237 0.094-0.529 0.1-1.045 0.23-2.372 2.45-2.514 0.305-0.02 0.567 0.211 0.586 0.516 0.018 0.305-0.213 0.567-0.517 0.586-1.282 0.082-1.361 0.885-1.422 1.517-0.082 0.854-0.151 1.552-1.217 1.527" fill="#282323"/>
   </g>
   <g transform="translate(20.957,5.4893)">
    <path d="m0 0c0.304-7e-3 0.557 0.233 0.564 0.539 7e-3 0.304-0.234 0.557-0.538 0.564-1.067 0.025-1.136-0.673-1.218-1.528-0.061-0.632-0.14-1.434-1.421-1.516-0.305-0.02-0.536-0.282-0.517-0.586 0.019-0.305 0.281-0.536 0.585-0.517 2.221 0.143 2.351 1.47 2.451 2.515 0.028 0.292 0.052 0.53 0.094 0.529" fill="#282323"/>
   </g>
   <g transform="translate(117.21 5.9873)">
    <path d="m0 0c0 0.306-0.248 0.554-0.554 0.554-0.304 0-0.553-0.248-0.553-0.554v-5.434c0-0.305 0.249-0.553 0.553-0.553 0.306 0 0.554 0.248 0.554 0.553z" fill="#282323"/>
   </g>
   <g transform="translate(114.05 6.5918)">
    <path d="m0 0c-0.305-7e-3 -0.546-0.26-0.539-0.563 7e-3 -0.306 0.261-0.546 0.564-0.54 0.042 1e-3 0.066-0.237 0.094-0.529 0.101-1.045 0.231-2.372 2.45-2.514 0.305-0.02 0.568 0.211 0.586 0.516 0.02 0.305-0.213 0.567-0.516 0.586-1.282 0.082-1.362 0.885-1.422 1.517-0.082 0.854-0.151 1.552-1.217 1.527" fill="#282323"/>
   </g>
   <g transform="translate(119.24 5.4893)">
    <path d="m0 0c0.304-7e-3 0.558 0.233 0.563 0.539 7e-3 0.304-0.234 0.557-0.538 0.564-1.066 0.025-1.134-0.673-1.217-1.528-0.06-0.632-0.14-1.434-1.422-1.516-0.304-0.02-0.535-0.282-0.517-0.586 0.02-0.305 0.282-0.536 0.586-0.517 2.221 0.143 2.351 1.47 2.451 2.515 0.029 0.292 0.052 0.53 0.094 0.529" fill="#282323"/>
   </g>
   <g transform="translate(5.9404 22.696)">
    <path d="m0 0c1.691-0.449 3.14-1.066 4.343-1.792 1.819-1.096 3.1-2.451 3.845-3.876 0.778-1.489 0.973-3.051 0.591-4.483-0.135-0.51-0.343-1.001-0.622-1.465l-0.066-0.093c-0.417-0.536-0.569-1.016-0.536-1.408 0.015-0.178 0.069-0.341 0.152-0.487 0.089-0.156 0.212-0.292 0.355-0.404 0.339-0.266 0.801-0.406 1.268-0.367h0.076l105.46 0.028h0.077c0.468-0.039 0.926 0.099 1.263 0.36 0.138 0.108 0.257 0.242 0.343 0.392 0.08 0.14 0.133 0.3 0.146 0.472 0.033 0.393-0.12 0.873-0.542 1.414l-0.064 0.093c-0.279 0.464-0.487 0.955-0.622 1.465-0.383 1.432-0.189 2.994 0.591 4.483 0.744 1.425 2.026 2.78 3.845 3.876 1.202 0.726 2.651 1.341 4.343 1.792l0.468-1.779c-1.508-0.402-2.795-0.949-3.86-1.59-1.523-0.918-2.577-2.018-3.168-3.151-0.559-1.069-0.704-2.17-0.44-3.164 0.086-0.327 0.22-0.645 0.398-0.948 0.707-0.928 0.957-1.836 0.889-2.642-0.038-0.453-0.175-0.868-0.384-1.235-0.206-0.357-0.485-0.67-0.813-0.927-0.693-0.542-1.618-0.826-2.545-0.748l-105.31-0.028c-0.926-0.077-1.854 0.211-2.55 0.755-0.333 0.26-0.616 0.576-0.823 0.938-0.213 0.373-0.352 0.793-0.39 1.249-0.068 0.808 0.18 1.713 0.883 2.636 0.178 0.304 0.312 0.623 0.399 0.95 0.264 0.994 0.119 2.095-0.44 3.164-0.592 1.133-1.646 2.233-3.168 3.151-1.065 0.641-2.352 1.188-3.86 1.59z" fill="#282323"/>
   </g>
   <g transform="translate(6.668 22.367)">
    <path d="m0 0c-0.561 0.349-1.146 0.401-1.613 0.575-1.969 0.737-2.829 2.706-2.827 5.04 1e-3 3.002 1.46 5.459 4.711 5.459 0.983-6e-3 1.545-0.189 1.885-0.323 0.506-0.2 0.959 0.048 1.128 0.488 0.289 0.76-0.097 1.125-0.76 1.317-0.748 0.217-1.677 0.289-2.327 0.29-4.377 3e-3 -6.851-3.117-6.865-7.34 9e-3 -3.324 1.477-5.81 4.2-6.685 0.778-0.251 1.787-0.297 3.2-0.88-0.292 0.551-0.922 1.456-0.732 2.059" fill="#282323"/>
   </g>
   <g transform="translate(129.46 22.367)">
    <path d="m0 0c0.562 0.349 1.146 0.401 1.613 0.575 1.969 0.737 2.829 2.706 2.826 5.04-1e-3 3.002-1.46 5.459-4.709 5.459-0.667-4e-3 -1.382-0.089-2.017-0.33-1.462-0.556-4.255-2.509-5.025-4.107-0.265 0.363-0.577 0.977 0.037 1.799 0.889 1.191 2.665 2.8 4.729 3.8 0.839 0.407 2.124 0.61 2.349 0.61 4.378 1e-3 6.851-3.117 6.865-7.34-0.01-3.324-1.477-5.81-4.199-6.685-0.779-0.251-1.788-0.297-3.202-0.88 0.294 0.551 0.922 1.456 0.733 2.059" fill="#282323"/>
   </g>
   <g transform="translate(27.659 38.376)">
    <path d="m0 0h12.262v-14.697h-3.234v11.779h-5.795v-11.779h-3.233z" fill="#282323"/>
   </g>
   <g transform="translate(54.264 38.376)">
    <path d="m0 0h3.506l-5.648-11.359c-1.28-2.561-2.75-3.569-4.808-3.569-1.259 0-2.246 0.336-3.17 0.861l1.26 2.372c0.588-0.357 1.175-0.483 1.742-0.483 0.588 0 1.26 0.274 1.848 1.176l-5.879 11.002h3.611l3.99-7.769z" fill="#282323"/>
   </g>
   <g transform="translate(69.763 27.564)">
    <path d="m0 0c2.372 0 3.947 1.385 3.947 3.59 0 2.162-1.575 3.569-3.947 3.569zm-3.234 7.159c-2.372 0-3.968-1.407-3.968-3.569 0-2.205 1.596-3.59 3.968-3.59zm0-11.632v1.596c-4.536 0-7.286 2.814-7.286 6.529 0 3.675 2.772 6.384 7.286 6.384v1.343h3.234v-1.343c4.492 0 7.285-2.709 7.285-6.404s-2.75-6.509-7.285-6.509v-1.596z" fill="#282323"/>
   </g>
   <g transform="translate(92.336 31.027)">
    <path d="m0 0c0 2.52-1.848 4.619-4.451 4.619-2.604 0-4.409-2.057-4.409-4.619 0-2.52 1.847-4.619 4.451-4.619 2.603 0 4.409 2.057 4.409 4.619m-12.241 0c0 4.178 3.297 7.601 7.832 7.601s7.789-3.381 7.789-7.601c0-4.179-3.296-7.601-7.831-7.601s-7.79 3.381-7.79 7.601" fill="#85c127"/>
   </g>
   <g transform="translate(99.646 38.376)">
    <path d="m0 0h3.233v-6.425l5.963 6.425h3.906l-5.984-6.236 6.256-8.461h-3.884l-4.555 6.257-1.702-1.764v-4.493h-3.233z" fill="#85c127"/>
   </g>
  </g>
 </g>
</g>
<g id="winter" class="sprite">
 <title>Winter</title>
 <defs>
  <clipPath id="clipPath5">
   <path d="M 0,19.761 H 73.616 V 0 H 0 Z"/>
  </clipPath>
 </defs>
 <g transform="matrix(1.3333 0 0 -1.3333 .72736 38.76)">
  <g clip-path="url(#clipPath5)">
   <g transform="translate(26.204 14.818)">
    <path d="m0 0h-2.295v-2.259h2.295c0.765 0 1.154 0.377 1.154 1.117 0 0.766-0.389 1.142-1.154 1.142m-0.219 1.385c0.741 0 1.118 0.352 1.118 1.069 0 0.716-0.377 1.068-1.118 1.068h-2.076v-2.137zm0.182 3.558c1.567 0 2.491-0.813 2.491-2.271 0-0.862-0.304-1.469-0.924-1.834v-0.048c0.826-0.292 1.24-0.997 1.24-2.102 0-1.494-1.094-2.368-2.733-2.368h-3.438c-0.304 0-0.425 0.109-0.425 0.413v7.798c0 0.303 0.121 0.412 0.425 0.412z" fill="#40434c"/>
   </g>
   <g transform="translate(37.893 19.761)">
    <path d="m0 0c0.303 0 0.413-0.109 0.413-0.413v-7.797c0-0.304-0.11-0.414-0.413-0.414h-0.692c-0.304 0-0.413 0.11-0.413 0.414v3.558c0 0.62 0.024 1.093 0.06 1.421 0.037 0.328 0.109 0.777 0.231 1.36h-0.049c-0.279-0.704-0.68-1.469-1.214-2.307l-2.781-4.239c-0.086-0.134-0.219-0.207-0.413-0.207h-0.705c-0.304 0-0.425 0.11-0.425 0.414v7.797c0 0.304 0.121 0.413 0.425 0.413h0.692c0.304 0 0.413-0.109 0.413-0.413v-3.522c0-0.62-0.012-1.093-0.048-1.434-0.037-0.339-0.122-0.801-0.243-1.384h0.048c0.304 0.765 0.717 1.567 1.263 2.405l2.733 4.154c0.085 0.133 0.219 0.194 0.401 0.194z" fill="#40434c"/>
   </g>
   <g transform="translate(47.443 19.761)">
    <path d="m0 0c0.304 0 0.425-0.109 0.425-0.413v-7.797c0-0.304-0.121-0.414-0.425-0.414h-0.692c-0.304 0-0.413 0.11-0.413 0.414v3.242h-3.595v-3.242c0-0.304-0.11-0.414-0.413-0.414h-0.693c-0.303 0-0.425 0.11-0.425 0.414v7.797c0 0.304 0.122 0.413 0.425 0.413h0.693c0.303 0 0.413-0.109 0.413-0.413v-3.133h3.595v3.133c0 0.304 0.109 0.413 0.413 0.413z" fill="#40434c"/>
   </g>
   <g transform="translate(56.216 19.761)">
    <path d="m0 0c0.304 0 0.413-0.109 0.413-0.413v-0.595c0-0.304-0.109-0.413-0.413-0.413h-2.089v-6.789c0-0.304-0.109-0.414-0.413-0.414h-0.705c-0.303 0-0.413 0.11-0.413 0.414v6.789h-2.088c-0.304 0-0.414 0.109-0.414 0.413v0.595c0 0.304 0.11 0.413 0.414 0.413z" fill="#40434c"/>
   </g>
   <g transform="translate(64.102 19.761)">
    <path d="m0 0c0.304 0 0.425-0.109 0.425-0.413v-0.595c0-0.304-0.121-0.413-0.425-0.413h-3.716v-2.125h3.145c0.304 0 0.413-0.11 0.413-0.413v-0.596c0-0.303-0.109-0.413-0.413-0.413h-3.145v-2.235h3.85c0.303 0 0.413-0.109 0.413-0.412v-0.595c0-0.304-0.11-0.414-0.413-0.414h-4.956c-0.303 0-0.425 0.11-0.425 0.414v7.797c0 0.304 0.122 0.413 0.425 0.413z" fill="#40434c"/>
   </g>
   <g transform="translate(70.604 15.559)">
    <path d="m0 0c0.887 0 1.409 0.51 1.409 1.385 0 0.874-0.522 1.397-1.409 1.397h-1.968v-2.782zm0.146 4.203c1.761 0 2.867-1.069 2.867-2.818s-1.106-2.806-2.867-2.806h-2.114v-2.587c0-0.304-0.109-0.413-0.413-0.413h-0.692c-0.303 0-0.425 0.109-0.425 0.413v7.798c0 0.303 0.122 0.413 0.425 0.413z" fill="#40434c"/>
   </g>
   <g transform="translate(25.641 2.001)">
    <path d="m0 0c0.066-0.125 0.042-0.175-0.091-0.175h-0.249c-0.166 0-0.2 0.025-0.258 0.133l-0.631 1.295c-0.166 0.356-0.398 0.507-0.805 0.507h-0.954v-1.778c0-0.124-0.033-0.157-0.158-0.157h-0.249c-0.125 0-0.158 0.033-0.158 0.157v3.96c0 0.1 0.05 0.15 0.158 0.15h0.249c0.108 0 0.158-0.05 0.158-0.15v-1.669h0.963l1.328 1.703c0.074 0.108 0.124 0.116 0.299 0.116h0.232c0.149 0 0.183-0.059 0.1-0.174l-1.403-1.752c0.299-0.074 0.539-0.299 0.722-0.672z" fill="#40434c"/>
   </g>
   <g transform="translate(29.867 3.7432)">
    <path d="m0 0c-0.498 0.051-0.88 0.075-1.146 0.075-0.871 0-1.195-0.241-1.195-0.813 0-0.565 0.258-0.83 1.179-0.83 0.423 0 0.755 0.041 1.004 0.132 0.133 0.059 0.158 0.083 0.158 0.241zm-1.104 2.475c1.229 0 1.66-0.64 1.66-1.645v-2.174c0-0.291-0.066-0.374-0.299-0.473-0.332-0.142-0.788-0.216-1.378-0.216-0.689 0-1.153 0.099-1.411 0.315-0.257 0.208-0.382 0.531-0.382 0.972 0 0.937 0.507 1.286 1.827 1.286 0.224 0 0.589-0.024 1.087-0.083v0.382c0 0.722-0.282 1.138-1.121 1.138-0.547 0-0.938-0.2-1.162-0.607-0.058-0.083-0.133-0.108-0.207-0.066l-0.199 0.083c-0.108 0.041-0.133 0.107-0.083 0.216 0.307 0.581 0.863 0.872 1.668 0.872" fill="#40434c"/>
   </g>
   <g transform="translate(35.653 6.0928)">
    <path d="m0 0c0.1 0 0.149-0.05 0.149-0.149v-3.968c0-0.1-0.049-0.15-0.149-0.15h-0.266c-0.099 0-0.149 0.05-0.149 0.15v1.785h-2.399v-1.785c0-0.1-0.05-0.15-0.149-0.15h-0.266c-0.1 0-0.149 0.05-0.149 0.15v3.968c0 0.099 0.049 0.149 0.149 0.149h0.266c0.099 0 0.149-0.05 0.149-0.149v-1.669h2.399v1.669c0 0.099 0.05 0.149 0.149 0.149z" fill="#40434c"/>
   </g>
   <g transform="translate(41.623 2.3408)">
    <path d="m0 0c0.125 0 0.149-0.041 0.149-0.149v-1.371c0-0.124-0.024-0.148-0.149-0.148h-0.241c-0.099 0-0.149 0.049-0.149 0.148v1.005h-3.354c-0.099 0-0.149 0.05-0.149 0.15v3.968c0 0.099 0.05 0.149 0.149 0.149h0.266c0.1 0 0.149-0.05 0.149-0.149v-3.603h2.316v3.603c0 0.108 0.025 0.149 0.15 0.149h0.257c0.1 0 0.149-0.05 0.149-0.149v-3.603z" fill="#40434c"/>
   </g>
   <g transform="translate(46.272 4.5322)">
    <path d="m0 0c0 0.756-0.448 1.203-1.287 1.203-0.83 0-1.278-0.447-1.278-1.203v-0.291h2.565zm-3.121-0.066c0 1.103 0.639 1.752 1.834 1.752 1.204 0 1.843-0.682 1.843-1.719v-0.457c0-0.157-0.083-0.233-0.249-0.233h-2.872v-0.48c0-0.723 0.44-1.138 1.245-1.138 0.614 0 1.046 0.233 1.303 0.689 0.067 0.091 0.15 0.108 0.241 0.058l0.174-0.092c0.108-0.057 0.125-0.132 0.059-0.24-0.332-0.597-0.922-0.896-1.777-0.896-1.203 0-1.801 0.638-1.801 1.676z" fill="#40434c"/>
   </g>
   <g transform="translate(51.785 6.0928)">
    <path d="m0 0c0.1 0 0.149-0.05 0.149-0.149v-3.968c0-0.1-0.049-0.15-0.149-0.15h-0.266c-0.099 0-0.149 0.05-0.149 0.15v3.594h-1.876v-1.021c0-1.02-0.116-1.727-0.349-2.125-0.24-0.398-0.44-0.548-0.78-0.706-0.083-0.033-0.141-8e-3 -0.183 0.075l-0.124 0.257c-0.042 0.075-0.017 0.125 0.058 0.166 0.208 0.1 0.282 0.133 0.457 0.357 0.091 0.108 0.157 0.241 0.207 0.399 0.091 0.299 0.174 0.871 0.174 1.61v1.362c0 0.108 0.042 0.149 0.15 0.149z" fill="#40434c"/>
   </g>
   <g transform="translate(55.09 5.5947)">
    <path d="m0 0c-0.54 0-0.88-0.34-0.88-0.871 0-0.524 0.34-0.856 0.88-0.856h1.444v1.727zm1.851 0.498c0.1 0 0.149-0.05 0.149-0.149v-3.968c0-0.108-0.041-0.15-0.149-0.15h-0.257c-0.125 0-0.15 0.042-0.15 0.15v1.387h-1.353l-0.921-1.404c-0.066-0.124-0.108-0.133-0.274-0.133h-0.241c-0.174 0-0.199 0.058-0.108 0.183l0.972 1.428c-0.606 0.125-0.98 0.597-0.98 1.287 0 0.854 0.531 1.369 1.395 1.369z" fill="#40434c"/>
   </g>
   <g transform="translate(61.939,4.54)">
    <path d="m0 0c0 0.772-0.415 1.162-1.237 1.162-0.373 0-0.705-0.049-0.996-0.157-0.141-0.058-0.158-0.091-0.158-0.224v-2.814c0.407-0.192 0.806-0.291 1.204-0.291 0.789 0 1.187 0.39 1.187 1.162zm-1.17 1.678c1.153 0 1.726-0.557 1.726-1.66v-1.196c0-1.104-0.564-1.652-1.702-1.652-0.356 0-0.771 0.092-1.245 0.282v-1.843c0-0.099-0.049-0.149-0.149-0.149h-0.266c-0.099 0-0.149 0.05-0.149 0.149v5.363c0 0.265 0.066 0.356 0.332 0.465 0.407 0.157 0.888 0.241 1.453 0.241" fill="#40434c"/>
   </g>
   <g transform="translate(64.704 6.0928)">
    <path d="m0 0c0.1 0 0.149-0.05 0.149-0.149v-2.4c0-0.306-0.033-0.631-0.091-0.971h0.017c0.124 0.233 0.265 0.457 0.431 0.681l2.092 2.765c0.033 0.049 0.084 0.074 0.141 0.074h0.266c0.099 0 0.149-0.05 0.149-0.149v-3.968c0-0.1-0.05-0.15-0.149-0.15h-0.266c-0.099 0-0.149 0.05-0.149 0.15v2.349c0 0.266 0.033 0.606 0.099 1.012h-0.025c-0.074-0.148-0.232-0.381-0.456-0.705l-2.059-2.723c-0.033-0.058-0.083-0.083-0.149-0.083h-0.266c-0.099 0-0.149 0.05-0.149 0.15v3.968c0 0.099 0.05 0.149 0.149 0.149z" fill="#40434c"/>
   </g>
   <g transform="translate(71.071 5.5947)">
    <path d="m0 0c-0.539 0-0.879-0.34-0.879-0.871 0-0.524 0.34-0.856 0.879-0.856h1.445v1.727zm1.852 0.498c0.099 0 0.149-0.05 0.149-0.149v-3.968c0-0.108-0.042-0.15-0.149-0.15h-0.258c-0.124 0-0.149 0.042-0.149 0.15v1.387h-1.353l-0.922-1.404c-0.066-0.124-0.107-0.133-0.274-0.133h-0.24c-0.175 0-0.199 0.058-0.108 0.183l0.972 1.428c-0.607 0.125-0.981 0.597-0.981 1.287 0 0.854 0.531 1.369 1.395 1.369z" fill="#40434c"/>
   </g>
   <g transform="translate(8.7129,1.9209)">
    <path d="m0 0v17.121c0 0.358-0.291 0.649-0.649 0.649-0.359 0-0.65-0.291-0.65-0.649v-17.121c0-0.359 0.291-0.65 0.65-0.65 0.358 0 0.649 0.291 0.649 0.65" fill="#70a8e2"/>
   </g>
   <g transform="translate(10.821 17.972)">
    <path d="m0 0c-0.254 0.253-0.665 0.253-0.919 0l-1.838-1.839-1.839 1.839c-0.254 0.253-0.665 0.253-0.919 0-0.254-0.254-0.254-0.665 0-0.918l2.273-2.274c0.133-0.133 0.31-0.195 0.485-0.189 0.174-6e-3 0.351 0.056 0.484 0.189l2.273 2.274c0.253 0.253 0.253 0.664 0 0.918" fill="#70a8e2"/>
   </g>
   <g transform="translate(5.3057,2.9893)">
    <path d="m0 0c0.254-0.253 0.665-0.253 0.919 0l1.839 1.839 1.838-1.839c0.254-0.253 0.665-0.253 0.919 0 0.254 0.254 0.254 0.665 0 0.919l-2.273 2.273c-0.133 0.133-0.31 0.196-0.484 0.189-0.175 7e-3 -0.352-0.056-0.485-0.189l-2.273-2.273c-0.253-0.254-0.253-0.665 0-0.919" fill="#70a8e2"/>
   </g>
   <g transform="translate(15.802 6.7627)">
    <path d="m0 0-14.828 8.561c-0.31 0.179-0.707 0.073-0.887-0.238-0.179-0.31-0.073-0.708 0.238-0.887l14.828-8.56c0.31-0.18 0.707-0.073 0.887 0.237 0.179 0.311 0.073 0.708-0.238 0.887" fill="#70a8e2"/>
   </g>
   <g transform="translate(2.9541 16.614)">
    <path d="m0 0c-0.346-0.092-0.552-0.449-0.459-0.795l0.673-2.512-2.512-0.673c-0.347-0.093-0.552-0.449-0.459-0.796 0.092-0.347 0.449-0.552 0.795-0.459l3.105 0.832c0.182 0.049 0.325 0.171 0.406 0.325 0.093 0.147 0.127 0.332 0.078 0.514l-0.831 3.105c-0.093 0.347-0.449 0.552-0.796 0.459" fill="#70a8e2"/>
   </g>
   <g transform="translate(13.172 4.3467)">
    <path d="m0 0c0.346 0.094 0.552 0.449 0.459 0.796l-0.673 2.512 2.512 0.673c0.347 0.093 0.552 0.449 0.459 0.796-0.092 0.346-0.448 0.552-0.795 0.459l-3.105-0.832c-0.183-0.049-0.325-0.17-0.406-0.325-0.093-0.148-0.128-0.332-0.079-0.514l0.832-3.105c0.093-0.347 0.449-0.552 0.796-0.46" fill="#70a8e2"/>
   </g>
   <g transform="translate(15.152 15.324)">
    <path d="m0 0-14.828-8.561c-0.31-0.179-0.417-0.576-0.237-0.887 0.179-0.31 0.576-0.417 0.887-0.237l14.827 8.56c0.311 0.179 0.417 0.577 0.238 0.887-0.179 0.311-0.577 0.417-0.887 0.238" fill="#70a8e2"/>
   </g>
   <g transform="translate(.1968 9.1235)">
    <path d="m0 0c-0.093-0.347 0.113-0.703 0.459-0.796l2.512-0.673-0.673-2.512c-0.092-0.347 0.113-0.702 0.459-0.796 0.347-0.092 0.703 0.113 0.796 0.46l0.832 3.105c0.049 0.182 0.014 0.366-0.079 0.514-0.081 0.155-0.223 0.276-0.406 0.325l-3.105 0.832c-0.346 0.093-0.702-0.113-0.795-0.459" fill="#70a8e2"/>
   </g>
   <g transform="translate(15.929 11.838)">
    <path d="m0 0c0.093 0.347-0.112 0.703-0.459 0.796l-2.512 0.673 0.673 2.511c0.093 0.347-0.113 0.704-0.459 0.796-0.347 0.093-0.703-0.112-0.796-0.459l-0.832-3.105c-0.049-0.182-0.014-0.367 0.079-0.514 0.081-0.155 0.223-0.277 0.406-0.325l3.105-0.832c0.347-0.093 0.703 0.112 0.795 0.459" fill="#70a8e2"/>
   </g>
  </g>
 </g>
</g>
</svg>
