<?xml version="1.0" encoding="UTF-8"?>
<svg width="33" height="36" version="1.1" viewBox="0 0 33 36" xmlns="http://www.w3.org/2000/svg">
	<defs>
  <style>
    .sprite {
      display: none;
    }
    .sprite:target {
      display: inline;
    }
  </style>
</defs>
<g class="sprite" id="flower">
 <title>Flower</title>
 <g transform="matrix(.077417 0 0 -.077377 1.6359 35.286)" stroke-width="10.003">
  <g transform="scale(.1)" stroke-width="10.003">
   <path fill="#fff" d="m0 1920c0-1060.3 859.73-1920 1920-1920 0 1060.3-859.73 1920-1920 1920zm1920 1600c294.4 0 533.33-238.93 533.33-533.33s-238.93-533.34-533.33-533.34-533.33 238.94-533.33 533.34 238.93 533.33 533.33 533.33zm-1364.3-1013.3c0-294.4 238.93-533.34 533.34-533.34 112 0 216.53 35.2 301.86 93.87l-4.26-40.53c0-294.4 238.93-533.34 533.33-533.34s533.33 238.94 533.33 533.34l-4.26 40.53c86.4-59.73 189.86-93.87 301.86-93.87 294.4 0 533.34 238.94 533.34 533.34 0 212.26-124.8 394.66-305.07 480 179.2 85.33 305.07 267.73 305.07 480 0 294.4-238.94 533.33-533.34 533.33-112 0-216.53-35.2-301.86-93.87l4.26 40.54c0 294.4-238.93 533.33-533.33 533.33s-533.33-238.93-533.33-533.33l4.26-40.54c-86.4 59.74-189.86 93.87-301.86 93.87-294.4 0-533.34-238.93-533.34-533.33 0-212.27 124.8-394.67 305.07-480-180.27-85.34-305.07-267.74-305.07-480zm1364.3-2506.7c1060.3 0 1920 859.73 1920 1920-1060.3 0-1920-859.73-1920-1920" stroke-width="10.003"/>
  </g>
 </g>
</g>
<g class="sprite" id="star">
 <title>Star</title>
 <defs>
  <clipPath id="clipPath21">
   <path d="m0 2h160v160h-160z"/>
  </clipPath>
 </defs>
 <g transform="matrix(1.5 0 0 1.5002 -.76604 4.4161)" stroke-width=".66662">
  <g transform="matrix(1.3333 0 0 -1.3333 .83333 20.507)" stroke-width=".66662">
   <g transform="scale(.1)" stroke-width=".66662">
    <g clip-path="url(#clipPath21)" stroke-width=".66662">
     <path fill="#fff" d="M 80,39.809 129.449,10.012 116.371,66.219 160,104.031 102.461,108.988 80,162 57.539,108.988 0,104.031 43.629,66.219 30.551,10.012 Z" stroke-width=".66662"/>
    </g>
   </g>
  </g>
 </g>
</g>
<g class="sprite" id="palette">
 <title>Palette</title>
 <defs>
  <clipPath id="clipPath20">
   <path d="m0 4h150v150h-150z"/>
  </clipPath>
 </defs>
 <g transform="matrix(.22225 0 0 -.22225 .52074 36.288)" stroke-width=".5999">
  <g clip-path="url(#clipPath20)" stroke-width=".5999">
   <path fill="#fff" d="m71.988 154c-40 0-71.988-31.988-71.988-71.988s31.988-71.992 71.988-71.992c6.4101 0 11.992 5.5821 11.992 11.992 0 3.1992-0.7813 5.5781-3.1992 8.0078-1.5625 2.3789-3.1602 4.7618-3.1602 7.961 0 6.4101 5.5781 12.039 11.988 12.039h14.371c22.43 0 40 17.57 40 40 0 35.192-31.992 63.98-71.992 63.98zm-43.977-71.988c-6.4101 0-11.992 5.5781-11.992 11.988 0 6.41 5.5821 11.988 11.992 11.988 6.3985 0 11.988-5.578 11.988-11.988 0-6.4102-5.5898-11.988-11.988-11.988zm23.977 31.988c-6.3985 0-11.988 5.59-11.988 11.988 0 6.41 5.5898 11.992 11.988 11.992 6.4101 0 11.992-5.582 11.992-11.992 0-6.398-5.5821-11.988-11.992-11.988zm40 0c-6.3985 0-11.988 5.59-11.988 11.988 0 6.41 5.5898 11.992 11.988 11.992 6.4101 0 11.992-5.582 11.992-11.992 0-6.398-5.5816-11.988-11.992-11.988zm24.032-31.988c-6.411 0-12.04 5.5781-12.04 11.988 0 6.41 5.629 11.988 12.04 11.988 6.359 0 11.992-5.578 11.992-11.988 0-6.4102-5.633-11.988-11.992-11.988z" stroke-width=".5999"/>
  </g>
 </g>
</g>
<g class="sprite" id="facebook">
 <title>Facebook</title>
 <defs>
  <clipPath id="clipPath1">
   <path d="M 0,51.856 H 23.936 V 0 H 0 Z"/>
  </clipPath>
 </defs>
 <g transform="matrix(.67495 0 0 -.67495 8.68 35.518)">
  <g clip-path="url(#clipPath1)">
   <g transform="translate(23.936,42.77)">
    <path d="m0 0h-5.651c-1.996 0-2.412-0.816-2.412-2.881v-4.986h8.063l-0.777-8.755h-7.286v-26.148h-10.441v26.038h-5.432v8.865h5.432v6.98c0 6.551 3.503 9.973 11.274 9.973h7.23z" fill="#27273e"/>
   </g>
  </g>
 </g>
</g>
<g class="sprite" id="googlePlus">
 <title>GooglePlus</title>
 <defs>
  <clipPath id="clipPath11">
   <path d="M 0,37.272 H 60.543 V 0 H 0 Z"/>
  </clipPath>
 </defs>
 <g transform="matrix(.51911 0 0 -.51911 .7212 27.692)">
  <g clip-path="url(#clipPath11)">
   <g transform="translate(18.637)">
    <path d="m0 0c-10.293 0-18.637 8.344-18.637 18.636 0 10.293 8.344 18.636 18.637 18.636 5.097 0 9.714-2.047 13.078-5.363l-3.835-3.305c-2.426 2.25-5.673 3.628-9.243 3.628-7.509 0-13.597-6.086-13.597-13.596 0-7.508 6.088-13.596 13.597-13.596 5.725 0 9.99 3.706 11.372 9.75h-11.685l-0.021 4.965h17.331l0.029-1.924c0-10.293-7.142-17.831-17.026-17.831" fill="#27273e"/>
   </g>
   <g transform="translate(53.389,14.985)">
    <path d="m0 0v-7.155h-4.564v7.155h-7.155v4.563h7.155v7.155h4.564v-7.155h7.154v-4.563z" fill="#27273e"/>
   </g>
  </g>
 </g>
</g>
<g class="sprite" id="mail">
 <title>Mail</title>
 <defs>
  <clipPath id="clipPath13">
   <path d="M 0,31.536 H 44.3 V 0 H 0 Z"/>
  </clipPath>
 </defs>
 <g transform="matrix(.6659 0 0 -.6659 1.9437 28.582)">
  <g clip-path="url(#clipPath13)">
   <g transform="translate(41.748,31.536)">
    <path d="m0 0c-0.233-0.295-0.395-0.544-0.6-0.75-5.627-5.671-11.254-11.341-16.888-17.004-1.514-1.52-2.647-1.529-4.132-0.028-5.621 5.676-11.234 11.359-16.849 17.041-0.193 0.195-0.373 0.403-0.683 0.741z" fill="#27273e"/>
   </g>
   <g transform="translate(0,28.379)">
    <path d="m0 0c4.177-4.033 8.494-8.203 12.903-12.46-4.353-4.45-8.547-8.736-12.903-13.189z" fill="#27273e"/>
   </g>
   <g transform="translate(2.5156)">
    <path d="m0 0c4.384 4.485 8.631 8.831 12.919 13.218 1.957-1.907 3.537-4.191 6.643-4.24 3.117-0.05 4.737 2.198 6.744 4.135 4.246-4.343 8.448-8.643 12.816-13.113z" fill="#27273e"/>
   </g>
   <g transform="translate(44.3,2.5869)">
    <path d="m0 0c-4.387 4.484-8.581 8.771-12.85 13.135 4.347 4.198 8.636 8.342 12.85 12.412z" fill="#27273e"/>
   </g>
  </g>
 </g>
</g>
<g class="sprite" id="twitter">
 <title>Twitter</title>
 <defs>
  <clipPath id="clipPath15">
   <path d="M 0,37.148 H 45.71 V 0 H 0 Z"/>
  </clipPath>
 </defs>
 <g transform="matrix(.67298 0 0 -.67298 1.119 30.453)">
  <g clip-path="url(#clipPath15)">
   <g transform="translate(41.031,27.898)">
    <path d="m0 0c0.592-13.19-9.244-27.897-26.656-27.897-5.295 0-10.225 1.552-14.375 4.214 4.975-0.588 9.941 0.791 13.884 3.883-4.105 0.076-7.569 2.785-8.759 6.513 1.467-0.28 2.912-0.2 4.233 0.16-4.511 0.905-7.623 4.969-7.522 9.314 1.263-0.702 2.711-1.125 4.25-1.173-4.178 2.79-5.36 8.305-2.903 12.521 4.624-5.675 11.534-9.409 19.328-9.8-1.367 5.868 3.082 11.516 9.135 11.516 2.698 0 5.135-1.139 6.846-2.962 2.135 0.421 4.143 1.202 5.954 2.277-0.7-2.192-2.186-4.03-4.122-5.188 1.895 0.226 3.703 0.73 5.386 1.476-1.257-1.882-2.848-3.534-4.679-4.854" fill="#27273e"/>
   </g>
  </g>
 </g>
</g>
<g class="sprite" id="vkontakte">
 <title>VKontakte</title>
 <defs>
  <clipPath id="clipPath17">
   <path d="M 0,28.889 H 51.11 V 0 H 0 Z"/>
  </clipPath>
 </defs>
 <g transform="matrix(.61036 0 0 -.61036 .96658 27.156)">
  <g clip-path="url(#clipPath17)">
   <g transform="translate(45.582,8.9531)">
    <path d="m0 0c4.098-3.77 4.948-5.591 5.08-5.827 0 0 1.704-2.953-1.888-2.98l-6.812-0.104c-1.462-0.29-3.406 1.029-3.406 1.029-2.553 1.74-4.949 6.247-6.811 5.666 0 0-1.916-0.607-1.861-4.668 0.025-0.87-0.4-1.344-0.4-1.344s-0.477-0.501-1.411-0.579h-3.059c-6.731-0.421-12.666 5.721-12.666 5.721s-6.494 6.643-12.19 19.903c-0.371 0.87 0.028 1.291 0.028 1.291s0.4 0.502 1.517 0.502l7.291 0.051c0.693-0.104 1.172-0.474 1.172-0.474s0.426-0.288 0.639-0.841c1.197-2.954 2.74-5.643 2.74-5.643 2.662-5.431 4.471-6.353 5.51-5.799 0 0 1.357 0.818 1.064 7.381-0.107 2.375-0.771 3.454-0.771 3.454-0.614 0.818-1.758 1.056-2.263 1.133-0.4 0.052 0.267 1.003 1.144 1.425 1.305 0.633 3.621 0.657 6.361 0.633 2.155-0.027 2.767-0.158 3.592-0.343 2.53-0.606 1.675-2.926 1.675-8.514 0-1.794-0.344-4.298 0.959-5.114 0.558-0.369 1.943-0.053 5.348 5.695 0 0 1.599 2.742 2.847 5.931 0.213 0.581 0.664 0.819 0.664 0.819s0.428 0.235 1.011 0.157l7.666 0.054c2.317 0.289 2.686-0.765 2.686-0.765 0.399-1.079-0.851-3.611-3.991-7.75-5.163-6.806-5.723-6.174-1.465-10.1" fill="#27273e"/>
   </g>
  </g>
 </g>
</g>
</svg>
