<?xml version="1.0" encoding="UTF-8"?>
<svg id="sprite_interact" version="1.1" xmlns="http://www.w3.org/2000/svg">
	<symbol id="main" viewBox="0 0 37 29">
		<title>Main</title>
 		<g transform="translate(0,-25)">
 		 <g id="main" transform="matrix(1.6621 1.7858 2.0065 -1.4741 .59265 53.974)" stroke-width="0.3%">
   			<path d="m-0.22118 0.39056 8.5441 10.366-13.266 2.2301zm-1.6216 10.04 6.4063-1.0772-4.1259-5.0048z"/>
  		 </g>
		</g>
	</symbol>
	<symbol id="reviews" viewBox="0 0 31 30">
 		<title>Reviews</title>
 		<defs>
 			 <clipPath id="clipPath18">
  				 <path d="M 0,21.357 H 22.303 V 0 H 0 Z"/>
 			 </clipPath>
 		</defs>
 		<g transform="matrix(1.3333 0 0 -1.3333 .57092 29.162)">
  			<g clip-path="url(#clipPath18)">
   				<g transform="translate(11.151 19.857)">
    				<path d="m0 0 2.982-6.043 6.669-0.969-4.826-4.704 1.14-6.641-5.965 3.135-5.965-3.135 1.14 6.641-4.826 4.704 6.669 0.969z" fill="none" stroke-linecap="square" stroke-linejoin="round" stroke-miterlimit="10" stroke-width="10%"/>
   				</g>
  			</g>
 		</g>
	</symbol>
	<symbol id="price" viewBox="0 0 42 38">
 		<title>Price</title>
 		<defs>
 			<clipPath id="clipPath1">
  				 <path d="m0 190.45h210v-190.45h-210z"/>
		  	</clipPath>
		</defs>
 		<g transform="matrix(.19048 0 0 -.1906 1.082 37.201)" stroke-width="6.9978">
  			<g stroke-width="6.9978">
   				<g clip-path="url(#clipPath1)" stroke-width="6.9978">
    				<g transform="translate(172.12 148.55)" stroke-width="6.9978">
    					 <path d="m0 0-1e-3 -2.476c-0.415-0.021-0.791-0.035-1.151-0.035l-23.547-6e-3c-38.129-0.01-76.262-0.02-114.39 0.016-4.613 5e-3 -8.6 1.636-11.228 4.594-2.373 2.672-3.432 6.261-2.98 10.106 0.817 6.958 6.3 11.306 14.31 11.346 7.296 0.038 14.591 0.048 21.886 0.048 5.096 0 10.191-5e-3 15.286-0.01 5.097-5e-3 10.194-0.011 15.292-0.011l42.587 5e-3c10.459 0 20.921-2e-3 31.381-0.01 9.138-6e-3 12.539-3.39 12.553-12.489 7e-3 -3.641 5e-3 -7.283 4e-3 -11.078m-5.743-52.202c-10.243-0.323-18.209-5.359-23.037-14.562-4.586-8.747-4.163-17.825 1.223-26.256 5.155-8.062 12.972-12.369 22.607-12.453 6.112-0.052 12.224-0.041 18.401-0.027 1.744 3e-3 3.494 7e-3 5.25 9e-3 0.028-0.971 0.064-1.927 0.099-2.868 0.151-4.006 0.294-7.79-0.28-11.337-1.012-6.239-6.988-10.449-14.871-10.477-13.856-0.049-27.711-0.039-41.571-0.029-5.639 4e-3 -11.276 8e-3 -16.914 8e-3l-47.696-6e-3c-11.266 0-22.532 3e-3 -33.798 0.01-11.651 9e-3 -17.081 5.374-17.088 16.883-0.013 22.492-0.011 44.982-8e-3 67.473l2e-3 26.856c1.455-0.201 2.892-0.414 4.301-0.623 5.434-0.804 10.567-1.563 15.846-1.591 19.393-0.102 40.218-0.147 67.524-0.147 10.878 0 21.757 6e-3 32.637 0.013 10.877 7e-3 21.755 0.014 32.633 0.014h3.215c11.19-2e-3 16.417-5.182 16.454-16.3 0.011-3.786 8e-3 -7.573 4e-3 -11.552l-1e-3 -2.966c-1.926 7e-3 -3.835 0.022-5.729 0.035-2.824 0.021-5.617 0.041-8.393 0.041-4.174 0-7.609-0.047-10.81-0.148m-7.367-26.692c-0.046 4.522 3.47 8.086 8.181 8.292 3.064 0.135 6.376 0.198 10.423 0.198 2.623 0 5.263-0.026 7.929-0.052 1.762-0.017 3.534-0.034 5.321-0.044v-16.591c-1.773-0.012-3.539-0.03-5.297-0.049-2.693-0.028-5.371-0.056-8.037-0.056-4.115 0-7.483 0.069-10.6 0.218-4.47 0.216-7.874 3.692-7.92 8.084m50.861 49.464c-3.641 11.862-9.585 19.443-18.678 23.799-0.113 0.348-0.229 0.901-0.242 1.391-0.087 3.406-0.076 6.893-0.065 10.265 7e-3 2.386 0.014 4.772-0.01 7.159-0.173 16.616-12.341 28.687-28.933 28.7-19.782 0.016-39.556 0.021-59.338 0.021l-69.443-9e-3c-16.093-3e-3 -27.194-8.174-32.093-23.603-0.036-0.086-0.18-0.314-0.285-0.481-0.138-0.216-0.274-0.434-0.398-0.655l-0.383-0.684v-138.3l0.173-0.487c2.92-8.226 6.844-17.378 16.49-21.87 5.96-2.775 11.007-4.137 15.43-4.163 23.818-0.137 49.621-0.201 81.2-0.201 18.664 0 37.328 0.022 55.992 0.043l8.61 0.01c13.439 0.015 25.2 8.323 29.961 21.166 0.418 1.127 0.866 2.244 1.314 3.361l0.83 2.087v92.021z"/>
   					 </g>
  				 </g>
  			</g>
 		</g>
	</symbol>
	<symbol id="prev" viewBox="0 0 11 18">
 		<title>Prev</title>
 		<defs>
  			<clipPath id="clipPath2">
   				<path d="M 0,24.985 H 14.613 V 0 H 0 Z"/>
  			</clipPath>
 		</defs>
 		<g transform="matrix(-.64037 0 0 -.64037 10.171 17.007)">
 			 <g clip-path="url(#clipPath2)">
  				 <g transform="translate(2.1211,22.864)">
    				<path d="M 0,0 10.371,-10.372 0,-20.743" fill="none" stroke-linecap="square" stroke-miterlimit="10" stroke-width="23%"/>
   				</g>
  			</g>
 		</g>
	</symbol>
	<symbol id="next" viewBox="0 0 11 18">
 		<title>Next</title>
 		<defs>
 			<clipPath id="clipPath3">
   				<path d="M 0,24.985 H 14.613 V 0 H 0 Z"/>
  			</clipPath>
 		</defs>
 		<g transform="matrix(.64037 0 0 -.64037 .81321 17.007)">
  			<g clip-path="url(#clipPath3)">
   				<g transform="translate(2.1211,22.864)">
   				 <path d="M 0,0 10.371,-10.372 0,-20.743" fill="none" stroke-linecap="square" stroke-miterlimit="10" stroke-width="23%"/>
  				</g>
  			</g>
 		</g>
	</symbol>
</svg>
