<?xml version="1.0" encoding="UTF-8"?>
<svg id="achmatova" width="100" height="50" version="1.1" viewBox="0 0 100 50" xmlns="http://www.w3.org/2000/svg">
 <title>Achmatova</title>
 <defs>
  <clipPath id="clipPath18">
   <path d="M 0,42.777 H 87.487 V 0 H 0 Z"/>
  </clipPath>
 </defs>
 <g transform="matrix(1.1202 0 0 -1.1202 .99995 48.959)">
  <g clip-path="url(#clipPath18)">
   <g transform="translate(40.834 22.36)">
    <path d="m0 0c0-11.275-9.141-20.417-20.417-20.417s-20.416 9.142-20.416 20.417c0 11.276 9.14 20.417 20.416 20.417s20.417-9.141 20.417-20.417" fill="#435143" fill-rule="evenodd"/>
   </g>
   <g transform="translate(19.52,7.6318)">
    <path d="m0 0c-0.025 0.035-0.052 0.072-0.077 0.109-0.813 0.237-1.62 0.493-2.44 0.707-0.556 0.145-1.132 0.217-1.692 0.352-0.329 0.08-0.725 0.135-0.948 0.348-0.539 0.517-1.1 0.898-1.865 0.982-0.187 0.02-0.403 0.256-0.5 0.447-0.073 0.139 0.026 0.368 0.048 0.555 0.237-0.043 0.475-0.072 0.706-0.131 0.668-0.166 1.324-0.422 2-0.496 0.902-0.098 1.819-0.029 2.678-0.426 0.218-0.099 0.494-0.097 0.745-0.103 1.078-0.026 2.156-0.035 3.234-0.051 0.214-2e-3 0.439-0.041 0.638 0.014 0.123 0.033 0.294 0.214 0.29 0.326-8e-3 0.285-0.07 0.578-0.169 0.846-0.23 0.619-0.742 0.632-1.303 0.595-0.602-0.039-1.285-0.349-1.788 0.149-0.624 0.619-1.326 0.588-2.096 0.519-0.929-0.082-1.862-0.127-2.753 0.287-0.162 0.076-0.406 0.026-0.598-0.023-0.703-0.182-1.39-0.442-2.102-0.561-0.504-0.086-0.537-0.273-0.357-0.656 0.474-1.006 0.053-1.949-1.059-2.25 0.286-0.596 0.264-1.379 1.142-1.533 0.152-0.027 0.305-0.057 0.457-0.059 0.813-0.011 1.625 8e-3 2.437-0.025 1.376-0.055 2.749-0.168 4.125-0.197 0.413-8e-3 0.831 0.177 1.247 0.275m7.81 20.708c-0.157 0.72-0.938 1.557-1.382 1.626-0.535 0.083-0.661 0.285-0.528 0.985-0.498 0.064-0.992 0.128-1.485 0.192-0.039 5e-3 -0.088 0.032-0.113 0.017-0.713-0.42-1.427-0.837-2.126-1.276-0.087-0.054-0.15-0.239-0.134-0.351 0.08-0.596 0.153-1.197 0.297-1.78 0.164-0.665 0.562-0.965 1.195-1.01 0.855-0.06 1.218 0.155 1.553 0.847 0.126 0.259 0.083 0.797 0.573 0.631 0.432-0.146 0.783-0.456 0.883-0.99 0.143-0.758-0.066-1.425-0.445-2.071 0.068-0.056 0.136-0.111 0.204-0.167 0.508 0.608 1.014 1.216 1.575 1.887 0.147-0.252 0.241-0.342 0.252-0.441 0.099-0.882 0.231-1.765 0.259-2.649 0.042-1.337-0.014-2.677 0.011-4.014 0.017-0.896-0.159-1.713-0.577-2.519-0.76-1.463-1.465-2.955-2.15-4.455-0.767-1.676-1.505-3.363-2.211-5.066-0.196-0.473-0.148-1.053-0.361-1.516-0.512-1.109-1.079-2.197-1.693-3.254-0.377-0.648-0.908-1.205-1.324-1.834-0.735-1.115-1.818-1.221-2.99-1.086-0.502 0.059-1.029 0.08-1.49 0.256-0.529 0.201-1.058 0.488-1.482 0.857-0.939 0.817-1.824 1.698-2.708 2.575-0.326 0.324-0.586 0.712-0.937 1.148-0.058-0.229-0.094-0.375-0.111-0.439-0.794 0.343-1.566 0.666-2.33 1.007-0.881 0.395-1.124 1.157-1.133 2.041-7e-3 0.758-0.024 1.514-0.013 2.272 4e-3 0.287 0.088 0.574 0.112 0.863 0.043 0.51-0.01 1.045 0.12 1.529 0.188 0.7 0.452 1.389 0.777 2.038 0.409 0.812 0.914 1.574 1.371 2.361 0.226 0.389 0.197 0.74-0.178 1.031-0.737 0.572-1.469 1.152-2.212 1.715-0.111 0.084-0.276 0.098-0.322 0.112-0.222 0.379-0.437 0.687-0.593 1.022-0.277 0.595-0.525 1.203-0.773 1.811-0.387 0.952-0.782 1.904-1.133 2.87-0.064 0.175-0.011 0.495 0.115 0.616 0.324 0.312 0.721 0.548 1.139 0.852-0.081 0.067-0.179 0.214-0.257 0.203-0.684-0.088-0.892 0.438-1.158 0.878-0.062 0.103-0.106 0.303-0.05 0.379 0.332 0.447 0.65 0.923 1.065 1.284 0.276 0.241 0.708 0.364 1.004-0.1 0.048-0.075 0.155-0.164 0.232-0.162 1.231 0.044 1.672-1.056 2.419-1.691 0.578-0.492 1.178-0.637 1.889-0.477 0.453 0.103 0.908 0.2 1.404 0.309-0.759 0.416-1.485 0.814-2.326 1.274 0.574 0.277 1.14 0.391 1.433 0.735 0.282 0.334 0.284 0.907 0.425 1.433 0.661 0.143 1.486-0.175 1.928-0.831 0.282-0.416 0.522-0.864 0.835-1.254 0.116-0.145 0.388-0.167 0.588-0.245 0.012 0.175 0 0.355 0.039 0.523 0.059 0.246 0.155 0.483 0.234 0.724 0.195-0.094 0.422-0.151 0.58-0.288 0.946-0.832 0.97-1.194 0.34-2.302-0.224-0.392-0.352-0.786-0.797-1.049-0.343-0.202-0.189-1.091 0.173-1.554 0.509-0.655 0.436-1.586-0.067-2.266-0.326-0.441-0.498-0.995-0.775-1.476-0.172-0.298-0.395-0.572-0.624-0.831-0.596-0.674-0.976-1.442-1.003-2.349-6e-3 -0.205 0.092-0.507 0.246-0.611 1.423-0.951 2.837-1.947 4.587-2.203 0.293-0.043 0.616 0.156 0.93 0.223 0.381 0.08 0.765 0.162 1.151 0.199 0.674 0.062 1.28 0.279 1.875 0.695-1.668-0.228-2.125 0.902-2.496 2.106-0.575 1.866-0.531 3.754 0.025 5.6 0.282 0.938 0.074 1.773-0.098 2.663-0.164 0.837-0.214 1.697-0.297 2.548-0.031 0.309-0.01 0.623-0.017 0.934-0.026 1.201-0.61 2.004-1.719 2.46-0.232 0.095-0.416 0.309-0.62 0.467-0.065-0.108-0.174-0.286-0.282-0.464-0.04 0.017-0.08 0.033-0.119 0.05 0 0.589-0.022 1.178 0.016 1.764 8e-3 0.12 0.254 0.211 0.357 0.343 0.109 0.139 0.246 0.311 0.241 0.465-3e-3 0.111-0.2 0.265-0.341 0.315-0.874 0.313-1.759 0.592-2.633 0.903-0.376 0.134-0.734 0.319-0.991 0.432-0.405 0.044-0.742 0.014-1.006 0.138-0.125 0.059-0.098 0.416-0.165 0.631-0.052 0.17-0.105 0.365-0.222 0.487-0.295 0.308-0.199 0.547 0.07 0.787 0.096 0.085 0.187 0.177 0.288 0.254 0.196 0.152 0.398 0.296 0.598 0.443 0.097-0.176 0.171-0.373 0.3-0.521 0.093-0.106 0.283-0.233 0.392-0.204 0.933 0.244 1.87 0.484 2.779 0.8 0.653 0.228 1.249 0.547 1.91 9e-3 0.108-0.089 0.431 1e-3 0.606 0.097 0.319 0.178 0.583 0.46 0.907 0.628 0.32 0.166 0.542 0.031 0.493-0.359-0.043-0.342-0.123-0.68-0.206-1.123 0.315 0.016 0.572 0.031 0.829 0.039 0.19 7e-3 0.401 0.058 0.566-6e-3 0.411-0.158 0.766-0.249 1.072 0.196 0.037 0.053 0.405-3e-3 0.463-0.101 0.529-0.898 1.287-1.451 2.285-1.748 0.568-0.168 1.086-0.496 1.649-0.686 0.193-0.065 0.452 0.084 0.683 0.115 0.327 0.043 0.697 0.179 0.979 0.081 1.089-0.379 1.733-1.806 1.373-2.895-0.148-0.445-0.512-0.551-0.969-0.353-0.582 0.251-1.181 0.469-1.786 0.654-0.184 0.056-0.433-1e-3 -0.617-0.083-0.135-0.06-0.273-0.239-0.294-0.382-0.014-0.09 0.168-0.255 0.294-0.309 0.247-0.106 0.52-0.148 0.776-0.234 0.236-0.079 0.485-0.148 0.691-0.28 0.485-0.313 0.996-0.613 1.403-1.012 0.26-0.255 0.514-0.692 0.489-1.027-0.072-0.968-0.349-1.901-0.91-2.728-0.229-0.337-0.457-0.349-0.701-0.075-0.991 1.115-2.291 1.325-3.686 1.338-0.302 3e-3 -0.601 0.22-0.903 0.339 0.245 0.32 0.433 0.829 0.747 0.925 0.945 0.291 1.872 0.123 2.638-0.58 0.411-0.378 0.815-0.764 1.337-1.254" fill="#fff" fill-rule="evenodd"/>
   </g>
   <g transform="translate(11.393 32.312)">
    <path d="m0 0c-0.495 0.062-0.989 0.169-1.485 0.176-0.549 8e-3 -1.033 0.11-1.45 0.487-0.461 0.417-0.505 1.062 0.02 1.386 0.599 0.369 1.26 0.666 1.929 0.888 1.194 0.395 2.238-0.226 3.283-0.655 0.574-0.236 0.816-0.9 0.645-1.483-0.097-0.333-0.287-0.548-0.694-0.364-0.136 0.061-0.404 0.1-0.457 0.031-0.413-0.544-0.94-0.546-1.524-0.401-0.085 0.021-0.19-0.033-0.285-0.053z" fill="#fff" fill-rule="evenodd"/>
   </g>
   <g transform="translate(11.376 32.325)">
    <path d="m0 0c0.451-0.148 0.914-0.268 1.348-0.456 0.289-0.126 0.561-0.321 0.794-0.537 0.268-0.249 0.51-0.537 0.712-0.842 0.097-0.147 0.076-0.373 0.108-0.563-0.201-4e-3 -0.432-0.073-0.598 1e-3 -0.663 0.297-1.297 0.662-1.962 0.957-0.371 0.164-0.794 0.211-1.173 0.363-0.273 0.111-0.512 0.307-0.774 0.47 0.38 0.752 1.009 0.566 1.564 0.595-1e-3 0-0.019 0.012-0.019 0.012" fill="#fff" fill-rule="evenodd"/>
   </g>
   <g transform="translate(24.057 27.518)">
    <path d="m 0,0 c -0.142,0.253 -0.288,0.405 -0.256,0.48 0.073,0.17 0.235,0.302 0.36,0.45 C 0.189,0.826 0.359,0.704 0.342,0.624 0.303,0.447 0.168,0.291 0,0" fill="#fff" fill-rule="evenodd"/>
   </g>
   <g transform="translate(43.512 32.935)">
    <path d="m0 0h0.42c0.28 0 0.485 0.046 0.615 0.138 0.131 0.092 0.195 0.24 0.195 0.445 0 0.197-0.065 0.339-0.196 0.426-0.131 0.088-0.359 0.131-0.685 0.131h-0.349zm1.831 0.583c0-0.716-0.459-1.074-1.377-1.074h-1.037v3.57h2.177v-0.501h-1.594v-0.95h0.425c0.937 0 1.406-0.348 1.406-1.045" fill="#435143"/>
   </g>
   <g transform="translate(47.054 36.014)">
    <path d="m0 0h0.535v-1.855c0-0.194-5e-3 -0.39-0.015-0.587-0.01-0.199-0.017-0.332-0.022-0.402h0.022l1.824 2.844h0.681v-3.569h-0.537v1.84c0 0.282 0.015 0.624 0.046 1.026h-0.019l-1.831-2.866h-0.684z" fill="#435143"/>
   </g>
   <g transform="translate(52.597 32.935)">
    <path d="m0 0h0.42c0.28 0 0.485 0.046 0.615 0.138s0.195 0.24 0.195 0.445c0 0.197-0.065 0.339-0.196 0.426-0.131 0.088-0.359 0.131-0.685 0.131h-0.349zm1.831 0.583c0-0.716-0.459-1.074-1.377-1.074h-1.037v3.57h2.177v-0.501h-1.594v-0.95h0.425c0.937 0 1.406-0.348 1.406-1.045" fill="#435143"/>
   </g>
   <g transform="translate(58.817 32.444)">
    <path d="m0 0h-0.583v3.069h-1.016c-0.129-1.042-0.232-1.751-0.309-2.127s-0.186-0.637-0.325-0.785c-0.141-0.147-0.327-0.218-0.557-0.213-0.119 0-0.232 0.02-0.34 0.061v0.486c0.093-0.041 0.184-0.061 0.272-0.061 0.117 0 0.208 0.07 0.274 0.211 0.065 0.141 0.138 0.452 0.217 0.934s0.173 1.146 0.282 1.994h2.085z" fill="#435143"/>
   </g>
   <g transform="translate(60.758 36.014)">
    <path d="m0 0h0.535v-1.855c0-0.194-5e-3 -0.39-0.014-0.587-0.01-0.199-0.017-0.332-0.023-0.402h0.023l1.823 2.844h0.681v-3.569h-0.537v1.84c0 0.282 0.016 0.624 0.047 1.026h-0.019l-1.832-2.866h-0.684z" fill="#435143"/>
   </g>
   <g transform="translate(66.165 34.234)">
    <path d="m0 0c0-0.439 0.088-0.773 0.266-1 0.177-0.227 0.44-0.34 0.789-0.34 0.345 0 0.607 0.112 0.784 0.337 0.177 0.224 0.265 0.559 0.265 1.003 0 0.438-0.087 0.77-0.262 0.996s-0.436 0.339-0.783 0.339c-0.35 0-0.614-0.113-0.792-0.339s-0.267-0.558-0.267-0.996m2.725 0c0-0.581-0.146-1.033-0.437-1.355-0.29-0.322-0.702-0.483-1.233-0.483-0.539 0-0.953 0.16-1.242 0.479-0.29 0.32-0.434 0.775-0.434 1.364s0.145 1.041 0.436 1.357c0.29 0.316 0.706 0.474 1.244 0.474 0.531 0 0.941-0.16 1.23-0.481 0.29-0.321 0.436-0.772 0.436-1.355" fill="#435143"/>
   </g>
   <g transform="translate(71.888 32.444)">
    <path d="m0 0h-0.583v3.069h-1.051v0.5h2.684v-0.5h-1.05z" fill="#435143"/>
   </g>
   <g transform="translate(76.503 32.444)">
    <path d="m0 0h-2.02v3.569h2.02v-0.493h-1.436v-0.972h1.346v-0.488h-1.346v-1.12h1.436z" fill="#435143"/>
   </g>
   <g transform="translate(81.014 32.444)">
    <path d="m0 0h-0.687l-1.469 1.809v-1.809h-0.584v3.569h0.584v-1.728l1.445 1.728h0.64l-1.441-1.723z" fill="#435143"/>
   </g>
   <g transform="translate(84.19 33.938)">
    <path d="m0 0-0.335 0.972c-0.024 0.065-0.059 0.167-0.102 0.307-0.042 0.14-0.072 0.243-0.088 0.308-0.044-0.2-0.109-0.419-0.194-0.657l-0.322-0.93zm0.51-1.494-0.357 0.991h-1.364l-0.35-0.991h-0.615l1.336 3.584h0.635l1.335-3.584z" fill="#435143"/>
   </g>
   <g transform="translate(44.948 25.044)">
    <path d="m0 0c-0.153-0.43-0.287-0.808-0.403-1.135s-0.219-0.619-0.31-0.877h2.315l-0.713 1.914-0.45 1.231h-0.019zm-1.211-3.514c-0.026-0.078-0.049-0.148-0.068-0.21-0.02-0.062-0.039-0.119-0.059-0.172-0.019-0.052-0.039-0.103-0.058-0.151-0.02-0.05-0.041-0.101-0.064-0.157l0.781 0.039v-0.435h-1.87v0.328c0.15 0 0.272 0.03 0.366 0.09 0.095 0.06 0.175 0.146 0.24 0.256 0.065 0.111 0.124 0.243 0.178 0.396 0.054 0.154 0.115 0.323 0.183 0.509l2.061 5.614h0.239l2.231-5.697c0.03-0.069 0.06-0.151 0.091-0.248 0.03-0.096 0.06-0.194 0.087-0.295 0.028-0.101 0.049-0.201 0.064-0.298 0.015-0.098 0.02-0.184 0.017-0.259l0.684 0.039v-0.435h-2.29v0.328c0.185 3e-3 0.322 0.037 0.41 0.102 0.088 0.066 0.143 0.146 0.166 0.24 0.023 0.095 0.023 0.196 0 0.304-0.023 0.107-0.053 0.209-0.088 0.303l-0.352 0.94-2.602-0.058c-0.072-0.206-0.136-0.395-0.191-0.566s-0.107-0.34-0.156-0.507" fill="#435143"/>
   </g>
   <g transform="translate(53.908 21.504)">
    <path d="m0 0c-7e-3 -0.133-0.013-0.251-0.017-0.354-5e-3 -0.103-0.017-0.211-0.037-0.325l0.63 0.03v-0.411h-2.041v0.298c0.153 0 0.27 0.031 0.349 0.091 0.08 0.06 0.138 0.144 0.176 0.251 0.038 0.108 0.058 0.236 0.064 0.386 4e-3 0.15 8e-3 0.314 0.012 0.493v0.85l-2.437-0.03v-1.279c0-0.133-1e-3 -0.251-5e-3 -0.354-3e-3 -0.103-0.014-0.211-0.034-0.325l0.63 0.03v-0.411h-2.041v0.298c0.153 0 0.27 0.031 0.349 0.091 0.08 0.06 0.138 0.144 0.176 0.251 0.038 0.108 0.059 0.236 0.066 0.386 6e-3 0.15 0.011 0.314 0.014 0.493v2.422c0 0.133 2e-3 0.251 5e-3 0.354 4e-3 0.102 0.015 0.211 0.035 0.325l-0.63-0.03v0.41h2.041v-0.297c-0.153 0-0.27-0.031-0.349-0.091-0.08-0.06-0.138-0.143-0.174-0.25-0.035-0.108-0.056-0.236-0.061-0.385s-9e-3 -0.313-0.012-0.492v-0.716h2.432v1.174c0 0.133 1e-3 0.25 5e-3 0.353 3e-3 0.102 0.014 0.21 0.034 0.324l-0.63-0.03v0.41h2.041v-0.297c-0.154 0-0.27-0.031-0.35-0.091-0.079-0.06-0.137-0.144-0.173-0.251-0.036-0.108-0.055-0.236-0.061-0.386-4e-3 -0.15-7e-3 -0.314-7e-3 -0.493z" fill="#435143"/>
   </g>
   <g transform="translate(60.128 21.504)">
    <path d="m0 0c-7e-3 -0.133-0.013-0.251-0.017-0.354-5e-3 -0.103-0.017-0.211-0.037-0.325l0.63 0.03v-0.411h-2.041v0.298c0.153 0 0.27 0.031 0.349 0.091 0.08 0.06 0.138 0.144 0.176 0.251 0.038 0.108 0.058 0.236 0.064 0.386 4e-3 0.15 9e-3 0.314 0.012 0.493v0.85l-2.437-0.03v-1.279c0-0.133-2e-3 -0.251-5e-3 -0.354s-0.014-0.211-0.034-0.325l0.63 0.03v-0.411h-2.041v0.298c0.153 0 0.27 0.031 0.35 0.091 0.079 0.06 0.137 0.144 0.175 0.251 0.038 0.108 0.059 0.236 0.066 0.386s0.012 0.314 0.014 0.493v2.422c0 0.133 2e-3 0.251 5e-3 0.354 3e-3 0.102 0.015 0.211 0.035 0.325l-0.63-0.03v0.41h2.041v-0.297c-0.154 0-0.27-0.031-0.349-0.091-0.08-0.06-0.138-0.143-0.174-0.25-0.036-0.108-0.056-0.236-0.06-0.385-6e-3 -0.149-0.01-0.313-0.013-0.492v-0.716h2.432v1.174c0 0.133 2e-3 0.25 5e-3 0.353 2e-3 0.102 0.014 0.21 0.034 0.324l-0.63-0.03v0.41h2.041v-0.297c-0.154 0-0.27-0.031-0.35-0.091-0.079-0.06-0.137-0.144-0.173-0.251-0.036-0.108-0.055-0.236-0.061-0.386-4e-3 -0.15-7e-3 -0.314-7e-3 -0.493z" fill="#435143"/>
   </g>
   <g transform="translate(64.552 22.891)">
    <path d="m0 0c-0.153-6e-3 -0.312-0.021-0.476-0.042-0.165-0.02-0.326-0.053-0.484-0.097-0.157-0.044-0.307-0.1-0.446-0.169-0.14-0.068-0.262-0.15-0.366-0.244-0.105-0.094-0.186-0.203-0.245-0.327-0.058-0.123-0.085-0.264-0.078-0.42 3e-3 -0.123 0.028-0.232 0.071-0.325 0.045-0.092 0.101-0.169 0.171-0.229s0.151-0.106 0.242-0.137c0.09-0.031 0.188-0.046 0.293-0.046 0.133 0 0.258 0.013 0.376 0.039 0.117 0.026 0.228 0.064 0.334 0.115 0.106 0.05 0.209 0.111 0.308 0.183s0.199 0.155 0.3 0.249zm-2.744 1.514c0 0.166 0.049 0.322 0.146 0.468 0.098 0.147 0.235 0.275 0.41 0.384 0.176 0.109 0.385 0.194 0.628 0.256s0.507 0.093 0.793 0.093c0.56 0 0.973-0.148 1.239-0.444 0.264-0.297 0.395-0.767 0.392-1.412l-0.01-2.246c0-0.104-1e-3 -0.209-7e-3 -0.315-4e-3 -0.106-0.015-0.227-0.032-0.363l0.708 0.039v-0.42h-1.43c-0.02 0.113-0.034 0.213-0.044 0.298-0.01 0.084-0.018 0.174-0.025 0.268-0.224-0.224-0.469-0.402-0.734-0.532-0.266-0.13-0.547-0.195-0.843-0.195-0.251 0-0.469 0.03-0.657 0.09-0.186 0.06-0.342 0.144-0.466 0.251-0.124 0.108-0.217 0.234-0.278 0.379-0.062 0.145-0.093 0.3-0.093 0.466 0 0.205 0.045 0.392 0.134 0.562 0.09 0.169 0.211 0.319 0.361 0.451 0.153 0.132 0.328 0.246 0.531 0.342 0.202 0.096 0.416 0.175 0.641 0.237 0.227 0.062 0.458 0.106 0.693 0.134 0.237 0.028 0.467 0.04 0.692 0.037v0.625c0 0.172-0.01 0.34-0.029 0.503-0.02 0.162-0.063 0.311-0.129 0.444-0.068 0.133-0.172 0.239-0.313 0.317-0.142 0.079-0.305 0.118-0.491 0.118-0.107 0-0.21-9e-3 -0.308-0.027-0.097-0.018-0.193-0.048-0.288-0.091-0.094-0.042-0.179-0.097-0.257-0.166-0.076-0.068-0.138-0.149-0.187-0.244 0.049-0.055 0.082-0.116 0.1-0.183s0.027-0.131 0.027-0.193c0-0.039-8e-3 -0.084-0.025-0.134-0.016-0.05-0.042-0.098-0.075-0.142-0.035-0.044-0.078-0.079-0.133-0.107-0.052-0.028-0.126-0.041-0.216-0.041-0.13 0-0.234 0.047-0.311 0.144-0.076 0.096-0.114 0.212-0.114 0.349" fill="#435143"/>
   </g>
   <g transform="translate(44.948 15.044)">
    <path d="m0 0c-0.153-0.43-0.287-0.809-0.403-1.135-0.116-0.328-0.219-0.62-0.31-0.877h2.315l-0.713 1.914-0.45 1.231h-0.019zm-1.211-3.514c-0.026-0.078-0.049-0.148-0.068-0.211-0.02-0.061-0.039-0.119-0.059-0.171-0.019-0.052-0.039-0.102-0.058-0.152-0.02-0.049-0.041-0.1-0.064-0.156l0.781 0.039v-0.435h-1.87v0.328c0.15 0 0.272 0.03 0.366 0.09 0.095 0.06 0.175 0.146 0.24 0.256 0.065 0.112 0.124 0.243 0.178 0.397 0.054 0.152 0.115 0.322 0.183 0.508l2.061 5.614h0.239l2.231-5.697c0.03-0.069 0.06-0.152 0.091-0.248 0.03-0.095 0.06-0.194 0.087-0.295 0.028-0.101 0.049-0.201 0.064-0.298 0.015-0.098 0.02-0.184 0.017-0.259l0.684 0.039v-0.435h-2.29v0.328c0.185 2e-3 0.322 0.037 0.41 0.102 0.088 0.066 0.143 0.146 0.166 0.24 0.023 0.095 0.023 0.196 0 0.304-0.023 0.107-0.053 0.209-0.088 0.304l-0.352 0.939-2.602-0.058c-0.072-0.206-0.136-0.395-0.191-0.566-0.055-0.172-0.107-0.341-0.156-0.507" fill="#435143"/>
   </g>
   <g transform="translate(48.942 15.444)">
    <path d="m0 0h2.061v-0.298c-0.15-7e-3 -0.268-0.026-0.354-0.058-0.087-0.033-0.138-0.084-0.154-0.154s1e-3 -0.162 0.053-0.276c0.053-0.114 0.141-0.256 0.264-0.425l0.581-0.791c0.834 1.019 1.286 1.563 1.358 1.631l-0.689-0.039v0.41h1.641v-0.298c-0.137-0.039-0.257-0.087-0.359-0.143-0.103-0.058-0.201-0.127-0.293-0.211-0.093-0.082-0.563-0.629-1.409-1.638l1.377-1.714c0.078-0.098 0.152-0.193 0.222-0.288s0.142-0.203 0.218-0.327l0.454 0.029v-0.41h-1.934v0.298c0.082 0 0.153 9e-3 0.215 0.026 0.062 0.019 0.106 0.048 0.134 0.088 0.028 0.041 0.034 0.093 0.02 0.154-0.015 0.062-0.056 0.137-0.125 0.225l-1.054 1.299c-0.681-0.931-1.037-1.416-1.067-1.455-0.031-0.039-0.065-0.078-0.1-0.117-0.036-0.039-0.079-0.085-0.127-0.137l0.766 0.029v-0.41h-1.679v0.298c0.101 0.026 0.19 0.06 0.268 0.102s0.152 0.096 0.222 0.162c0.07 0.065 0.556 0.681 1.458 1.85-0.821 1.094-1.266 1.711-1.338 1.851-0.072 0.139-0.126 0.257-0.161 0.351l-0.469-0.024z" fill="#435143"/>
   </g>
   <g transform="translate(61.081 10.444)">
    <path d="m0 0h-2.017v0.298c0.208-7e-3 0.361 0.058 0.457 0.195s0.122 0.357 0.076 0.659l-0.396 2.564-1.523-3.716h-0.401l-1.562 3.818-0.352-2.851c-0.01-0.085-0.026-0.182-0.049-0.291-0.022-0.109-0.046-0.205-0.073-0.29l0.63 0.024v-0.41h-1.538v0.298c0.104 0 0.191 0.014 0.261 0.044 0.07 0.029 0.127 0.073 0.169 0.132 0.042 0.058 0.075 0.13 0.097 0.214 0.023 0.085 0.041 0.179 0.054 0.284l0.444 3.647-0.615-0.029v0.41h1.333l1.636-3.857 1.582 3.857h1.177v-0.298c-0.183 0-0.321-0.055-0.412-0.163-0.094-0.109-0.121-0.294-0.082-0.555l0.455-3.047c0.012-0.084 0.019-0.177 0.019-0.281 0-0.101-5e-3 -0.192-0.015-0.27l0.645 0.024z" fill="#435143"/>
   </g>
   <g transform="translate(64.792 12.891)">
    <path d="m0 0c-0.153-7e-3 -0.312-0.021-0.476-0.042-0.165-0.02-0.326-0.053-0.484-0.098-0.157-0.043-0.307-0.099-0.446-0.168-0.14-0.068-0.262-0.149-0.366-0.244-0.105-0.094-0.186-0.203-0.245-0.327-0.058-0.124-0.085-0.264-0.078-0.42 3e-3 -0.124 0.028-0.231 0.071-0.325 0.045-0.092 0.101-0.169 0.171-0.229s0.151-0.106 0.242-0.136c0.09-0.032 0.188-0.047 0.293-0.047 0.133 0 0.258 0.013 0.376 0.039 0.117 0.026 0.228 0.064 0.334 0.115 0.106 0.05 0.209 0.111 0.308 0.183 0.099 0.071 0.199 0.154 0.3 0.249zm-2.744 1.514c0 0.166 0.049 0.322 0.146 0.468 0.098 0.147 0.235 0.275 0.41 0.384 0.176 0.109 0.385 0.195 0.628 0.256 0.243 0.062 0.507 0.093 0.793 0.093 0.56 0 0.973-0.149 1.239-0.444 0.264-0.296 0.395-0.767 0.392-1.412l-0.01-2.246c0-0.104-1e-3 -0.209-7e-3 -0.315-4e-3 -0.106-0.015-0.227-0.032-0.363l0.708 0.039v-0.42h-1.43c-0.02 0.114-0.034 0.213-0.044 0.298s-0.018 0.173-0.025 0.268c-0.224-0.224-0.469-0.402-0.734-0.532-0.266-0.13-0.547-0.195-0.843-0.195-0.251 0-0.469 0.03-0.657 0.09-0.186 0.06-0.342 0.144-0.466 0.251-0.124 0.108-0.217 0.234-0.278 0.378-0.062 0.146-0.093 0.301-0.093 0.467 0 0.205 0.045 0.393 0.134 0.562 0.09 0.169 0.211 0.319 0.361 0.452 0.153 0.131 0.328 0.245 0.531 0.342 0.202 0.095 0.416 0.174 0.641 0.236 0.227 0.061 0.458 0.106 0.693 0.135 0.237 0.027 0.467 0.039 0.692 0.036v0.625c0 0.173-0.01 0.34-0.029 0.503-0.02 0.163-0.063 0.31-0.129 0.444-0.068 0.134-0.172 0.239-0.313 0.317-0.142 0.079-0.305 0.118-0.491 0.118-0.107 0-0.21-9e-3 -0.308-0.028-0.097-0.017-0.193-0.048-0.288-0.09-0.094-0.042-0.179-0.097-0.257-0.166-0.076-0.068-0.138-0.149-0.187-0.244 0.049-0.055 0.082-0.116 0.1-0.183s0.027-0.131 0.027-0.193c0-0.039-8e-3 -0.084-0.025-0.133-0.016-0.051-0.042-0.098-0.075-0.143-0.035-0.043-0.078-0.079-0.133-0.107-0.052-0.028-0.126-0.041-0.216-0.041-0.13 0-0.234 0.047-0.311 0.144-0.076 0.096-0.114 0.212-0.114 0.349" fill="#435143"/>
   </g>
   <g transform="translate(70.905 13.936)">
    <path d="m0 0c-7e-3 0.208-0.022 0.383-0.049 0.522-0.026 0.14-0.07 0.252-0.135 0.334-0.062 0.084-0.146 0.143-0.251 0.176-0.104 0.035-0.234 0.052-0.39 0.052h-0.625v-3.516c0-0.133-2e-3 -0.251-5e-3 -0.354-3e-3 -0.102-0.015-0.21-0.034-0.324l0.63 0.029v-0.41h-2.041v0.298c0.153 0 0.269 0.03 0.349 0.09 0.079 0.06 0.138 0.144 0.176 0.251 0.037 0.108 0.059 0.237 0.065 0.386 7e-3 0.15 0.012 0.315 0.015 0.493v2.422c0 0.134 2e-3 0.244 5e-3 0.332s0.015 0.189 0.034 0.303h-0.723c-0.133 0-0.248-0.017-0.343-0.052-0.097-0.033-0.176-0.092-0.241-0.176-0.062-0.082-0.109-0.194-0.138-0.334-0.029-0.139-0.044-0.314-0.044-0.522h-0.381l0.044 1.509h4.419l0.044-1.509z" fill="#435143"/>
   </g>
   <g transform="translate(74.43 15.225)">
    <path d="m0 0c-0.264 0-0.489-0.059-0.677-0.176-0.186-0.117-0.341-0.274-0.461-0.47-0.12-0.195-0.209-0.419-0.265-0.673-0.058-0.255-0.086-0.519-0.086-0.792 0-0.31 0.031-0.612 0.095-0.905 0.063-0.294 0.161-0.553 0.29-0.78 0.13-0.226 0.294-0.408 0.492-0.545 0.196-0.137 0.426-0.205 0.69-0.205s0.485 0.06 0.667 0.179c0.18 0.118 0.326 0.275 0.44 0.471 0.111 0.196 0.192 0.418 0.241 0.669s0.073 0.509 0.073 0.773c0 0.3-0.027 0.597-0.083 0.89s-0.144 0.555-0.264 0.787c-0.12 0.231-0.276 0.419-0.465 0.562-0.192 0.144-0.42 0.215-0.687 0.215m0 0.381c0.352 0 0.681-0.065 0.986-0.193 0.306-0.128 0.573-0.306 0.798-0.533 0.227-0.225 0.406-0.494 0.537-0.804 0.133-0.312 0.199-0.648 0.199-1.009 0-0.388-0.065-0.75-0.193-1.089-0.129-0.339-0.306-0.633-0.533-0.884-0.226-0.251-0.492-0.448-0.801-0.593-0.306-0.145-0.639-0.217-0.993-0.217-0.352 0-0.68 0.062-0.983 0.188-0.305 0.125-0.571 0.3-0.797 0.524-0.226 0.225-0.405 0.493-0.534 0.804-0.13 0.311-0.196 0.652-0.196 1.023 0 0.393 0.065 0.76 0.193 1.1 0.129 0.341 0.305 0.635 0.53 0.885 0.225 0.248 0.49 0.443 0.796 0.586 0.305 0.141 0.637 0.212 0.991 0.212" fill="#435143"/>
   </g>
   <g transform="translate(80.002 13.188)">
    <path d="m0 0c0.205 3e-3 0.378 0.037 0.518 0.103 0.139 0.065 0.252 0.148 0.336 0.249 0.085 0.1 0.145 0.213 0.181 0.339 0.036 0.125 0.052 0.249 0.049 0.373-3e-3 0.173-0.034 0.314-0.093 0.422-0.058 0.11-0.135 0.196-0.229 0.257-0.095 0.062-0.203 0.105-0.327 0.127-0.124 0.023-0.254 0.034-0.391 0.034-0.12 0-0.23-8e-3 -0.327-0.027-0.098-0.018-0.181-0.053-0.249-0.105-0.069-0.051-0.121-0.123-0.159-0.211-0.038-0.09-0.056-0.207-0.056-0.35v-1.226zm-0.747-1.773c0-0.13-3e-3 -0.241-7e-3 -0.33-6e-3 -0.089-0.011-0.165-0.017-0.226 0.055-7e-3 0.126-0.011 0.214-0.013 0.088-1e-3 0.175-2e-3 0.262-2e-3h0.378c0.186 0 0.354 0.02 0.505 0.059 0.152 0.039 0.281 0.097 0.389 0.178 0.107 0.079 0.191 0.181 0.252 0.306 0.059 0.125 0.089 0.276 0.089 0.451s-0.033 0.325-0.099 0.448c-0.068 0.124-0.157 0.225-0.272 0.304-0.114 0.079-0.246 0.138-0.395 0.173-0.15 0.036-0.306 0.054-0.469 0.054-0.144 0-0.289-2e-3 -0.437-8e-3 -0.148-4e-3 -0.279-0.01-0.393-0.017zm-1.445 4.029c0.129 0 0.292 1e-3 0.485 2e-3 0.194 2e-3 0.406 4e-3 0.638 6e-3 0.231 1e-3 0.473 2e-3 0.727 2e-3h0.762c0.234 0 0.449-0.024 0.644-0.071 0.196-0.048 0.364-0.119 0.503-0.215 0.14-0.096 0.248-0.215 0.326-0.359 0.076-0.143 0.112-0.31 0.109-0.503 0-0.137-0.023-0.268-0.068-0.395-0.046-0.127-0.115-0.245-0.205-0.354-0.091-0.109-0.207-0.205-0.344-0.286-0.139-0.081-0.303-0.144-0.491-0.186v-0.014c0.224-0.01 0.422-0.046 0.595-0.108 0.173-0.061 0.317-0.145 0.433-0.252 0.115-0.105 0.203-0.23 0.264-0.375 0.059-0.145 0.089-0.303 0.089-0.476 0-0.225-0.046-0.424-0.141-0.598-0.095-0.175-0.221-0.322-0.378-0.445-0.158-0.121-0.34-0.215-0.545-0.277-0.205-0.065-0.42-0.096-0.645-0.096h-2.773v0.298c0.12 3e-3 0.22 0.025 0.298 0.065 0.078 0.041 0.139 0.098 0.185 0.172 0.046 0.072 0.077 0.16 0.093 0.264 0.017 0.101 0.025 0.219 0.025 0.353v2.891c0 0.12 2e-3 0.226 9e-3 0.32 7e-3 0.092 0.018 0.178 0.035 0.256l-0.63-0.029z" fill="#435143"/>
   </g>
   <g transform="translate(85.963 12.891)">
    <path d="m0 0c-0.153-7e-3 -0.312-0.021-0.476-0.042-0.165-0.02-0.326-0.053-0.484-0.098-0.157-0.043-0.307-0.099-0.446-0.168-0.14-0.068-0.262-0.149-0.366-0.244-0.105-0.094-0.186-0.203-0.245-0.327-0.058-0.124-0.085-0.264-0.078-0.42 3e-3 -0.124 0.028-0.231 0.071-0.325 0.045-0.092 0.101-0.169 0.171-0.229s0.151-0.106 0.242-0.136c0.09-0.032 0.188-0.047 0.293-0.047 0.133 0 0.258 0.013 0.376 0.039 0.117 0.026 0.228 0.064 0.334 0.115 0.106 0.05 0.209 0.111 0.308 0.183 0.099 0.071 0.199 0.154 0.3 0.249zm-2.744 1.514c0 0.166 0.049 0.322 0.146 0.468 0.098 0.147 0.235 0.275 0.41 0.384 0.176 0.109 0.385 0.195 0.628 0.256 0.243 0.062 0.507 0.093 0.793 0.093 0.56 0 0.973-0.149 1.239-0.444 0.264-0.296 0.395-0.767 0.392-1.412l-0.01-2.246c0-0.104-1e-3 -0.209-7e-3 -0.315-4e-3 -0.106-0.015-0.227-0.032-0.363l0.708 0.039v-0.42h-1.43c-0.02 0.114-0.034 0.213-0.044 0.298s-0.018 0.173-0.025 0.268c-0.224-0.224-0.469-0.402-0.734-0.532-0.266-0.13-0.547-0.195-0.843-0.195-0.251 0-0.469 0.03-0.657 0.09-0.186 0.06-0.342 0.144-0.466 0.251-0.124 0.108-0.217 0.234-0.278 0.378-0.062 0.146-0.093 0.301-0.093 0.467 0 0.205 0.045 0.393 0.134 0.562 0.09 0.169 0.211 0.319 0.361 0.452 0.153 0.131 0.328 0.245 0.531 0.342 0.202 0.095 0.416 0.174 0.641 0.236 0.227 0.061 0.458 0.106 0.693 0.135 0.237 0.027 0.467 0.039 0.692 0.036v0.625c0 0.173-0.01 0.34-0.029 0.503-0.02 0.163-0.063 0.31-0.129 0.444-0.068 0.134-0.172 0.239-0.313 0.317-0.142 0.079-0.305 0.118-0.491 0.118-0.107 0-0.21-9e-3 -0.308-0.028-0.097-0.017-0.193-0.048-0.288-0.09-0.094-0.042-0.179-0.097-0.257-0.166-0.076-0.068-0.138-0.149-0.187-0.244 0.049-0.055 0.082-0.116 0.1-0.183s0.027-0.131 0.027-0.193c0-0.039-8e-3 -0.084-0.025-0.133-0.016-0.051-0.042-0.098-0.075-0.143-0.035-0.043-0.078-0.079-0.133-0.107-0.052-0.028-0.126-0.041-0.216-0.041-0.13 0-0.234 0.047-0.311 0.144-0.076 0.096-0.114 0.212-0.114 0.349" fill="#435143"/>
   </g>
  </g>
 </g>
</svg>
