<?xml version="1.0" encoding="UTF-8"?>
<svg id="avantage" width="100" height="50" version="1.1" viewBox="0 0 100 50" xmlns="http://www.w3.org/2000/svg">
 <title>Avantage</title>
 <defs>
  <clipPath id="clipPath54">
   <path d="M 0,195.88 H 158.837 V 0 H 0 Z"/>
  </clipPath>
 </defs>
 <g transform="matrix(.24505 0 0 -.24505 53.022 29.139)">
  <path d="m0 0v-6.74l-52.983-30.858v8.117z" fill="#cedf00"/>
 </g>
 <g transform="matrix(.24505 0 0 -.24505 53.028 1)">
  <path d="m0 0-88.177-152.43h35.167l54.734 95.425z" fill="#cedf00"/>
 </g>
 <g transform="matrix(.24505 0 0 -.24505 53.028 1)">
  <path d="m0 0-0.26-60.458 35.254-61.214h35.254z" fill="#ebeb6d"/>
 </g>
 <g transform="matrix(.24505 0 0 -.24505 50.503 26.171)">
  <path d="m0 0h10.045v17.397z" fill="#ebeb6d"/>
 </g>
 <g transform="matrix(.24505 0 0 -.24505 52.965 21.908)">
  <path d="m0 0v-17.397h10.045z" fill="#cedf00"/>
 </g>
 <g transform="matrix(.24505 0 0 -.24505 33.401 44.09)">
  <path d="m0 0-7.005-18.096-1.486-0.206v-1.735h5.739v1.735l-1.514 0.261 1.363 3.688h8.023l1.32-3.688-1.513-0.261v-1.735h5.752v1.735l-1.472 0.206-6.881 18.096zm1.102-3.482h0.082l3.11-8.601h-6.358z" fill="#383a31"/>
 </g>
 <g transform="matrix(.24505 0 0 -.24505 31.32 49)">
  <g clip-path="url(#clipPath54)">
   <g transform="translate(27.93 9.3994)">
    <path d="m0 0v-7.28h4.679c1.238 0 2.199 0.304 2.883 0.915 0.683 0.61 1.025 1.474 1.025 2.594 0 1.174-0.287 2.096-0.86 2.766s-1.452 1.005-2.635 1.005zm0 2.119h4.527c0.973 0.027 1.76 0.317 2.361 0.867 0.6 0.55 0.901 1.312 0.901 2.285 0 1.082-0.339 1.891-1.018 2.428s-1.661 0.805-2.945 0.805h-3.826zm3.826 8.519c2.091 0 3.727-0.452 4.905-1.356 1.18-0.904 1.769-2.26 1.769-4.067 0-0.89-0.282-1.686-0.846-2.387-0.565-0.702-1.31-1.223-2.237-1.562 1.202-0.257 2.152-0.849 2.849-1.776s1.046-2.005 1.046-3.233c0-1.835-0.597-3.236-1.789-4.204-1.193-0.969-2.807-1.452-4.844-1.452h-9.633v1.734l2.243 0.385v15.784l-2.243 0.386v1.748h2.243z" fill="#383a31"/>
   </g>
   <g transform="translate(49.806 7.9541)">
    <path d="m0 0h6.358l-3.11 8.601h-0.083zm-6.427-6.22 1.487 0.206 7.004 18.097h2.326l6.881-18.097 1.472-0.206v-1.734h-5.752v1.734l1.513 0.261-1.32 3.688h-8.023l-1.363-3.688 1.514-0.261v-1.734h-5.739z" fill="#383a31"/>
   </g>
   <g transform="translate(66.355 18.289)">
    <path d="m0 0v1.748h7.197v-1.748l-2.243-0.386v-6.922h9.715v6.922l-2.242 0.386v1.748h7.197v-1.748l-2.244-0.386v-15.784l2.244-0.385v-1.734h-7.197v1.734l2.242 0.385v6.73h-9.715v-6.73l2.243-0.385v-1.734h-7.197v1.734l2.243 0.385v15.784z" fill="#383a31"/>
   </g>
   <g transform="translate(106.3 20.037)">
    <path d="m0 0v-4.432h-2.312l-0.206 2.298h-4.445v-15.784l2.243-0.385v-1.734h-7.197v1.734l2.243 0.385v15.784h-4.459l-0.192-2.298h-2.326v4.432z" fill="#383a31"/>
   </g>
   <g transform="translate(113.63 7.9541)">
    <path d="m0 0h6.357l-3.109 8.601h-0.083zm-6.427-6.22 1.487 0.206 7.004 18.097h2.326l6.881-18.097 1.472-0.206v-1.734h-5.753v1.734l1.515 0.261-1.321 3.688h-8.024l-1.362-3.688 1.514-0.261v-1.734h-5.739z" fill="#383a31"/>
   </g>
   <g transform="translate(139.48 8.7246)">
    <path d="m0 0-4.143-6.812 1.087-0.178v-1.735h-6.357v1.735l2.009 0.288 5.34 8.45-3.662 5.835c-0.357 0.541-0.692 0.929-1.003 1.162-0.313 0.234-0.684 0.352-1.116 0.352-0.202 0-0.401-0.014-0.598-0.041-0.198-0.029-0.392-0.061-0.585-0.097l-0.399 1.899c0.293 0.193 0.61 0.341 0.949 0.448 0.339 0.104 0.735 0.158 1.184 0.158 0.762 0 1.434-0.184 2.016-0.551 0.583-0.367 1.195-1.069 1.838-2.105l3.99-6.524h1.954v6.895l-2.243 0.385v1.749h7.183v-1.749l-2.243-0.385v-6.895h2.119l3.992 6.524c0.632 1.036 1.238 1.738 1.816 2.105s1.257 0.551 2.037 0.551c0.44 0 0.83-0.054 1.169-0.158 0.34-0.107 0.656-0.255 0.95-0.448l-0.399-1.899c-0.193 0.036-0.388 0.068-0.585 0.097-0.197 0.027-0.392 0.041-0.585 0.041-0.441 0-0.817-0.118-1.128-0.352-0.313-0.233-0.648-0.621-1.005-1.162l-3.84-5.959 5.258-8.326 2.009-0.288v-1.735h-6.344v1.735l1.073 0.178-4.129 6.812h-2.408v-6.605l2.243-0.385v-1.735h-7.183v1.735l2.243 0.385v6.605z" fill="#383a31"/>
   </g>
  </g>
 </g>
</svg>
