<?xml version="1.0" encoding="UTF-8"?>
<svg id="backery" width="100" height="50" version="1.1" viewBox="0 0 100 50" xmlns="http://www.w3.org/2000/svg">
 <title>Backery</title>
 <defs>
  <clipPath id="clipPath18">
   <path d="M 0,34.076 H 89.715 V 0 H 0 Z"/>
  </clipPath>
 </defs>
 <g transform="matrix(1.0923 0 0 -1.0923 1.0002 43.416)">
  <g clip-path="url(#clipPath18)">
   <g transform="translate(12.183 18.632)">
    <path d="m0 0c0.017 0.041 0.033 0.082 0.049 0.123 0.018-8e-3 0.037-0.014 0.057-0.017 2e-3 0 4e-3 1e-3 6e-3 1e-3 -5e-3 -9e-3 -8e-3 -0.019-0.013-0.027-0.02-0.036-0.057-0.063-0.099-0.08m0.178 0.949c0.032-0.147 0.046-0.32 0.03-0.487-0.012 0.033-0.023 0.066-0.034 0.1 0.017 0.158 4e-3 0.319-0.037 0.494-8e-3 0.033-0.023 0.057-0.041 0.076-0.019 0.051-0.044 0.101-0.072 0.151 5e-3 -1e-3 0.011 0 0.016-3e-3 0.091-0.051 0.118-0.241 0.138-0.331m0.281 0.308c-0.15 0.391-0.557 0.485-0.807 0.2-0.012-4e-3 -0.026-0.01-0.038-0.021-0.342-0.297-0.384-0.976-0.268-1.376 0.131-0.453 0.759-0.602 1.038-0.188 0.251 0.373 0.232 0.98 0.075 1.385" fill="#ba7c2b"/>
   </g>
   <g transform="translate(17.7 19.627)">
    <path d="m0 0c-0.063 0.367-0.374 0.728-0.737 0.539-0.02 1e-3 -0.041-7e-3 -0.059-0.031-3e-3 -3e-3 -5e-3 -7e-3 -8e-3 -0.01-0.01-7e-3 -0.021-0.013-0.032-0.022-0.042-0.034-0.054-0.075-0.046-0.114-0.26-0.559-0.355-1.91 0.479-1.526 0.399 0.185 0.469 0.784 0.403 1.164" fill="#ba7c2b"/>
   </g>
   <g transform="translate(15.211 8.8721)">
    <path d="M 0,0 C -0.009,-0.028 0,-0.03 0.001,0.005 0,0.003 0,0.001 0,0" fill="#ba7c2b"/>
   </g>
   <g transform="translate(15.208 9.0068)">
    <path d="m0 0c-0.014 0.038-0.025 0.077-0.038 0.115-0.021 0.071-0.044 0.142-0.06 0.212-0.035 0.152-0.281 0.158-0.311 0-0.023-0.121-0.014-0.25-3e-3 -0.373 0.013-0.135 0.084-0.235 0.225-0.25 0.119-0.013 0.196 0.103 0.19 0.209 2e-3 -0.018 2e-3 -0.032 2e-3 -0.043 0.01 0.039 9e-3 0.094-5e-3 0.13" fill="#ba7c2b"/>
   </g>
   <g transform="translate(16.129 9.1816)">
    <path d="m0 0c-0.09 0.142-0.154 0.295-0.257 0.43-0.042 0.055-0.137 0.026-0.118-0.05 0.039-0.15 0.083-0.318 0.094-0.475-0.02-0.042-0.028-0.087-0.014-0.137 0.029-0.108 0.145-0.173 0.253-0.144 0.189 0.053 0.187 0.292 0.042 0.376" fill="#ba7c2b"/>
   </g>
   <g transform="translate(15.613 6.6406)">
    <path d="m0 0c-7e-3 0.027-0.022 0.056-0.039 0.079-0.026 0.035-0.04 0.082-0.055 0.123-0.037 0.106-0.067 0.216-0.085 0.326-0.021 0.118-0.224 0.121-0.241 0-0.021-0.144-0.026-0.286-9e-3 -0.43 0.015-0.133 0.041-0.324 0.206-0.347 0.145-0.021 0.249 0.077 0.225 0.225 8e-3 -0.046 7e-3 -0.038-2e-3 0.024" fill="#ba7c2b"/>
   </g>
   <g transform="translate(15.708 4.4648)">
    <path d="m0 0c-0.065 0.153-0.143 0.299-0.176 0.463-0.014 0.074-0.139 0.077-0.151 0-0.026-0.162-0.017-0.328-0.014-0.493 3e-3 -0.144 2e-3 -0.316 0.154-0.383 0.083-0.037 0.163-0.021 0.216 0.057 0.087 0.126 0.023 0.234-0.029 0.356" fill="#ba7c2b"/>
   </g>
   <g transform="translate(15.459,1.9463)">
    <path d="m0 0c5e-3 -0.014 8e-3 -0.015 0 0" fill="#ba7c2b"/>
   </g>
   <g transform="translate(15.442 2.1348)">
    <path d="m0 0c-3e-3 -9e-3 -1e-3 -0.011 0 0" fill="#ba7c2b"/>
   </g>
   <g transform="translate(15.76 2.1865)">
    <path d="m0 0c-7e-3 0.018-0.014 0.036-0.02 0.055-0.015 0.052-0.029 0.105-0.044 0.158-0.022 0.078-0.051 0.155-0.062 0.237-0.02 0.129-0.202 0.082-0.213-0.029-8e-3 -0.08-1e-3 -0.164 6e-3 -0.245 4e-3 -0.046 9e-3 -0.093 0.013-0.139 2e-3 -0.022 5e-3 -0.043 4e-3 -0.064 0-0.012-1e-3 -0.02-2e-3 -0.025 2e-3 5e-3 5e-3 0.011 0.01 0.02-0.036-0.058-0.034-0.138 0-0.196 3e-3 -4e-3 5e-3 -8e-3 7e-3 -0.012-3e-3 8e-3 -6e-3 0.019-8e-3 0.035 0.018-0.078 0.079-0.142 0.168-0.142 0.1 0 0.157 0.08 0.185 0.166 0.02 0.06 0 0.135-0.044 0.181" fill="#ba7c2b"/>
   </g>
   <g transform="translate(16.672 6.8408)">
    <path d="m0 0c-0.046 0.045-0.053 0.175-0.064 0.235-0.014 0.077-0.021 0.156-0.036 0.234-0.02 0.107-0.197 0.107-0.217 0-0.015-0.078-0.023-0.155-0.026-0.233-2e-3 -0.053 0-0.106 2e-3 -0.16 3e-3 -0.048 0.027-0.115 0.018-0.161-0.028-0.142 0.088-0.279 0.238-0.238 0.138 0.038 0.19 0.221 0.085 0.323" fill="#ba7c2b"/>
   </g>
   <g transform="translate(17.12 4.6094)">
    <path d="m0 0c-9e-3 0.149-0.028 0.29-0.018 0.441 0.011 0.167-0.212 0.165-0.266 0.037-0.085-0.202-0.29-0.827 0.119-0.832 0.058-1e-3 0.112 0.031 0.141 0.081 0.054 0.09 0.03 0.174 0.024 0.273" fill="#ba7c2b"/>
   </g>
   <g transform="translate(17.391 2.377)">
    <path d="m0 0c-0.024 0.091-0.054 0.181-0.083 0.271-0.015 0.049-0.04 0.095-0.063 0.14-8e-3 0.014-0.018 0.025-0.029 0.033v2e-3c-0.012 0.018-0.054 0.081-0.038 0.019-0.015 0.057-0.102 0.067-0.129 0.018-3e-3 -2e-3 -5e-3 -4e-3 -9e-3 -7e-3 -0.013-0.014-0.028-0.039-0.033-0.057-5e-3 -0.02-0.018-0.058-0.023-0.095-8e-3 -0.069-5e-3 -0.135-1e-3 -0.204 8e-3 -0.13 3e-3 -0.24 0.059-0.359-3e-3 8e-3 -5e-3 0.016-7e-3 0.025 0.031-0.081 0.11-0.136 0.214-0.11 0.142 0.035 0.173 0.205 0.142 0.324" fill="#ba7c2b"/>
   </g>
   <g transform="translate(29.264 13.562)">
    <path d="m0 0c-0.279-1.51-0.664-2.898-1.384-4.264-1.157-2.2-2.544-4.422-4.659-5.806-0.61-0.401-1.258-0.737-1.93-1.015-0.062 0.386-0.183 0.772-0.283 1.136-0.179 0.648-0.407 1.281-0.669 1.901-0.297 0.705-0.663 1.439-1.124 2.088 1.776 0.716 3.173 2.184 4.251 3.727 1.009 1.445 1.876 3.239 2.083 5.039 0.093 0.28 0.152 0.58 0.046 0.716 0 0.036 3e-3 0.071 3e-3 0.106 0.327 0.151 0.581 0.409 0.637 0.76 8e-3 0.05-0.013 0.102-0.047 0.14 0.653-0.028 1.307-0.054 1.962-0.054 0.39 0 0.781 2e-3 1.171 0 3e-3 -0.036 9e-3 -0.072 0.02-0.11 0.384-1.396 0.183-2.963-0.077-4.364m-10.288-5.22c-0.076-0.041-0.151-0.083-0.229-0.122-6e-3 -4e-3 -0.011-8e-3 -0.017-0.012-0.02 0.022-0.038 0.044-0.058 0.066 0.095 4e-3 0.198 0.029 0.304 0.068m-4.656-6.856c0.463 1.308 0.366 2.854 0.269 4.204-0.057 0.79-0.149 1.578-0.237 2.366-0.067 0.593-0.038 1.298-0.203 1.88 0.333 0.081 0.714 0.622 0.871 0.803 0.198 0.228 0.389 0.464 0.572 0.704 0.037 0.05 0.081 0.101 0.125 0.155 0.097 0.03 0.193 0.068 0.289 0.109 8e-3 -3e-3 0.016-7e-3 0.026-8e-3 3.427-0.394 8.001 1.674 8.76 5.337 0.105-5e-3 0.211 1e-3 0.317 0.015-0.122-0.236-0.165-0.534-0.219-0.78-0.047-0.212-0.084-0.429-0.113-0.647-0.083-0.171-0.167-0.34-0.252-0.509-0.454-0.902-0.95-1.783-1.475-2.645-0.568-0.932-1.261-1.685-2.112-2.384-0.543-0.445-1.154-0.83-1.764-1.18-0.209-0.12-0.419-0.236-0.641-0.326-0.168-0.069-4e-3 -0.011-0.079-0.042-0.01-5e-3 -0.018-0.012-0.025-0.018-0.026 0.024-0.051 0.05-0.077 0.073-0.063 0.057-0.153 0.035-0.198-0.018-0.079-0.013-0.146-0.08-0.117-0.187 0.326-1.188 0.949-2.266 1.323-3.435 0.178-0.562 0.302-1.141 0.48-1.704 0.116-0.367 0.242-0.793 0.462-1.134-1.905-0.611-3.967-0.791-5.982-0.629m-4.556 14.4c-2e-3 -3e-3 -4e-3 -6e-3 -6e-3 -0.01-0.028-6e-3 -0.053-0.022-0.073-0.045-0.036 0.027-0.071 0.056-0.105 0.085 0.06-0.015 0.122-0.024 0.184-0.03m5.543 0.515c-0.035-0.017-0.067-0.041-0.088-0.073-8e-3 -1e-3 -0.017-1e-3 -0.024-3e-3 -3e-3 9e-3 -4e-3 0.019-7e-3 0.028 0.028 0.034 0.056 0.066 0.085 0.098 0.01-0.017 0.021-0.034 0.034-0.05m1.168 0.171c-0.033 0.018-0.066 0.035-0.1 0.053 0.016 7e-3 0.033 0.014 0.049 0.022 0.016 3e-3 0.033 5e-3 0.049 8e-3 -4e-3 -0.028-3e-3 -0.055 2e-3 -0.083m-2.502-15.055c-1.197 0.12-2.375 0.36-3.488 0.704-2.092 0.645-4.05 1.744-5.538 3.364-1.775 1.934-2.87 4.514-3.336 7.076-0.406 2.235-0.118 4.642 0.455 6.822 0.301 1.147 0.733 2.243 1.319 3.273 0.421 0.741 0.962 1.317 1.525 1.906 0.271-0.721 0.858-1.284 1.562-1.664 0.41-0.286 0.946-0.463 1.481-0.51 0.731-0.119 1.472-0.031 2.03 0.452-4e-3 -0.251 0.041-0.506 0.066-0.754 0.048-0.495 0.049-0.972-8e-3 -1.466-0.021-0.189 0.252-0.215 0.323-0.064 1.423 0.772 2.971 1.173 4.591 1.221 0.873 0.026 1.746-0.072 2.594-0.277 0.634-0.153 1.191-0.416 1.756-0.697 0.018-0.099 0.043-0.195 0.072-0.291 0.036-1.351-0.306-2.689-0.81-3.952-0.231 0.117-0.456 0.242-0.681 0.354-0.735 0.364-1.518 0.559-2.162 0.282 0.033 0.18 0.026 0.369-0.01 0.552-0.058 0.291-0.236 0.587-0.495 0.739-0.247 0.144-0.67 0.113-0.797-0.18-0.032-0.072 3e-3 -0.183 0.101-0.175 0.178 0.016 0.324 0.113 0.494 0.011 0.172-0.103 0.249-0.325 0.291-0.508 0.044-0.193 0.019-0.402-0.08-0.573-0.096-0.166-0.25-0.187-0.401-0.219-0.652 0.75-1.885 0.391-2.774 0.055-0.616-0.234-1.222-0.519-1.87-0.649-0.744-0.15-0.874 0.27-1.145 0.849-0.049 0.107-0.238 0.084-0.257-0.034-5e-3 -0.027-8e-3 -0.055-0.011-0.082-0.019-0.015-0.036-0.035-0.046-0.066-0.612-1.929 1.008-3.19 2.78-3.357 0.879-0.083 1.812 0.115 2.554 0.599 0.367 0.24 0.817 0.713 1.038 1.221 0.166-0.226 0.375-0.422 0.503-0.523 0.463-0.364 1.068-0.692 1.679-0.847-0.311-0.443-0.681-0.835-1.162-1.151-0.596-0.391-1.281-0.578-1.962-0.755-0.048-0.012-0.089-0.05-0.107-0.096-0.046 0.012-0.092 0.024-0.138 0.037-0.146 0.041-0.203-0.147-0.096-0.228 0.405-0.309 0.828-0.433 1.249-0.427-0.138-0.176-0.278-0.351-0.423-0.522-0.064-0.075-0.548-0.509-0.705-0.787-0.069 0-0.136-0.037-0.153-0.123-0.119-0.574 0.051-1.262 0.115-1.84 0.087-0.784 0.176-1.568 0.242-2.355 0.122-1.474 0.1-2.895-0.165-4.345m-7.912 23.954c0.431 1.775 2.224 2.811 3.963 2.732 0.199-0.106 0.439 0.127 0.331 0.317 0.012 0.021 0.014 0.048-1e-3 0.076-1.048 2.017 1.782 3.332 3.367 3.641 2.494 0.487 3.897-2.265 4.454-4.249 0.051-0.181 0.239-0.204 0.36-0.125 0.045 0.013 0.086 0.041 0.116 0.086 0.117 0.176 0.252 0.331 0.399 0.466 0.051 0.02 0.097 0.057 0.125 0.106 1.434 1.149 3.906 0.541 4.11-1.558 0.086-0.89-0.157-1.862-0.596-2.634-0.189-0.33-0.459-0.648-0.826-0.778-0.488-0.171-0.945 0.194-1.279 0.5-0.038 0.034-0.078 0.053-0.118 0.061-0.075 0.055-0.202 0.063-0.264-0.016-0.053-0.069-0.105-0.142-0.156-0.217-4e-3 -4e-3 -7e-3 -0.011-0.011-0.016-0.209-0.312-0.391-0.665-0.525-1.037-2.602 1.63-6.335 1.048-9.013-0.198-0.013 0.228-0.04 0.454-0.103 0.659-0.011 0.034-0.031 0.06-0.054 0.082 8e-3 0.102-0.139 0.193-0.22 0.1-0.355-0.41-0.852-0.574-1.377-0.59-0.264 0.03-0.529 0.045-0.789 0.074-0.319 0.066-0.627 0.167-0.898 0.283-0.188 0.082-0.369 0.175-0.538 0.278-2e-3 3e-3 -5e-3 5e-3 -8e-3 7e-3 -0.541 0.499-0.614 1.27-0.449 1.95m2.464 3.4c-0.061-0.021-0.121-0.045-0.181-0.072-8e-3 -1e-3 -0.016-3e-3 -0.023-5e-3 -0.02 0.014-0.042 0.024-0.069 0.029-0.075 0.012-0.153 0.02-0.233 0.024 0.168 0.025 0.337 0.033 0.506 0.024m1.552 1.877c0.01-7e-3 0.021-0.013 0.034-0.017-0.148-0.204-0.262-0.426-0.33-0.654 0.053 0.226 0.156 0.451 0.296 0.671m13.466-2.801c-8e-3 -0.012-0.014-0.025-0.02-0.038-0.115 0.246-0.267 0.473-0.446 0.676 0.177-0.197 0.334-0.414 0.466-0.638m-1.713-5.104c0.083-5e-3 0.167 0 0.252 0.014 0.037-1e-3 0.076-1e-3 0.114 1e-3 -0.126-0.026-0.248-0.029-0.366-0.015m-2.189-4.107c-0.019 4e-3 -0.036 5e-3 -0.055 2e-3 0.096 0.505 0.151 1.015 0.157 1.523 0.012 5e-3 0.023 0.011 0.032 0.019-0.053-0.514-0.088-1.03-0.134-1.544m-9.125 3.269c-3e-3 0.115-5e-3 0.236-8e-3 0.358 0.179 0.06 0.36 0.119 0.543 0.177-7e-3 -0.07-9e-3 -0.14-0.012-0.203-3e-3 -0.087 0.013-0.176 0.03-0.261 0.017-0.083 0.091-0.146 0.13-0.216 0.011-0.021 0.045-7e-3 0.038 0.016-0.045 0.128-0.016 0.326-5e-3 0.461 8e-3 0.091 0.036 0.184 0.054 0.277 0.286 0.088 0.575 0.172 0.866 0.251-0.05-0.3-0.026-0.634-0.06-0.923-8e-3 -0.067 0.099-0.078 0.115-0.016 0.046 0.174 0.073 0.349 0.097 0.527 0.02 0.153 0.055 0.313 0.068 0.47 0.298 0.078 0.598 0.149 0.898 0.211-0.037-0.201-0.05-0.42-0.047-0.617 2e-3 -0.101 0.15-0.1 0.155 0 0.012 0.213 0.098 0.439 0.084 0.655 0.324 0.063 0.65 0.115 0.975 0.154-0.042-0.266-0.036-0.552-0.058-0.809-8e-3 -0.083 0.119-0.095 0.141-0.019 0.077 0.265 0.128 0.565 0.151 0.853 0.301 0.03 0.6 0.047 0.899 0.051-0.025-0.114-0.02-0.238-0.032-0.354-0.018-0.196-0.037-0.393-0.063-0.588-9e-3 -0.069 0.088-0.102 0.108-0.03 0.052 0.197 0.113 0.391 0.152 0.591 0.024 0.122 0.056 0.256 0.037 0.381 0.262-2e-3 0.522-0.016 0.781-0.043-8e-3 -8e-3 -0.016-0.018-0.021-0.031-0.046-0.112-0.033-0.232-0.033-0.352 0-0.17-0.012-0.341-0.043-0.509-0.018-0.102 0.128-0.146 0.158-0.044 0.039 0.139 0.065 0.278 0.081 0.42 0.018 0.156 0.047 0.338-0.013 0.485-3e-3 7e-3 -7e-3 0.013-0.011 0.019 0.292-0.034 0.58-0.086 0.866-0.154-0.048-0.267-0.02-0.561 7e-3 -0.819 9e-3 -0.09 0.129-0.09 0.138 0 0.026 0.248 0.068 0.506 0.087 0.76 0.226-0.063 0.451-0.138 0.674-0.226-0.051-0.293-0.069-0.601-0.066-0.894 1e-3 -0.128 0.192-0.127 0.198 0 0.01 0.27 0.076 0.539 0.073 0.809 0.252-0.11 0.5-0.237 0.743-0.384-0.087-0.33-0.135-0.669-0.134-1.002-1.234 0.658-2.831 0.839-4.143 0.839-1.58-1e-3 -3.303-0.343-4.65-1.221 0.054 0.312 0.06 0.627 0.052 0.95m8.714-5.631c-0.01 3e-3 -0.02 7e-3 -0.029 0.01 0.021 0.056 0.042 0.114 0.062 0.17 0.024 0.061 0.048 0.123 0.07 0.185-0.031-0.123-0.066-0.244-0.103-0.365m-0.846-1.861c-0.025-4e-3 -0.05-7e-3 -0.074-0.011 0.045 0.06 0.089 0.119 0.132 0.177 0.01-3e-3 0.021-6e-3 0.032-9e-3 -0.03-0.051-0.059-0.105-0.09-0.157m8.957 9.749c0.223-0.214 0.286-0.496 0.315-0.785-0.281 0.026-0.56 0.031-0.836 0.014-0.114 0.107-0.212 0.248-0.277 0.385-0.036 0.076-0.019 0.127 0.036 0.208-5e-3 -9e-3 0.081 0.075 0.083 0.078 0.02 0.013 0.046 0.029 0.072 0.044 0.063 0.016 0.125 0.043 0.183 0.082 0.101 0.033 0.208 0.058 0.3 0.07 0.041-0.025 0.083-0.057 0.124-0.096m-2.128-1.591c0.014 0.014 0.027 0.027 0.041 0.039 0.057 0.022 0.114 0.043 0.17 0.063 3e-3 -0.015 8e-3 -0.03 0.014-0.045-0.074-0.018-0.149-0.036-0.225-0.057m7.351-4.25c-0.071 0.042-0.136 0.047-0.217 0.057-0.05 5e-3 -0.091-0.01-0.123-0.037-0.044-3e-3 -0.095-0.011-0.111-0.01-0.138 4e-3 -0.276 0.012-0.412 0.014-0.414 8e-3 -0.826 0.041-1.238 0.063-0.164 9e-3 -0.328 0.014-0.493 0.018-0.09 0.026-0.185 0.026-0.275 6e-3 -0.706 8e-3 -1.416-0.015-2.12-0.015-1.82 0-3.78 0.421-5.55-0.151-0.17-0.055-0.151-0.352 0.044-0.328 1.308 0.163 2.617 0.114 3.927 0.06-2e-3 -2e-3 -3e-3 -4e-3 -5e-3 -6e-3 -0.549-0.688-1.503-0.932-2.129-0.179-0.067 0.08-0.178-8e-3 -0.16-0.093 0.083-0.404 0.394-0.644 0.773-0.739-0.659-1.682-1.666-2.964-3.257-3.877-1.465-0.84-3.096-1.149-4.752-1.262 0.761 0.459 1.434 1.185 1.875 1.798 0.077 0.106 0.15 0.216 0.222 0.326 0.746 0.131 1.466 0.501 2.047 0.954 0.539 0.421 1.222 1.364 0.77 2.064-0.016 0.026-0.037 0.045-0.059 0.06-0.013 0.166-0.24 0.225-0.347 0.077-0.388-0.534-0.642-1.05-1.374-0.939 0.393 1.24 0.542 2.566 0.456 3.853 0.017 0.012 0.028 0.03 0.032 0.053 0.076 0.547 0.099 1.107 0.128 1.659 0.026 0.465 0.141 0.882 0.24 1.315 0.797-0.884 1.921-1.075 2.933-0.231 0.739 0.616 1.272 1.485 1.476 2.422 0.401-0.334 0.813-0.659 1.218-0.977 0.057-0.044 0.118-0.082 0.18-0.112-0.166-0.281-0.056-0.627 0.211-0.807-0.022-3e-3 -0.043-5e-3 -0.064-8e-3 -1.585-0.235-3.736-1.362-4.238-3.013-0.085-0.241-0.125-0.499-0.106-0.773 6e-3 -0.225 0.04-0.458 0.112-0.697 0.034-0.116 0.23-0.099 0.218 0.029-0.032 0.351-6e-3 0.679 0.066 0.986 0.418 1.495 2.12 2.268 3.664 2.454 2.075 0.25 4.857-1.007 5.452-3.134 0.054-0.194 0.293-0.173 0.37-0.036 0.119-0.073 0.324-7e-3 0.307 0.162-0.2 2.137-2.08 3.605-4.098 3.98 0.091 0.144 0.159 0.315 0.195 0.431 0.057 0.184 0.046 0.391-0.054 0.557-0.195 0.324-0.641 0.387-0.984 0.363-0.034-2e-3 -0.07-7e-3 -0.105-0.011 0.031 0.204-0.028 0.42-0.184 0.57-0.61 0.587-1.335 1.147-2.124 1.477-0.239 1.383-1.332 2.597-2.595 3.14-1.202 0.516-2.452 0.269-3.373-0.559-0.064 1.458-0.618 2.908-1.761 3.861-1.146 0.956-2.543 1.048-3.878 0.517-1.518-0.604-4.563-2.646-3.967-4.558-1.919 0.713-4.119-0.972-4.516-3.014-1.903-0.8-3.037-3.117-3.707-4.929-0.8-2.166-1.138-4.553-1.102-6.857 0.079-5.028 2.95-10.089 7.423-12.434 3.942-2.067 8.904-2.528 13.162-1.251 2.105 0.631 4.074 1.763 5.567 3.386 0.915 0.996 1.633 2.197 2.307 3.364 0.764 1.323 1.385 2.744 1.694 4.244 0.217 1.061 0.383 2.189 0.482 3.269 0.095 1.038 0.081 2.057-0.252 3.046 0.265-8e-3 0.528-0.02 0.793-0.036 0.333-0.022 1.235-0.209 1.47 0.116 0.075 0.105 0.018 0.261-0.084 0.322" fill="#ba7c2b"/>
   </g>
   <g transform="translate(40.271 12.048)">
    <path d="m0 0 0.907-0.227v-0.151h-3.099v0.151l0.907 0.227v9.904h-1.588c0-0.424-0.086-0.817-0.257-1.18-0.172-0.363-0.389-0.675-0.65-0.937h-0.152c0.01 0.13 0.021 0.267 0.031 0.408 9e-3 0.121 0.02 0.249 0.03 0.386 0.01 0.136 0.016 0.274 0.016 0.416 0 0.191-6e-3 0.36-0.016 0.506s-0.021 0.274-0.03 0.386c-0.01 0.12-0.021 0.226-0.031 0.317h6.578c-0.02-0.091-0.035-0.197-0.045-0.317-0.01-0.112-0.018-0.24-0.023-0.386s-8e-3 -0.315-8e-3 -0.506c0-0.142 3e-3 -0.28 8e-3 -0.416 5e-3 -0.137 0.013-0.265 0.023-0.386 0.01-0.141 0.025-0.278 0.045-0.408h-0.151c-0.263 0.262-0.478 0.574-0.65 0.937-0.171 0.363-0.257 0.756-0.257 1.18h-1.588z" fill="#3c3c3b"/>
   </g>
   <g transform="translate(46.244 13.636)">
    <path d="m0 0v-1.588l0.907-0.226v-0.152h-3.099v0.152l0.907 0.226v9.828l-0.907 0.227v0.151h3.099v-0.151l-0.907-0.227v-7.636l3.1 6.2v1.436l-0.908 0.227v0.151h3.1v-0.151l-0.907-0.227v-9.828l0.907-0.226v-0.152h-3.1v0.152l0.908 0.226v7.787z" fill="#3c3c3b"/>
   </g>
   <g transform="translate(59.021,21.876)">
    <path d="m0 0v-9.903h2.646v9.903l-0.908 0.227v0.151h3.1v-0.151l-0.907-0.227v-9.828l0.907-0.227v-0.151h-10.962v0.151l0.907 0.227v9.828l-0.907 0.227v0.151h3.1v-0.151l-0.908-0.227v-9.903h2.647v9.903l-0.908 0.227v0.151h3.1v-0.151z" fill="#3c3c3b"/>
   </g>
   <g transform="translate(67.413 15.48)">
    <path d="m0 0v-3.432l0.907-0.227v-0.151h-3.099v0.151l0.907 0.227v9.828l-0.907 0.227v0.151h3.099v-0.151l-0.907-0.227v-5.746l1.89 4.082c0.202 0.434 0.385 0.792 0.551 1.074 0.167 0.282 0.324 0.507 0.469 0.673 0.147 0.167 0.29 0.282 0.432 0.348 0.14 0.065 0.287 0.098 0.438 0.098 0.04 0 0.08-5e-3 0.121-0.015 0.04-0.01 0.08-0.02 0.121-0.03 0.04-0.01 0.085-0.021 0.136-0.03l0.227-1.135c-0.051 0.011-0.101 0.02-0.152 0.031-0.049 0.01-0.105 0.02-0.166 0.03-0.06 0.01-0.13 0.015-0.212 0.015-0.453 0-0.808-0.101-1.065-0.302-0.258-0.202-0.457-0.454-0.598-0.757l-0.755-1.663 3.25-6.501 0.908-0.227v-0.151h-3.191v0.151l0.908 0.227-2.541 5.08z" fill="#3c3c3b"/>
   </g>
   <g transform="translate(75.578 13.636)">
    <path d="m0 0v-1.588l0.907-0.226v-0.152h-3.099v0.152l0.907 0.226v9.828l-0.907 0.227v0.151h3.099v-0.151l-0.907-0.227v-7.636l3.1 6.2v1.436l-0.908 0.227v0.151h3.1v-0.151l-0.907-0.227v-9.828l0.907-0.226v-0.152h-3.1v0.152l0.908 0.226v7.787z" fill="#3c3c3b"/>
   </g>
   <g transform="translate(84.423 17.113)">
    <path d="m0 0v-5.065l0.907-0.227v-0.151h-3.099v0.151l0.907 0.227v9.828l-0.907 0.227v0.151h3.099v-0.151l-0.907-0.227v-4.46h3.1v4.46l-0.908 0.227v0.151h3.1v-0.151l-0.907-0.227v-9.828l0.907-0.227v-0.151h-3.1v0.151l0.908 0.227v5.065z" fill="#3c3c3b"/>
   </g>
  </g>
 </g>
</svg>
