<?xml version="1.0" encoding="UTF-8"?>
<svg id="drop" width="100" height="50" version="1.1" viewBox="0 0 100 50" xmlns="http://www.w3.org/2000/svg">
 <title>Drop</title>
 <defs>
  <linearGradient id="linearGradient68" x2="1" gradientTransform="matrix(-1.3e-6 -29.274 -29.274 1.3e-6 13.945 47.487)" gradientUnits="userSpaceOnUse">
   <stop stop-color="#8dc63f" offset="0"/>
   <stop stop-color="#00aeef" offset="1"/>
  </linearGradient>
  <linearGradient id="linearGradient48" x2="1" gradientTransform="matrix(-1.3e-6 -29.274 -29.274 1.3e-6 13.945 31.374)" gradientUnits="userSpaceOnUse">
   <stop stop-color="#8dc63f" offset="0"/>
   <stop stop-color="#00aeef" offset="1"/>
  </linearGradient>
  <clipPath id="clipPath78">
   <path d="M 0,33.667 H 65.998 V 0 H 0 Z"/>
  </clipPath>
  <linearGradient id="linearGradient28" x2="1" gradientTransform="matrix(-1.3e-6 -29.273 -29.273 1.3e-6 13.942 31.374)" gradientUnits="userSpaceOnUse">
   <stop stop-color="#8dc63f" offset="0"/>
   <stop stop-color="#00aeef" offset="1"/>
  </linearGradient>
 </defs>
 <g transform="matrix(1.3333 0 0 -1.3333 6.3922 47.639)">
  <path d="m13.945 33.666-9.861-9.86c-2.634-2.634-4.084-6.136-4.084-9.861s1.45-7.226 4.084-9.861c2.634-2.634 6.135-4.084 9.861-4.084 3.725 0 7.227 1.451 9.861 4.084 5.437 5.437 5.437 14.284 0 19.722zm-8.186-27.907c-2.187 2.186-3.391 5.093-3.391 8.186 0 3.092 1.204 5.999 3.391 8.186l8.186 8.186 8.186-8.186c4.514-4.513 4.514-11.858 0-16.372-2.187-2.187-5.094-3.391-8.186-3.391-3.093 0-6 1.204-8.186 3.391m8.186-5.759" fill="url(#linearGradient28)"/>
 </g>
 <g transform="matrix(1.3333 0 0 -1.3333 6.3922 47.639)">
  <path d="m7.51 20.281c-1.719-1.719-2.666-4.004-2.666-6.436 0-2.431 0.947-4.716 2.666-6.434 1.719-1.72 4.004-2.667 6.435-2.667s4.716 0.947 6.435 2.667c1.719 1.718 2.666 4.003 2.666 6.434s-0.947 4.717-2.666 6.436l-6.435 6.435zm1.674-11.197c-1.272 1.271-1.972 2.962-1.972 4.761s0.7 3.489 1.972 4.761l4.761 4.76 4.761-4.76c1.271-1.272 1.972-2.962 1.972-4.761s-0.701-3.49-1.973-4.761c-1.27-1.271-2.962-1.971-4.76-1.971-1.799 0-3.489 0.7-4.761 1.971" fill="url(#linearGradient48)"/>
 </g>
 <g transform="matrix(1.3333 0 0 -1.3333 6.3922 69.124)">
  <path d="m10.646 33.071c-0.893-0.894-1.365-2.033-1.365-3.298 0-1.263 0.472-2.404 1.365-3.297 0.895-0.894 2.035-1.367 3.299-1.367s2.404 0.473 3.298 1.367 1.365 2.034 1.365 3.297c0 1.264-0.471 2.404-1.365 3.298l-3.298 3.298zm1.675-4.92c-0.446 0.445-0.672 0.991-0.672 1.622s0.226 1.177 0.672 1.623l1.624 1.624 1.623-1.624c0.447-0.446 0.673-0.992 0.673-1.623s-0.226-1.177-0.673-1.622c-0.446-0.447-0.992-0.674-1.623-0.674s-1.178 0.227-1.624 0.674" fill="url(#linearGradient68)"/>
 </g>
 <g transform="matrix(1.3333 0 0 -1.3333 6.3922 47.639)">
  <g clip-path="url(#clipPath78)">
   <g transform="translate(34.732 13.677)">
    <path d="m0 0c0.31-0.056 0.759-0.07 1.237-0.07 2.614 0 4.033 1.461 4.033 4.019 0.014 2.235-1.25 3.654-3.836 3.654-0.633 0-1.111-0.057-1.434-0.126zm-1.223 8.376c0.745 0.112 1.631 0.196 2.6 0.196 1.757 0 3.008-0.407 3.837-1.18 0.843-0.773 1.335-1.869 1.335-3.401 0-1.546-0.478-2.81-1.363-3.682-0.886-0.885-2.347-1.363-4.188-1.363-0.872 0-1.602 0.042-2.221 0.113z" fill="#3b3d44"/>
   </g>
   <g transform="translate(44.095 17.738)">
    <path d="m0 0h1.251c1.307 0 2.136 0.717 2.136 1.799 0 1.222-0.886 1.756-2.178 1.77-0.59 0-1.012-0.056-1.209-0.112zm-1.223 4.314c0.619 0.127 1.504 0.197 2.348 0.197 1.306 0 2.149-0.239 2.74-0.773 0.478-0.422 0.745-1.068 0.745-1.799 0-1.251-0.787-2.08-1.785-2.417v-0.042c0.731-0.253 1.166-0.928 1.391-1.911 0.309-1.321 0.534-2.235 0.731-2.6h-1.265c-0.155 0.267-0.365 1.082-0.632 2.262-0.281 1.307-0.787 1.799-1.898 1.841h-1.152v-4.103h-1.223z" fill="#3b3d44"/>
   </g>
   <g transform="translate(51.224 17.387)">
    <path d="m0 0c0-2.023 1.096-3.836 3.021-3.836 1.94 0 3.036 1.784 3.036 3.935 0 1.882-0.984 3.85-3.022 3.85-2.023 0-3.035-1.869-3.035-3.949m7.35 0.155c0-3.26-1.982-4.989-4.399-4.989-2.502 0-4.258 1.939-4.258 4.806 0 3.007 1.869 4.975 4.399 4.975 2.586 0 4.258-1.982 4.258-4.792" fill="#3b3d44"/>
   </g>
   <g transform="translate(61.389 17.499)">
    <path d="m0 0c0.267-0.07 0.604-0.098 1.012-0.098 1.475 0 2.375 0.717 2.375 2.023 0 1.251-0.886 1.856-2.235 1.856-0.534 0-0.941-0.043-1.152-0.099zm-1.223 4.567c0.59 0.099 1.364 0.183 2.347 0.183 1.209 0 2.094-0.281 2.656-0.787 0.52-0.449 0.829-1.138 0.829-1.981 0-0.857-0.253-1.532-0.731-2.024-0.646-0.688-1.7-1.04-2.895-1.04-0.365 0-0.703 0.014-0.983 0.084v-3.794h-1.223z" fill="#3b3d44"/>
   </g>
  </g>
 </g>
</svg>
