<?xml version="1.0" encoding="UTF-8"?>
<svg id="furniture" width="100" height="50" version="1.1" viewBox="0 0 100 50" xmlns="http://www.w3.org/2000/svg">
 <title>Furniture</title>
 <defs>
  <clipPath id="clipPath18">
   <path d="m0 62h136.12v-62h-136.12z"/>
  </clipPath>
 </defs>
 <g transform="matrix(.71994 0 0 -.71994 1 47.513)">
  <g clip-path="url(#clipPath18)">
   <g transform="translate(7.125 38.363)">
    <path d="m0 0c4.921 7.158 13.417 13.08 24.032 17.202 22.108 8.58 51.7 8.58 73.808 0 10.617-4.122 19.112-10.044 24.034-17.202-0.129-0.454-0.801 0.15-1.731 1.077-8.202 8.164-22.04 13.76-33.097 16.555-14.619 3.695-37.6 3.695-52.219 0-11.056-2.795-24.895-8.391-33.097-16.555-0.931-0.927-1.602-1.531-1.73-1.077" fill="#282323"/>
   </g>
   <g transform="translate(18.931 5.9873)">
    <path d="m0 0c0 0.306-0.248 0.554-0.553 0.554s-0.553-0.248-0.553-0.554v-5.434c0-0.305 0.248-0.553 0.553-0.553s0.553 0.248 0.553 0.553z" fill="#282323"/>
   </g>
   <g transform="translate(15.773 6.5918)">
    <path d="m0 0c-0.305-7e-3 -0.545-0.26-0.539-0.563 7e-3 -0.306 0.261-0.546 0.565-0.54 0.042 1e-3 0.066-0.237 0.094-0.529 0.1-1.045 0.23-2.372 2.45-2.514 0.305-0.02 0.567 0.211 0.586 0.516 0.018 0.305-0.213 0.567-0.517 0.586-1.282 0.082-1.361 0.885-1.422 1.517-0.082 0.854-0.151 1.552-1.217 1.527" fill="#282323"/>
   </g>
   <g transform="translate(20.957,5.4893)">
    <path d="m0 0c0.304-7e-3 0.557 0.233 0.564 0.539 7e-3 0.304-0.234 0.557-0.538 0.564-1.067 0.025-1.136-0.673-1.218-1.528-0.061-0.632-0.14-1.434-1.421-1.516-0.305-0.02-0.536-0.282-0.517-0.586 0.019-0.305 0.281-0.536 0.585-0.517 2.221 0.143 2.351 1.47 2.451 2.515 0.028 0.292 0.052 0.53 0.094 0.529" fill="#282323"/>
   </g>
   <g transform="translate(117.21 5.9873)">
    <path d="m0 0c0 0.306-0.248 0.554-0.554 0.554-0.304 0-0.553-0.248-0.553-0.554v-5.434c0-0.305 0.249-0.553 0.553-0.553 0.306 0 0.554 0.248 0.554 0.553z" fill="#282323"/>
   </g>
   <g transform="translate(114.05 6.5918)">
    <path d="m0 0c-0.305-7e-3 -0.546-0.26-0.539-0.563 7e-3 -0.306 0.261-0.546 0.564-0.54 0.042 1e-3 0.066-0.237 0.094-0.529 0.101-1.045 0.231-2.372 2.45-2.514 0.305-0.02 0.568 0.211 0.586 0.516 0.02 0.305-0.213 0.567-0.516 0.586-1.282 0.082-1.362 0.885-1.422 1.517-0.082 0.854-0.151 1.552-1.217 1.527" fill="#282323"/>
   </g>
   <g transform="translate(119.24 5.4893)">
    <path d="m0 0c0.304-7e-3 0.558 0.233 0.563 0.539 7e-3 0.304-0.234 0.557-0.538 0.564-1.066 0.025-1.134-0.673-1.217-1.528-0.06-0.632-0.14-1.434-1.422-1.516-0.304-0.02-0.535-0.282-0.517-0.586 0.02-0.305 0.282-0.536 0.586-0.517 2.221 0.143 2.351 1.47 2.451 2.515 0.029 0.292 0.052 0.53 0.094 0.529" fill="#282323"/>
   </g>
   <g transform="translate(5.9404 22.696)">
    <path d="m0 0c1.691-0.449 3.14-1.066 4.343-1.792 1.819-1.096 3.1-2.451 3.845-3.876 0.778-1.489 0.973-3.051 0.591-4.483-0.135-0.51-0.343-1.001-0.622-1.465l-0.066-0.093c-0.417-0.536-0.569-1.016-0.536-1.408 0.015-0.178 0.069-0.341 0.152-0.487 0.089-0.156 0.212-0.292 0.355-0.404 0.339-0.266 0.801-0.406 1.268-0.367h0.076l105.46 0.028h0.077c0.468-0.039 0.926 0.099 1.263 0.36 0.138 0.108 0.257 0.242 0.343 0.392 0.08 0.14 0.133 0.3 0.146 0.472 0.033 0.393-0.12 0.873-0.542 1.414l-0.064 0.093c-0.279 0.464-0.487 0.955-0.622 1.465-0.383 1.432-0.189 2.994 0.591 4.483 0.744 1.425 2.026 2.78 3.845 3.876 1.202 0.726 2.651 1.341 4.343 1.792l0.468-1.779c-1.508-0.402-2.795-0.949-3.86-1.59-1.523-0.918-2.577-2.018-3.168-3.151-0.559-1.069-0.704-2.17-0.44-3.164 0.086-0.327 0.22-0.645 0.398-0.948 0.707-0.928 0.957-1.836 0.889-2.642-0.038-0.453-0.175-0.868-0.384-1.235-0.206-0.357-0.485-0.67-0.813-0.927-0.693-0.542-1.618-0.826-2.545-0.748l-105.31-0.028c-0.926-0.077-1.854 0.211-2.55 0.755-0.333 0.26-0.616 0.576-0.823 0.938-0.213 0.373-0.352 0.793-0.39 1.249-0.068 0.808 0.18 1.713 0.883 2.636 0.178 0.304 0.312 0.623 0.399 0.95 0.264 0.994 0.119 2.095-0.44 3.164-0.592 1.133-1.646 2.233-3.168 3.151-1.065 0.641-2.352 1.188-3.86 1.59z" fill="#282323"/>
   </g>
   <g transform="translate(6.668 22.367)">
    <path d="m0 0c-0.561 0.349-1.146 0.401-1.613 0.575-1.969 0.737-2.829 2.706-2.827 5.04 1e-3 3.002 1.46 5.459 4.711 5.459 0.983-6e-3 1.545-0.189 1.885-0.323 0.506-0.2 0.959 0.048 1.128 0.488 0.289 0.76-0.097 1.125-0.76 1.317-0.748 0.217-1.677 0.289-2.327 0.29-4.377 3e-3 -6.851-3.117-6.865-7.34 9e-3 -3.324 1.477-5.81 4.2-6.685 0.778-0.251 1.787-0.297 3.2-0.88-0.292 0.551-0.922 1.456-0.732 2.059" fill="#282323"/>
   </g>
   <g transform="translate(129.46 22.367)">
    <path d="m0 0c0.562 0.349 1.146 0.401 1.613 0.575 1.969 0.737 2.829 2.706 2.826 5.04-1e-3 3.002-1.46 5.459-4.709 5.459-0.667-4e-3 -1.382-0.089-2.017-0.33-1.462-0.556-4.255-2.509-5.025-4.107-0.265 0.363-0.577 0.977 0.037 1.799 0.889 1.191 2.665 2.8 4.729 3.8 0.839 0.407 2.124 0.61 2.349 0.61 4.378 1e-3 6.851-3.117 6.865-7.34-0.01-3.324-1.477-5.81-4.199-6.685-0.779-0.251-1.788-0.297-3.202-0.88 0.294 0.551 0.922 1.456 0.733 2.059" fill="#282323"/>
   </g>
   <g transform="translate(27.659 38.376)">
    <path d="m0 0h12.262v-14.697h-3.234v11.779h-5.795v-11.779h-3.233z" fill="#282323"/>
   </g>
   <g transform="translate(54.264 38.376)">
    <path d="m0 0h3.506l-5.648-11.359c-1.28-2.561-2.75-3.569-4.808-3.569-1.259 0-2.246 0.336-3.17 0.861l1.26 2.372c0.588-0.357 1.175-0.483 1.742-0.483 0.588 0 1.26 0.274 1.848 1.176l-5.879 11.002h3.611l3.99-7.769z" fill="#282323"/>
   </g>
   <g transform="translate(69.763 27.564)">
    <path d="m0 0c2.372 0 3.947 1.385 3.947 3.59 0 2.162-1.575 3.569-3.947 3.569zm-3.234 7.159c-2.372 0-3.968-1.407-3.968-3.569 0-2.205 1.596-3.59 3.968-3.59zm0-11.632v1.596c-4.536 0-7.286 2.814-7.286 6.529 0 3.675 2.772 6.384 7.286 6.384v1.343h3.234v-1.343c4.492 0 7.285-2.709 7.285-6.404s-2.75-6.509-7.285-6.509v-1.596z" fill="#282323"/>
   </g>
   <g transform="translate(92.336 31.027)">
    <path d="m0 0c0 2.52-1.848 4.619-4.451 4.619-2.604 0-4.409-2.057-4.409-4.619 0-2.52 1.847-4.619 4.451-4.619 2.603 0 4.409 2.057 4.409 4.619m-12.241 0c0 4.178 3.297 7.601 7.832 7.601s7.789-3.381 7.789-7.601c0-4.179-3.296-7.601-7.831-7.601s-7.79 3.381-7.79 7.601" fill="#85c127"/>
   </g>
   <g transform="translate(99.646 38.376)">
    <path d="m0 0h3.233v-6.425l5.963 6.425h3.906l-5.984-6.236 6.256-8.461h-3.884l-4.555 6.257-1.702-1.764v-4.493h-3.233z" fill="#85c127"/>
   </g>
  </g>
 </g>
</svg>
