<?xml version="1.0" encoding="UTF-8"?>
<svg id="winter" width="100" height="50" version="1.1" viewBox="0 0 100 50" xmlns="http://www.w3.org/2000/svg">
 <title>Winter kancelaria</title>
 <defs>
  <clipPath id="clipPath18">
   <path d="M 0,19.761 H 73.616 V 0 H 0 Z"/>
  </clipPath>
 </defs>
 <g transform="matrix(1.3333 0 0 -1.3333 .72736 38.76)">
  <g clip-path="url(#clipPath18)">
   <g transform="translate(26.204 14.818)">
    <path d="m0 0h-2.295v-2.259h2.295c0.765 0 1.154 0.377 1.154 1.117 0 0.766-0.389 1.142-1.154 1.142m-0.219 1.385c0.741 0 1.118 0.352 1.118 1.069 0 0.716-0.377 1.068-1.118 1.068h-2.076v-2.137zm0.182 3.558c1.567 0 2.491-0.813 2.491-2.271 0-0.862-0.304-1.469-0.924-1.834v-0.048c0.826-0.292 1.24-0.997 1.24-2.102 0-1.494-1.094-2.368-2.733-2.368h-3.438c-0.304 0-0.425 0.109-0.425 0.413v7.798c0 0.303 0.121 0.412 0.425 0.412z" fill="#40434c"/>
   </g>
   <g transform="translate(37.893 19.761)">
    <path d="m0 0c0.303 0 0.413-0.109 0.413-0.413v-7.797c0-0.304-0.11-0.414-0.413-0.414h-0.692c-0.304 0-0.413 0.11-0.413 0.414v3.558c0 0.62 0.024 1.093 0.06 1.421 0.037 0.328 0.109 0.777 0.231 1.36h-0.049c-0.279-0.704-0.68-1.469-1.214-2.307l-2.781-4.239c-0.086-0.134-0.219-0.207-0.413-0.207h-0.705c-0.304 0-0.425 0.11-0.425 0.414v7.797c0 0.304 0.121 0.413 0.425 0.413h0.692c0.304 0 0.413-0.109 0.413-0.413v-3.522c0-0.62-0.012-1.093-0.048-1.434-0.037-0.339-0.122-0.801-0.243-1.384h0.048c0.304 0.765 0.717 1.567 1.263 2.405l2.733 4.154c0.085 0.133 0.219 0.194 0.401 0.194z" fill="#40434c"/>
   </g>
   <g transform="translate(47.443 19.761)">
    <path d="m0 0c0.304 0 0.425-0.109 0.425-0.413v-7.797c0-0.304-0.121-0.414-0.425-0.414h-0.692c-0.304 0-0.413 0.11-0.413 0.414v3.242h-3.595v-3.242c0-0.304-0.11-0.414-0.413-0.414h-0.693c-0.303 0-0.425 0.11-0.425 0.414v7.797c0 0.304 0.122 0.413 0.425 0.413h0.693c0.303 0 0.413-0.109 0.413-0.413v-3.133h3.595v3.133c0 0.304 0.109 0.413 0.413 0.413z" fill="#40434c"/>
   </g>
   <g transform="translate(56.216 19.761)">
    <path d="m0 0c0.304 0 0.413-0.109 0.413-0.413v-0.595c0-0.304-0.109-0.413-0.413-0.413h-2.089v-6.789c0-0.304-0.109-0.414-0.413-0.414h-0.705c-0.303 0-0.413 0.11-0.413 0.414v6.789h-2.088c-0.304 0-0.414 0.109-0.414 0.413v0.595c0 0.304 0.11 0.413 0.414 0.413z" fill="#40434c"/>
   </g>
   <g transform="translate(64.102 19.761)">
    <path d="m0 0c0.304 0 0.425-0.109 0.425-0.413v-0.595c0-0.304-0.121-0.413-0.425-0.413h-3.716v-2.125h3.145c0.304 0 0.413-0.11 0.413-0.413v-0.596c0-0.303-0.109-0.413-0.413-0.413h-3.145v-2.235h3.85c0.303 0 0.413-0.109 0.413-0.412v-0.595c0-0.304-0.11-0.414-0.413-0.414h-4.956c-0.303 0-0.425 0.11-0.425 0.414v7.797c0 0.304 0.122 0.413 0.425 0.413z" fill="#40434c"/>
   </g>
   <g transform="translate(70.604 15.559)">
    <path d="m0 0c0.887 0 1.409 0.51 1.409 1.385 0 0.874-0.522 1.397-1.409 1.397h-1.968v-2.782zm0.146 4.203c1.761 0 2.867-1.069 2.867-2.818s-1.106-2.806-2.867-2.806h-2.114v-2.587c0-0.304-0.109-0.413-0.413-0.413h-0.692c-0.303 0-0.425 0.109-0.425 0.413v7.798c0 0.303 0.122 0.413 0.425 0.413z" fill="#40434c"/>
   </g>
   <g transform="translate(25.641 2.001)">
    <path d="m0 0c0.066-0.125 0.042-0.175-0.091-0.175h-0.249c-0.166 0-0.2 0.025-0.258 0.133l-0.631 1.295c-0.166 0.356-0.398 0.507-0.805 0.507h-0.954v-1.778c0-0.124-0.033-0.157-0.158-0.157h-0.249c-0.125 0-0.158 0.033-0.158 0.157v3.96c0 0.1 0.05 0.15 0.158 0.15h0.249c0.108 0 0.158-0.05 0.158-0.15v-1.669h0.963l1.328 1.703c0.074 0.108 0.124 0.116 0.299 0.116h0.232c0.149 0 0.183-0.059 0.1-0.174l-1.403-1.752c0.299-0.074 0.539-0.299 0.722-0.672z" fill="#40434c"/>
   </g>
   <g transform="translate(29.867 3.7432)">
    <path d="m0 0c-0.498 0.051-0.88 0.075-1.146 0.075-0.871 0-1.195-0.241-1.195-0.813 0-0.565 0.258-0.83 1.179-0.83 0.423 0 0.755 0.041 1.004 0.132 0.133 0.059 0.158 0.083 0.158 0.241zm-1.104 2.475c1.229 0 1.66-0.64 1.66-1.645v-2.174c0-0.291-0.066-0.374-0.299-0.473-0.332-0.142-0.788-0.216-1.378-0.216-0.689 0-1.153 0.099-1.411 0.315-0.257 0.208-0.382 0.531-0.382 0.972 0 0.937 0.507 1.286 1.827 1.286 0.224 0 0.589-0.024 1.087-0.083v0.382c0 0.722-0.282 1.138-1.121 1.138-0.547 0-0.938-0.2-1.162-0.607-0.058-0.083-0.133-0.108-0.207-0.066l-0.199 0.083c-0.108 0.041-0.133 0.107-0.083 0.216 0.307 0.581 0.863 0.872 1.668 0.872" fill="#40434c"/>
   </g>
   <g transform="translate(35.653 6.0928)">
    <path d="m0 0c0.1 0 0.149-0.05 0.149-0.149v-3.968c0-0.1-0.049-0.15-0.149-0.15h-0.266c-0.099 0-0.149 0.05-0.149 0.15v1.785h-2.399v-1.785c0-0.1-0.05-0.15-0.149-0.15h-0.266c-0.1 0-0.149 0.05-0.149 0.15v3.968c0 0.099 0.049 0.149 0.149 0.149h0.266c0.099 0 0.149-0.05 0.149-0.149v-1.669h2.399v1.669c0 0.099 0.05 0.149 0.149 0.149z" fill="#40434c"/>
   </g>
   <g transform="translate(41.623 2.3408)">
    <path d="m0 0c0.125 0 0.149-0.041 0.149-0.149v-1.371c0-0.124-0.024-0.148-0.149-0.148h-0.241c-0.099 0-0.149 0.049-0.149 0.148v1.005h-3.354c-0.099 0-0.149 0.05-0.149 0.15v3.968c0 0.099 0.05 0.149 0.149 0.149h0.266c0.1 0 0.149-0.05 0.149-0.149v-3.603h2.316v3.603c0 0.108 0.025 0.149 0.15 0.149h0.257c0.1 0 0.149-0.05 0.149-0.149v-3.603z" fill="#40434c"/>
   </g>
   <g transform="translate(46.272 4.5322)">
    <path d="m0 0c0 0.756-0.448 1.203-1.287 1.203-0.83 0-1.278-0.447-1.278-1.203v-0.291h2.565zm-3.121-0.066c0 1.103 0.639 1.752 1.834 1.752 1.204 0 1.843-0.682 1.843-1.719v-0.457c0-0.157-0.083-0.233-0.249-0.233h-2.872v-0.48c0-0.723 0.44-1.138 1.245-1.138 0.614 0 1.046 0.233 1.303 0.689 0.067 0.091 0.15 0.108 0.241 0.058l0.174-0.092c0.108-0.057 0.125-0.132 0.059-0.24-0.332-0.597-0.922-0.896-1.777-0.896-1.203 0-1.801 0.638-1.801 1.676z" fill="#40434c"/>
   </g>
   <g transform="translate(51.785 6.0928)">
    <path d="m0 0c0.1 0 0.149-0.05 0.149-0.149v-3.968c0-0.1-0.049-0.15-0.149-0.15h-0.266c-0.099 0-0.149 0.05-0.149 0.15v3.594h-1.876v-1.021c0-1.02-0.116-1.727-0.349-2.125-0.24-0.398-0.44-0.548-0.78-0.706-0.083-0.033-0.141-8e-3 -0.183 0.075l-0.124 0.257c-0.042 0.075-0.017 0.125 0.058 0.166 0.208 0.1 0.282 0.133 0.457 0.357 0.091 0.108 0.157 0.241 0.207 0.399 0.091 0.299 0.174 0.871 0.174 1.61v1.362c0 0.108 0.042 0.149 0.15 0.149z" fill="#40434c"/>
   </g>
   <g transform="translate(55.09 5.5947)">
    <path d="m0 0c-0.54 0-0.88-0.34-0.88-0.871 0-0.524 0.34-0.856 0.88-0.856h1.444v1.727zm1.851 0.498c0.1 0 0.149-0.05 0.149-0.149v-3.968c0-0.108-0.041-0.15-0.149-0.15h-0.257c-0.125 0-0.15 0.042-0.15 0.15v1.387h-1.353l-0.921-1.404c-0.066-0.124-0.108-0.133-0.274-0.133h-0.241c-0.174 0-0.199 0.058-0.108 0.183l0.972 1.428c-0.606 0.125-0.98 0.597-0.98 1.287 0 0.854 0.531 1.369 1.395 1.369z" fill="#40434c"/>
   </g>
   <g transform="translate(61.939,4.54)">
    <path d="m0 0c0 0.772-0.415 1.162-1.237 1.162-0.373 0-0.705-0.049-0.996-0.157-0.141-0.058-0.158-0.091-0.158-0.224v-2.814c0.407-0.192 0.806-0.291 1.204-0.291 0.789 0 1.187 0.39 1.187 1.162zm-1.17 1.678c1.153 0 1.726-0.557 1.726-1.66v-1.196c0-1.104-0.564-1.652-1.702-1.652-0.356 0-0.771 0.092-1.245 0.282v-1.843c0-0.099-0.049-0.149-0.149-0.149h-0.266c-0.099 0-0.149 0.05-0.149 0.149v5.363c0 0.265 0.066 0.356 0.332 0.465 0.407 0.157 0.888 0.241 1.453 0.241" fill="#40434c"/>
   </g>
   <g transform="translate(64.704 6.0928)">
    <path d="m0 0c0.1 0 0.149-0.05 0.149-0.149v-2.4c0-0.306-0.033-0.631-0.091-0.971h0.017c0.124 0.233 0.265 0.457 0.431 0.681l2.092 2.765c0.033 0.049 0.084 0.074 0.141 0.074h0.266c0.099 0 0.149-0.05 0.149-0.149v-3.968c0-0.1-0.05-0.15-0.149-0.15h-0.266c-0.099 0-0.149 0.05-0.149 0.15v2.349c0 0.266 0.033 0.606 0.099 1.012h-0.025c-0.074-0.148-0.232-0.381-0.456-0.705l-2.059-2.723c-0.033-0.058-0.083-0.083-0.149-0.083h-0.266c-0.099 0-0.149 0.05-0.149 0.15v3.968c0 0.099 0.05 0.149 0.149 0.149z" fill="#40434c"/>
   </g>
   <g transform="translate(71.071 5.5947)">
    <path d="m0 0c-0.539 0-0.879-0.34-0.879-0.871 0-0.524 0.34-0.856 0.879-0.856h1.445v1.727zm1.852 0.498c0.099 0 0.149-0.05 0.149-0.149v-3.968c0-0.108-0.042-0.15-0.149-0.15h-0.258c-0.124 0-0.149 0.042-0.149 0.15v1.387h-1.353l-0.922-1.404c-0.066-0.124-0.107-0.133-0.274-0.133h-0.24c-0.175 0-0.199 0.058-0.108 0.183l0.972 1.428c-0.607 0.125-0.981 0.597-0.981 1.287 0 0.854 0.531 1.369 1.395 1.369z" fill="#40434c"/>
   </g>
   <g transform="translate(8.7129,1.9209)">
    <path d="m0 0v17.121c0 0.358-0.291 0.649-0.649 0.649-0.359 0-0.65-0.291-0.65-0.649v-17.121c0-0.359 0.291-0.65 0.65-0.65 0.358 0 0.649 0.291 0.649 0.65" fill="#70a8e2"/>
   </g>
   <g transform="translate(10.821 17.972)">
    <path d="m0 0c-0.254 0.253-0.665 0.253-0.919 0l-1.838-1.839-1.839 1.839c-0.254 0.253-0.665 0.253-0.919 0-0.254-0.254-0.254-0.665 0-0.918l2.273-2.274c0.133-0.133 0.31-0.195 0.485-0.189 0.174-6e-3 0.351 0.056 0.484 0.189l2.273 2.274c0.253 0.253 0.253 0.664 0 0.918" fill="#70a8e2"/>
   </g>
   <g transform="translate(5.3057,2.9893)">
    <path d="m0 0c0.254-0.253 0.665-0.253 0.919 0l1.839 1.839 1.838-1.839c0.254-0.253 0.665-0.253 0.919 0 0.254 0.254 0.254 0.665 0 0.919l-2.273 2.273c-0.133 0.133-0.31 0.196-0.484 0.189-0.175 7e-3 -0.352-0.056-0.485-0.189l-2.273-2.273c-0.253-0.254-0.253-0.665 0-0.919" fill="#70a8e2"/>
   </g>
   <g transform="translate(15.802 6.7627)">
    <path d="m0 0-14.828 8.561c-0.31 0.179-0.707 0.073-0.887-0.238-0.179-0.31-0.073-0.708 0.238-0.887l14.828-8.56c0.31-0.18 0.707-0.073 0.887 0.237 0.179 0.311 0.073 0.708-0.238 0.887" fill="#70a8e2"/>
   </g>
   <g transform="translate(2.9541 16.614)">
    <path d="m0 0c-0.346-0.092-0.552-0.449-0.459-0.795l0.673-2.512-2.512-0.673c-0.347-0.093-0.552-0.449-0.459-0.796 0.092-0.347 0.449-0.552 0.795-0.459l3.105 0.832c0.182 0.049 0.325 0.171 0.406 0.325 0.093 0.147 0.127 0.332 0.078 0.514l-0.831 3.105c-0.093 0.347-0.449 0.552-0.796 0.459" fill="#70a8e2"/>
   </g>
   <g transform="translate(13.172 4.3467)">
    <path d="m0 0c0.346 0.094 0.552 0.449 0.459 0.796l-0.673 2.512 2.512 0.673c0.347 0.093 0.552 0.449 0.459 0.796-0.092 0.346-0.448 0.552-0.795 0.459l-3.105-0.832c-0.183-0.049-0.325-0.17-0.406-0.325-0.093-0.148-0.128-0.332-0.079-0.514l0.832-3.105c0.093-0.347 0.449-0.552 0.796-0.46" fill="#70a8e2"/>
   </g>
   <g transform="translate(15.152 15.324)">
    <path d="m0 0-14.828-8.561c-0.31-0.179-0.417-0.576-0.237-0.887 0.179-0.31 0.576-0.417 0.887-0.237l14.827 8.56c0.311 0.179 0.417 0.577 0.238 0.887-0.179 0.311-0.577 0.417-0.887 0.238" fill="#70a8e2"/>
   </g>
   <g transform="translate(.1968 9.1235)">
    <path d="m0 0c-0.093-0.347 0.113-0.703 0.459-0.796l2.512-0.673-0.673-2.512c-0.092-0.347 0.113-0.702 0.459-0.796 0.347-0.092 0.703 0.113 0.796 0.46l0.832 3.105c0.049 0.182 0.014 0.366-0.079 0.514-0.081 0.155-0.223 0.276-0.406 0.325l-3.105 0.832c-0.346 0.093-0.702-0.113-0.795-0.459" fill="#70a8e2"/>
   </g>
   <g transform="translate(15.929 11.838)">
    <path d="m0 0c0.093 0.347-0.112 0.703-0.459 0.796l-2.512 0.673 0.673 2.511c0.093 0.347-0.113 0.704-0.459 0.796-0.347 0.093-0.703-0.112-0.796-0.459l-0.832-3.105c-0.049-0.182-0.014-0.367 0.079-0.514 0.081-0.155 0.223-0.277 0.406-0.325l3.105-0.832c0.347-0.093 0.703 0.112 0.795 0.459" fill="#70a8e2"/>
   </g>
  </g>
 </g>
</svg>
