<?xml version="1.0" encoding="UTF-8"?>
<svg id="flower" width="33" height="36" version="1.1" viewBox="0 0 33 36" xmlns="http://www.w3.org/2000/svg">
 <title>Flower</title>
 <g transform="matrix(.077417 0 0 -.077377 1.6359 35.286)" stroke-width="10.003">
  <g transform="scale(.1)" stroke-width="10.003">
   <path fill="#fff" d="m0 1920c0-1060.3 859.73-1920 1920-1920 0 1060.3-859.73 1920-1920 1920zm1920 1600c294.4 0 533.33-238.93 533.33-533.33s-238.93-533.34-533.33-533.34-533.33 238.94-533.33 533.34 238.93 533.33 533.33 533.33zm-1364.3-1013.3c0-294.4 238.93-533.34 533.34-533.34 112 0 216.53 35.2 301.86 93.87l-4.26-40.53c0-294.4 238.93-533.34 533.33-533.34s533.33 238.94 533.33 533.34l-4.26 40.53c86.4-59.73 189.86-93.87 301.86-93.87 294.4 0 533.34 238.94 533.34 533.34 0 212.26-124.8 394.66-305.07 480 179.2 85.33 305.07 267.73 305.07 480 0 294.4-238.94 533.33-533.34 533.33-112 0-216.53-35.2-301.86-93.87l4.26 40.54c0 294.4-238.93 533.33-533.33 533.33s-533.33-238.93-533.33-533.33l4.26-40.54c-86.4 59.74-189.86 93.87-301.86 93.87-294.4 0-533.34-238.93-533.34-533.33 0-212.27 124.8-394.67 305.07-480-180.27-85.34-305.07-267.74-305.07-480zm1364.3-2506.7c1060.3 0 1920 859.73 1920 1920-1060.3 0-1920-859.73-1920-1920" stroke-width="10.003"/>
  </g>
 </g>
</svg>
