<?xml version="1.0" encoding="UTF-8"?>
<svg id="mail" width="33" height="36" version="1.1" viewBox="0 0 33 36" xmlns="http://www.w3.org/2000/svg">
 <title>Mail</title>
 <defs>
  <clipPath id="clipPath18">
   <path d="M 0,31.536 H 44.3 V 0 H 0 Z"/>
  </clipPath>
 </defs>
 <g transform="matrix(.6659 0 0 -.6659 1.9437 28.582)">
  <g clip-path="url(#clipPath18)">
   <g transform="translate(41.748,31.536)">
    <path d="m0 0c-0.233-0.295-0.395-0.544-0.6-0.75-5.627-5.671-11.254-11.341-16.888-17.004-1.514-1.52-2.647-1.529-4.132-0.028-5.621 5.676-11.234 11.359-16.849 17.041-0.193 0.195-0.373 0.403-0.683 0.741z" fill="#27273e"/>
   </g>
   <g transform="translate(0,28.379)">
    <path d="m0 0c4.177-4.033 8.494-8.203 12.903-12.46-4.353-4.45-8.547-8.736-12.903-13.189z" fill="#27273e"/>
   </g>
   <g transform="translate(2.5156)">
    <path d="m0 0c4.384 4.485 8.631 8.831 12.919 13.218 1.957-1.907 3.537-4.191 6.643-4.24 3.117-0.05 4.737 2.198 6.744 4.135 4.246-4.343 8.448-8.643 12.816-13.113z" fill="#27273e"/>
   </g>
   <g transform="translate(44.3,2.5869)">
    <path d="m0 0c-4.387 4.484-8.581 8.771-12.85 13.135 4.347 4.198 8.636 8.342 12.85 12.412z" fill="#27273e"/>
   </g>
  </g>
 </g>
</svg>
