<?xml version="1.0" encoding="UTF-8"?>
<svg id="SVGRoot" width="33px" height="36px" version="1.1" viewBox="0 0 33 36" xmlns="http://www.w3.org/2000/svg">
 <title>Palette</title>
 <defs>
  <clipPath id="clipPath20">
   <path d="m0 4h150v150h-150z"/>
  </clipPath>
 </defs>
 <g transform="matrix(.22225 0 0 -.22225 .52074 36.288)" stroke-width=".5999">
  <g clip-path="url(#clipPath20)" stroke-width=".5999">
   <path fill="#fff" d="m71.988 154c-40 0-71.988-31.988-71.988-71.988s31.988-71.992 71.988-71.992c6.4101 0 11.992 5.5821 11.992 11.992 0 3.1992-0.7813 5.5781-3.1992 8.0078-1.5625 2.3789-3.1602 4.7618-3.1602 7.961 0 6.4101 5.5781 12.039 11.988 12.039h14.371c22.43 0 40 17.57 40 40 0 35.192-31.992 63.98-71.992 63.98zm-43.977-71.988c-6.4101 0-11.992 5.5781-11.992 11.988 0 6.41 5.5821 11.988 11.992 11.988 6.3985 0 11.988-5.578 11.988-11.988 0-6.4102-5.5898-11.988-11.988-11.988zm23.977 31.988c-6.3985 0-11.988 5.59-11.988 11.988 0 6.41 5.5898 11.992 11.988 11.992 6.4101 0 11.992-5.582 11.992-11.992 0-6.398-5.5821-11.988-11.992-11.988zm40 0c-6.3985 0-11.988 5.59-11.988 11.988 0 6.41 5.5898 11.992 11.988 11.992 6.4101 0 11.992-5.582 11.992-11.992 0-6.398-5.5816-11.988-11.992-11.988zm24.032-31.988c-6.411 0-12.04 5.5781-12.04 11.988 0 6.41 5.629 11.988 12.04 11.988 6.359 0 11.992-5.578 11.992-11.988 0-6.4102-5.633-11.988-11.992-11.988z" stroke-width=".5999"/>
  </g>
 </g>
</svg>
