<?xml version="1.0" encoding="UTF-8"?>
<svg id="twitter" width="33" height="36" version="1.1" viewBox="0 0 33 36" xmlns="http://www.w3.org/2000/svg">
 <title>Twitter</title>
 <defs>
  <clipPath id="clipPath18">
   <path d="M 0,37.148 H 45.71 V 0 H 0 Z"/>
  </clipPath>
 </defs>
 <g transform="matrix(.67298 0 0 -.67298 1.119 30.453)">
  <g clip-path="url(#clipPath18)">
   <g transform="translate(41.031,27.898)">
    <path d="m0 0c0.592-13.19-9.244-27.897-26.656-27.897-5.295 0-10.225 1.552-14.375 4.214 4.975-0.588 9.941 0.791 13.884 3.883-4.105 0.076-7.569 2.785-8.759 6.513 1.467-0.28 2.912-0.2 4.233 0.16-4.511 0.905-7.623 4.969-7.522 9.314 1.263-0.702 2.711-1.125 4.25-1.173-4.178 2.79-5.36 8.305-2.903 12.521 4.624-5.675 11.534-9.409 19.328-9.8-1.367 5.868 3.082 11.516 9.135 11.516 2.698 0 5.135-1.139 6.846-2.962 2.135 0.421 4.143 1.202 5.954 2.277-0.7-2.192-2.186-4.03-4.122-5.188 1.895 0.226 3.703 0.73 5.386 1.476-1.257-1.882-2.848-3.534-4.679-4.854" fill="#27273e"/>
   </g>
  </g>
 </g>
</svg>
