<?xml version="1.0" encoding="UTF-8"?>
<svg id="vkontakte" width="33" height="36" version="1.1" viewBox="0 0 33 36" xmlns="http://www.w3.org/2000/svg">
 <title>VKontakte</title>
 <defs>
  <clipPath id="clipPath18">
   <path d="M 0,28.889 H 51.11 V 0 H 0 Z"/>
  </clipPath>
 </defs>
 <g transform="matrix(.61036 0 0 -.61036 .96658 27.156)">
  <g clip-path="url(#clipPath18)">
   <g transform="translate(45.582,8.9531)">
    <path d="m0 0c4.098-3.77 4.948-5.591 5.08-5.827 0 0 1.704-2.953-1.888-2.98l-6.812-0.104c-1.462-0.29-3.406 1.029-3.406 1.029-2.553 1.74-4.949 6.247-6.811 5.666 0 0-1.916-0.607-1.861-4.668 0.025-0.87-0.4-1.344-0.4-1.344s-0.477-0.501-1.411-0.579h-3.059c-6.731-0.421-12.666 5.721-12.666 5.721s-6.494 6.643-12.19 19.903c-0.371 0.87 0.028 1.291 0.028 1.291s0.4 0.502 1.517 0.502l7.291 0.051c0.693-0.104 1.172-0.474 1.172-0.474s0.426-0.288 0.639-0.841c1.197-2.954 2.74-5.643 2.74-5.643 2.662-5.431 4.471-6.353 5.51-5.799 0 0 1.357 0.818 1.064 7.381-0.107 2.375-0.771 3.454-0.771 3.454-0.614 0.818-1.758 1.056-2.263 1.133-0.4 0.052 0.267 1.003 1.144 1.425 1.305 0.633 3.621 0.657 6.361 0.633 2.155-0.027 2.767-0.158 3.592-0.343 2.53-0.606 1.675-2.926 1.675-8.514 0-1.794-0.344-4.298 0.959-5.114 0.558-0.369 1.943-0.053 5.348 5.695 0 0 1.599 2.742 2.847 5.931 0.213 0.581 0.664 0.819 0.664 0.819s0.428 0.235 1.011 0.157l7.666 0.054c2.317 0.289 2.686-0.765 2.686-0.765 0.399-1.079-0.851-3.611-3.991-7.75-5.163-6.806-5.723-6.174-1.465-10.1" fill="#27273e"/>
   </g>
  </g>
 </g>
</svg>
