<?xml version="1.0" encoding="UTF-8"?>
<svg id="logo" width="103" height="55" version="1.1" viewBox="0 0 103 55" xmlns="http://www.w3.org/2000/svg">
 <title>Workadium_logo</title>
 <defs>
  <clipPath id="clipPath22">
   <path d="M 0,51.691 H 98.074 V 0 H 0 Z"/>
  </clipPath>
 </defs>
 <g transform="matrix(1.0298 0 0 -1.0253 .99985 53.939)" stroke-width="1.2976">
  <g transform="translate(39.412 26.594)">
   <path d="m0 0 17.043 20.677-26.427 4.42zm-3.212 20.009 12.762-2.135-8.23-9.983z" fill="#ed1e79"/>
  </g>
  <g clip-path="url(#clipPath22)" stroke-width="1.2976">
   <g transform="translate(17.243 17.817)">
    <path d="m0 0c-3.248 2.932-8.273 2.674-11.205-0.574-2.931-3.248-2.673-8.275 0.575-11.205 3.248-2.932 8.274-2.674 11.205 0.574s2.673 8.274-0.575 11.205m-13.31-14.749c-4.885 4.408-5.273 11.97-0.864 16.854 4.408 4.886 11.969 5.273 16.854 0.866 4.885-4.408 5.273-11.97 0.864-16.856-4.408-4.885-11.969-5.273-16.854-0.864" fill="#fcee21"/>
   </g>
   <g transform="translate(45.786 10.829)">
    <path d="m0 0 18.765 15.765 2.572-3.062-18.765-15.766z" fill="#39b54a"/>
   </g>
   <g transform="translate(98.074 17.507)">
    <path d="m0 0-1.822 3.56-9.128-4.673-4.673 9.128-3.56-1.823 4.673-9.128-9.128-4.673 1.824-3.56 9.126 4.673 4.673-9.127 3.561 1.822-4.673 9.128z" fill="#5dd1f9"/>
   </g>
  </g>
 </g>
</svg>
