<?xml version="1.0" encoding="UTF-8"?>
<svg id="workadium" width="100" height="75" version="1.1" viewBox="0 0 100 75" xmlns="http://www.w3.org/2000/svg">
 <title>Workadium</title>
 <defs>
  <clipPath id="clipPath22">
   <path d="M 0,73.134 H 98.074 V 0 H 0 Z"/>
  </clipPath>
 </defs>
 <g transform="matrix(.99924 0 0 -.99924 40.577 26.038)">
  <path d="m0 0 17.043 20.677-26.427 4.419zm-3.212 20.008 12.762-2.135-8.23-9.983z" fill="#ed1e79"/>
 </g>
 <g transform="matrix(.99924 0 0 -.99924 1.1953 74.039)">
  <g clip-path="url(#clipPath22)">
   <g transform="translate(17.243 39.26)">
    <path d="m0 0c-3.248 2.932-8.273 2.674-11.205-0.574-2.931-3.248-2.673-8.275 0.575-11.205 3.248-2.932 8.274-2.674 11.205 0.574s2.673 8.274-0.575 11.205m-13.31-14.749c-4.885 4.408-5.273 11.97-0.864 16.854 4.408 4.886 11.969 5.273 16.854 0.866 4.885-4.408 5.273-11.97 0.864-16.856-4.408-4.885-11.969-5.273-16.854-0.864" fill="#fcee21"/>
   </g>
   <g transform="translate(45.786 32.272)">
    <path d="m0 0 18.765 15.765 2.572-3.062-18.765-15.766z" fill="#39b54a"/>
   </g>
   <g transform="translate(98.074 38.95)">
    <path d="m0 0-1.822 3.56-9.128-4.673-4.673 9.128-3.56-1.823 4.673-9.128-9.128-4.673 1.824-3.56 9.126 4.673 4.673-9.127 3.561 1.822-4.673 9.128z" fill="#5dd1f9"/>
   </g>
   <g transform="translate(4.5981,3.6445)">
    <path d="m0 0c0.882 0 1.414 0.311 1.414 1.012 0 0.609-0.455 0.986-1.479 0.986h-2.309v-1.998zm-0.532 3.658c0.882 0 1.44 0.285 1.44 0.985 0 0.597-0.467 0.934-1.31 0.934h-1.972v-1.919zm-3.787 3.67h4.215c1.038 0 1.854-0.285 2.374-0.805 0.415-0.414 0.622-0.919 0.622-1.568 0-1.025-0.545-1.596-1.193-1.959 1.051-0.402 1.699-1.012 1.699-2.257 0-1.66-1.349-2.49-3.398-2.49h-4.319z"/>
   </g>
   <g transform="translate(18.1 6.4336)">
    <path d="m0 0c0 1.556-1.142 2.854-2.75 2.854s-2.724-1.272-2.724-2.854c0-1.557 1.142-2.854 2.75-2.854s2.724 1.271 2.724 2.854m-7.562 0c0 2.58 2.037 4.694 4.838 4.694 2.802 0 4.812-2.088 4.812-4.694 0-2.582-2.036-4.695-4.838-4.695-2.801 0-4.812 2.088-4.812 4.695"/>
   </g>
   <g transform="translate(26.841 6.3945)">
    <path d="m0 0c0.999 0 1.583 0.596 1.583 1.4 0 0.895-0.623 1.375-1.622 1.375h-1.543v-2.775zm-3.58 4.578h3.71c2.166 0 3.476-1.284 3.476-3.165 0-2.1-1.634-3.19-3.67-3.19h-1.518v-2.724h-1.998z"/>
   </g>
   <g transform="translate(33.222 10.973)">
    <path d="m0 0h1.998v-3.969l3.683 3.969h2.412l-3.696-3.852 3.865-5.227h-2.399l-2.815 3.865-1.05-1.09v-2.775h-1.998z"/>
   </g>
   <g transform="translate(49.201 5.6934)">
    <path d="m0 0-1.206 2.944-1.206-2.944zm-2.101 5.344h1.842l3.891-9.144h-2.088l-0.83 2.036h-3.839l-0.831-2.036h-2.036z"/>
   </g>
   <g transform="translate(58.346 9.1699)">
    <path d="m0 0v-0.921c0-1.92-0.299-3.294-0.817-4.553h3.502v5.474zm-3.774-5.474h0.855c0.675 1.57 0.999 3.113 0.999 6.213v1.064h6.602v-7.277h1.089l-0.259-3.696h-1.673v1.894h-5.681l-0.13-1.894h-1.802z"/>
   </g>
   <g transform="translate(74.636 1.8936)">
    <path d="m0 0h-1.972v5.953l-3.968-5.953h-1.88v9.079h1.97v-5.953l3.996 5.953h1.854z"/>
   </g>
   <g transform="translate(84.143 10.973)">
    <path d="m0 0h2.166l-3.488-7.018c-0.791-1.582-1.699-2.204-2.971-2.204-0.778 0-1.388 0.208-1.958 0.533l0.778 1.464c0.364-0.22 0.726-0.297 1.077-0.297 0.363 0 0.778 0.168 1.141 0.725l-3.632 6.797h2.231l2.465-4.799z"/>
   </g>
   <g transform="translate(88.929 10.973)">
    <path d="m0 0h2.152l2.387-3.84 2.387 3.84h2.153v-9.079h-1.985v5.927l-2.555-3.877h-0.052l-2.529 3.838v-5.888h-1.958z"/>
   </g>
  </g>
 </g>
</svg>
